<?xml version="1.0" encoding="utf-8"?>
<!-- Generator: Adobe Illustrator 21.0.0, SVG Export Plug-In . SVG Version: 6.00 Build 0)  -->
<svg version="1.1" xmlns="http://www.w3.org/2000/svg" xmlns:xlink="http://www.w3.org/1999/xlink" x="0px" y="0px"
	 viewBox="0 0 500 500" style="enable-background:new 0 0 500 500;" xml:space="preserve">
<style type="text/css">
	.st0{fill:#C35C6A;}
	.st1{fill:#D6666F;}
	.st2{fill:#D9BC9A;}
	.st3{opacity:0.14;fill:#97825D;}
	.st4{fill:#E2C8AA;}
	.st5{fill:#CA9C63;}
	.st6{opacity:0.14;fill:#B7A37F;}
	.st7{fill:#D0AB6D;}
	.st8{fill:#CFA663;}
</style>
<g id="imageBorder">
	<rect class="st0" width="500" height="500"/>
</g>
<g id="roundIMGBG">
	<circle class="st1" cx="250" cy="250" r="250"/>
</g>
<g id="Layer_3">
	<path class="st2" d="M291.4,338.9c0,28.4,17.6,51.5-42.7,51.5c-59.1,0-42.7-23-42.7-51.5c0-28.4,19.1-51.5,42.7-51.5
		S291.4,310.5,291.4,338.9z"/>
	<path class="st3" d="M234.6,291.4V391c-42.3-3.6-28.7-25-28.7-50.9C205.9,317.6,217.9,298.4,234.6,291.4z"/>
	<path class="st4" d="M374.3,202c0,76.3-16.3,138.1-124,138.1c-110.6,0-124-61.8-124-138.1S181.9,64,250.4,64S374.3,125.8,374.3,202
		z"/>
	<polygon class="st5" points="193.1,334.2 193.1,350.6 194.3,369.3 194.3,384.5 196.6,392.7 201.3,389.2 201.3,375.2 203.6,378.7 
		206,355.3 206,342.4 206,335.4 194.3,331.9 	"/>
	<path class="st6" d="M236.4,66v274.9c-97.8-5.1-110-64.8-110-137.7C126.4,132.2,174.5,73.7,236.4,66z"/>
	<path class="st7" d="M349.5,175h-196c-8.5,0-15.5-7.7-15.5-17.2l1.3-24.3c0-12.9,42.6-50.1,50.3-52.9c0,0,25.8-18.6,59.3-18.6
		c34.8,0,67.1,20,67.1,20c10.3,4.3,49,45.5,49,55.8v20C365,167.3,358,175,349.5,175z"/>
	<path class="st8" d="M223.5,65.9c0,0-16.1-0.8-24.8,5.1s-22.3,10.5-26,15.2c-3.7,4.7-32.2,21.1-32.2,24.6
		c0,3.5-13.6,19.9-13.6,23.4c0,3.5-8.7,24.6-8.7,31.6s-11.1,65.5-7.4,77.2c3.7,11.7,9.9,28.1,9.9,33.9c0,5.9-6.2,28.1-5,31.6
		s12.4,42.1,11.1,48c-1.2,5.9-1.2,21.1,1.2,28.1c2.5,7,5,24.6,5,26.9s5.6,28.7,8.1,31c2.5,2.3,12.4-3.5,12.4-5.9s6.2,3.5,6.2,3.5
		s6.2-7,6.2-9.4c0-2.3,5,7,5,9.4c0,2.3,16.1-12.9,14.9-16.4s3.7-7,3.7-7s2.5,5.9,1.2,8.2c-1.2,2.3,5-12.9,5-12.9s2.5-15.2,0-22.2
		c-2.5-7,1.2-14,0-19.9c-1.2-5.9,0-18.7-1.2-23.4s1.2-12.9,0-14s-24.1-9-38.7-24c-14.7-15-22-33.9-25.7-57.3s-1.2-42.1-1.2-42.1
		s-2.3-22.3-1.2-22.8c3.6-1.8,2.3-11.1,3.6-15.8s14.2-18.9,14-22.2c-0.2-3.3,3.5-25.7,3.5-25.7l10.5-15.2
		C159.2,107.2,187,75.5,223.5,65.9z"/>
	<path class="st5" d="M318.9,327.4c0,0-17.7,6.8-27.9,9.2l0.4,8.2v10.5l1.2,9.4l0.4,8.8l-0.4,6.4l3.5-2.3l1.2,4.7l3.5-4.7v4.7
		l2.3,4.7l2.3-1.2l4.7,3.5v1.2l4.7,2.3l7,3.5h3.5v-2.3l-4.7-25.7l-1.2-25.7L318.9,327.4z"/>
	<path class="st8" d="M223.5,66.3c0,0,0.4-0.3,1-0.7c3.3-2.1,13.3-8.5,16.5-7.5c3.8,1.2,23.8,1.2,23.8,1.2s23.8-1.2,23.8,0
		c0,1.2,10,7,11.3,7c1.3,0,20,10.5,20,11.7s21.3,8.2,21.3,10.5s15.6,19.3,15.6,19.3l8.8,10.5l3.8,8.2c0,0,8.8,10.5,10,12.9
		c1.3,2.3,7.5,18.7,7.5,22.2s8.8,23.4,7.5,36.3c-1.3,12.9-2.5,21.1-2.5,24.6c0,3.5,0,28.1,1.3,31.6c1.3,3.5,1.3,25.7-7.5,39.8
		c-8.8,14-6.3,31.6-6.3,31.6s-3.8,28.1-7.5,36.3c-3.8,8.2-2.5,18.7-2.5,23.4c0,4.7-6.3,18.7-6.3,23.4s-6.3,14-6.3,14l-1.3-8.2
		c0,0-5,2.3-5,5.9s-5-17.6-5-17.6s1.3,14,0,14s-2.5-9.4-2.5-9.4s-1.3,5.9-1.3,9.4s-5-12.9-5-15.2c0-2.3-11.4-1.8-11.4-5.3
		s-4.6-12.9-5.9-17.6s-4.8-18.7-2.3-21.1c2.5-2.3-1.2-12.9-1.2-15.2c0-2.3,1.2-12.9,1.2-12.9s20.6-15.2,28.1-23.4s18.5-19.9,22.2-41
		s5.9-41,5.9-58.5s0-15.2,0-17.6s-2.2-14-4.7-18.7s-4.4-15.8-4.4-19.3s-2.5-10.5-2.5-10.5l-4.8-7.6c0,0-17.9-28.3-28.1-35.1
		C318.6,91.1,306.7,77,278.5,71S223.5,66.3,223.5,66.3z"/>
</g>
</svg>
