<?xml version="1.0" encoding="utf-8"?>
<!-- Generator: Adobe Illustrator 15.0.0, SVG Export Plug-In . SVG Version: 6.00 Build 0)  -->
<!DOCTYPE svg PUBLIC "-//W3C//DTD SVG 1.1//EN" "http://www.w3.org/Graphics/SVG/1.1/DTD/svg11.dtd">
<svg version="1.1" id="Layer_1" xmlns="http://www.w3.org/2000/svg" xmlns:xlink="http://www.w3.org/1999/xlink" x="0px" y="0px"
	 width="131.541px" height="108.594px" viewBox="-0.061 0.233 131.541 108.594"
	 enable-background="new -0.061 0.233 131.541 108.594" xml:space="preserve">
<g>
	<path fill="#C8C8C8" d="M82.956,108.736H48.385l1.572-4.623c1.756-5.131,2.726-10.49,2.911-15.898l0.093-3.003h25.42l0.092,3.558
		c0.139,5.038,1.062,9.984,2.68,14.697L82.956,108.736z"/>
	
		<linearGradient id="SVGID_1_" gradientUnits="userSpaceOnUse" x1="2803.4648" y1="-2191.1445" x2="2803.4648" y2="-2093.2507" gradientTransform="matrix(0.24 0 0 -0.24 -607.1603 -417.0476)">
		<stop  offset="0" style="stop-color:#434041;stop-opacity:0.2"/>
		<stop  offset="1" style="stop-color:#000000"/>
	</linearGradient>
	<path fill="url(#SVGID_1_)" d="M82.956,108.828H48.385l1.572-4.621c1.756-5.131,2.726-10.491,2.911-15.898l0.093-3.005h25.42
		l0.092,3.558c0.139,5.039,1.062,9.982,2.68,14.699L82.956,108.828z"/>
	<g>
		<path stroke="#000000" stroke-width="1.8707" stroke-miterlimit="10" d="M130.608,6.87v77.368H0.827V6.87
			c0-3.188,2.588-5.777,5.777-5.777h118.18C128.019,1.139,130.608,3.728,130.608,6.87z"/>
		
			<rect x="10.487" y="9.829" fill="#D6666F" stroke="#D6666F" stroke-width="1.9069" stroke-miterlimit="10" width="110.459" height="68.032"/>
		<g>
			
				<path opacity="0.5" fill="#EBEAE4" stroke="#EBEAE4" stroke-width="2.0089" stroke-miterlimit="10" enable-background="new    " d="
				M120.856,11.122v65.676h-3.004c-4.9,0-4.9-1.712-4.9-3.837v-58.05c0-2.079,0.646-3.835,4.9-3.835L120.856,11.122L120.856,11.122z
				"/>
			
				<ellipse fill="#CCCCCC" stroke="#404040" stroke-width="1.9069" stroke-miterlimit="10" cx="116.835" cy="27.236" rx="2.727" ry="2.958"/>
			
				<ellipse fill="#2AA8C6" stroke="#FFFFFF" stroke-width="1.9069" stroke-miterlimit="10" cx="116.835" cy="36.555" rx="2.727" ry="2.958"/>
			
				<ellipse fill="#FFFFFF" stroke="#ED2F65" stroke-width="1.9069" stroke-miterlimit="10" cx="116.835" cy="46.013" rx="2.727" ry="2.958"/>
			
				<rect x="117.019" y="14.912" fill="#FFFFFF" stroke="#FFFFFF" stroke-width="2.0089" stroke-miterlimit="10" width="2.635" height="5.777"/>
			
				<rect x="114.245" y="14.912" fill="#83D2E5" stroke="#83D2E5" stroke-width="2.0089" stroke-miterlimit="10" width="2.773" height="5.777"/>
		</g>
		<path fill="#C8C8C8" stroke="#C8C8C8" stroke-width="1.7804" stroke-miterlimit="10" d="M130.966,84.287v5.822
			c0,3.189-2.6,5.777-5.799,5.777H6.396c-3.203,0-5.801-2.588-5.801-5.777v-5.822H130.966z"/>
		
			<rect x="11.689" y="11.354" fill="#565656" stroke="#565656" stroke-width="1.7767" stroke-miterlimit="10" width="99.368" height="64.798"/>
		<circle fill="#E57551" stroke="#E57551" stroke-width="0.8799" stroke-miterlimit="10" cx="13.537" cy="13.11" r="0.832"/>
		<circle fill="#F5C34D" stroke="#F5C34D" stroke-width="0.8799" stroke-miterlimit="10" cx="16.218" cy="13.11" r="0.832"/>
		<circle fill="#7BCB89" stroke="#7BCB89" stroke-width="0.8799" stroke-miterlimit="10" cx="18.898" cy="13.11" r="0.832"/>
		
			<rect x="15.34" y="17.038" fill="#737373" stroke="#737373" stroke-width="1.7767" stroke-miterlimit="10" width="15.667" height="2.126"/>
		
			<rect x="31.701" y="17.038" fill="#3C3C3C" stroke="#3C3C3C" stroke-width="1.8707" stroke-miterlimit="10" width="15.667" height="2.126"/>
		
			<rect x="48.062" y="17.038" fill="#3C3C3C" stroke="#3C3C3C" stroke-width="1.8707" stroke-miterlimit="10" width="15.668" height="2.126"/>
		<polygon fill="#282828" points="109.024,19.996 109.024,21.753 16.819,21.753 16.819,76.291 15.155,76.291 15.155,19.996 		"/>
		<g>
			<rect x="16.819" y="21.938" fill="#8C8C8C" width="90.355" height="52.597"/>
		</g>
		<rect x="16.819" y="74.535" fill="#3C3C3C" width="90.402" height="1.756"/>
		<rect x="107.313" y="21.799" fill="#3C3C3C" width="1.711" height="52.597"/>
		
			<rect x="20.007" y="24.48" fill="#FFFFFF" stroke="#000000" stroke-width="0.8883" stroke-miterlimit="10" width="83.47" height="47.604"/>
		<g opacity="0.3">
			<path fill="#FFFFFF" d="M0.172,5.817c-0.046-1.21,0.559-2.514,1.58-3.583c1.069-1.116,2.464-1.768,3.719-1.768h46.771
				L0.125,54.112L0.172,5.817L0.172,5.817z"/>
			<path fill="#FFFFFF" d="M51.732,0.698L0.358,53.553V5.77C0.312,4.654,0.916,3.351,1.893,2.327
				c1.023-1.069,2.37-1.675,3.579-1.675L51.732,0.698 M52.938,0.142H6.396C3.062,0.33-0.312,3.205-0.061,6.976l-0.084,47.74
				L52.847,0.233L52.938,0.142z"/>
		</g>
	</g>
</g>
</svg>
