<?xml version="1.0" encoding="utf-8"?>
<!-- Generator: Adobe Illustrator 21.1.0, SVG Export Plug-In . SVG Version: 6.00 Build 0)  -->
<svg version="1.1" id="Layer_1" xmlns="http://www.w3.org/2000/svg" xmlns:xlink="http://www.w3.org/1999/xlink" x="0px" y="0px"
	 viewBox="0 0 486 500" style="enable-background:new 0 0 486 500;" xml:space="preserve">
<style type="text/css">
	.st0{fill:#536399;}
	.st1{fill:#D19F76;}
	.st2{fill:#C99876;}
	.st3{fill:#D19483;}
	.st4{fill:none;stroke:#C99876;stroke-width:4.2105;stroke-linecap:round;stroke-linejoin:round;stroke-miterlimit:10;}
	.st5{fill:#EEBEAB;}
	.st6{opacity:0.36;fill:#CF948A;enable-background:new    ;}
	.st7{opacity:0.62;fill:#FFB69F;enable-background:new    ;}
	.st8{opacity:0.21;fill:#CF948A;enable-background:new    ;}
	.st9{opacity:0.73;fill:#F6CEBD;enable-background:new    ;}
	.st10{fill:#FFE4D8;}
	.st11{opacity:0.35;fill:#CF948A;enable-background:new    ;}
	.st12{fill:#2F1200;}
	.st13{fill:#F0EFEC;}
	.st14{fill:#FFFFFF;}
</style>
<g id="Layer_1_1_">
	<g id="roundIMGBG">
		<circle class="st0" cx="243.5" cy="247.5" r="242.5"/>
	</g>
</g>
<g id="Layer_7">
	<path class="st1" d="M386.2,37.5c4.5,0.9,8.7,3.4,13,4.9c6.8,2.3,8.2-3.6,13.3,1.6c3.3,3.2,11.5,6.7,14,10.5
		c3.7,5.3,6.6,2.9,11.9,6.7s16.6,3.6,17.5,10c0.5,3.5-0.3,6.9,0.1,10.4c1.1,11.3,13,18.5,16.6,29.2c2.3,6.7,1.1,14-0.1,21.1
		c-0.6,3.6-1.3,7.2-2.7,10.5c-3.2,7.4-13.4,31.3-21.1,34.2c-2,0.8-4.3,1.4-6.2,0.5c-1.6-0.8-2.6-2.4-3.5-4
		c-11.9-21.1-19-44.5-28.8-66.5c-9.8-22.1-22.9-43.9-43.4-56.8c-2.7-1.7,6-7.8,6.9-8.4C378.1,38.4,380.9,36.4,386.2,37.5z"/>
	<path class="st2" d="M244.4,24.5c39.2-7.8,80.4-1.4,117.4,13.5c20.7,8.4,40.9,20,54,38.1c8.8,12.4,13.8,27,18.3,41.4
		c5,16.1,9.6,32.3,11.8,49c1.8,14,1.9,28.2,1.9,42.2c0,12.2,0.1,24.3,0.1,36.6c0,8.3,0.1,16.7-1.2,24.9c-1.4,8.9-4.2,17.4-5.6,26.3
		c-2.7,16.5-0.5,33.5-3.1,50c-1.9,12.4-6.4,24.2-8,36.7c-1.3,10-0.6,20.2-2.3,30.1c-2,11.8-7.2,22.6-10.4,34.1
		c-4.5,16.6-4.7,34.1-4.8,51.3c-5.5,1.2-11.7-2.1-13.6-7.3c-2.8-0.2-5.5,1.2-7.1,3.4c-9.5-9.7-17.9-20.6-24.9-32.1
		c-2.3-3.7-4.3-7.4-7.6-10.3c-5.2-4.5-12.4-6-18.9-8.4c-6.5-2.5-13.1-6.9-14.1-13.8c-1.2-9.1,7.8-15.7,14-22.4
		c15.9-17.3,15.4-43.6,21.6-66.3c4.9-18.2,14.5-34.8,20.4-52.7c8.2-25.3,8.8-52.4,9.2-79c0.3-19.6,0.6-39.6-5.7-58.1
		c-4.7-13.7-12.9-26-21.6-37.6c-7.3-9.6-15.2-19.1-25.4-25.6c-11.1-7.1-24-10.4-37-12.8c-38.9-7.2-79-7.2-117.8-0.2
		c-15.4,3-27.8,13-38.2,25c-1-22.9,28.4-43.7,45.4-54.6C207.2,35.5,225.5,28.3,244.4,24.5z"/>
	<path class="st3" d="M134.1,175.4c-1,11.7-2.1,23.5-1.2,35.2c0.8,10.7,3.1,21.2,3.1,31.8c0,7.3-1,14.6-0.2,21.9
		c1.2,10.9,9.4,20.2,10.1,31.1c3.7,57.2,23.3,101.1,35.4,145.5c9.5,1.4,10.3-14.2,19.4-17.2c4.9-1.6,16.9,3.8,22,3.3
		c14.9-1.5,12-13.7,26.1-18.9c-7-44.3-23.2-86.4-37.7-128.8c-8.9-26.4-17.4-53.3-32.5-76.6c-7.3-11.3-16.1-21.6-21.6-33.7
		c-3.7-7.9-5.7-16.3-8.1-24.6c-2.1-7.3-4.1-18.5-9.6-23.8C134.4,137.1,135.6,158,134.1,175.4z"/>
	<path class="st4" d="M445.5,164.1c-7.9-8.8-14-18.6-18.1-28.9c-2.2-5.4-3.8-11.1-3.1-16.7c0.7-5.1,3.2-10,6.4-14.5
		c4.6-6.5,10.8-12.6,18-17.5"/>
	<path class="st4" d="M404.9,144.2c-5-10.7-8.1-21.8-9.1-32.8c-0.5-5.8-0.4-11.7,1.9-16.9c2.1-4.7,5.9-8.7,10.3-12.2
		c6.3-4.9,13.8-8.9,22.1-11.7"/>
	<path class="st4" d="M461.3,111.6c-3.1,11.5-8,21.9-14.3,30.9c-3.4,4.7-7.2,9.2-12.4,11.7c-4.6,2.3-10.2,2.8-15.7,2.6
		c-8-0.3-16.3-2.2-24.4-5.5"/>
	<path class="st4" d="M410,55.4c-11.8,1.6-22.7,5.1-32.5,10.3c-5.1,2.8-10,6-13.1,10.8c-2.9,4.3-4.1,9.7-4.5,15.2
		c-0.7,8,0.1,16.5,2.4,25"/>
</g>
<g id="Layer_10">
	<path class="st2" d="M131.7,175.1c-1.1,55.4-2.1,111.1,7.8,165.7c6.9,38,19,75.3,19.7,113.9c14.3-1,27-9.6,34.8-20.2
		s11.5-23.1,14.2-35.5c2.1-9.2,3.7-18.6,4-28c0.5-20.7-5.6-40.8-11.8-60.7c-6.9-22.2-13.7-44.6-21.8-66.5
		c-4.8-13.1-10.1-26.2-14.4-39.5c-9.7-30.1-14.5-61.2-19.4-92.1c-0.4-2.3-0.6-4.5-0.8-6.9C130.9,125.2,132.1,153.2,131.7,175.1z"/>
</g>
<g id="Layer_5">
	<path class="st5" d="M287.4,42.1c-11.7-0.6-23.3-0.7-35-0.5c-6.6,0.2-13.3,0.4-19.9,2c-5.9,1.4-11.6,3.9-17.1,6.4
		c-10.3,4.6-20.5,9.6-29.6,16.2c-18.6,13.6-31.8,34.3-36.4,56.9c-3.8,18.7-5.3,37.9-4.5,56.9c0.3,6,0.6,12.2,1.4,18.2
		c0.8,5.6,0,11.6,0,17.3c0,10.7,0.8,21.4,3.6,31.6c2.5,9.1,6.5,18.6,11.8,26.5c2.8,4.3,6,8.2,7.9,12.9c0.9,2.3,2.7,3.8,3.6,6
		c2.1,4.7,5.6,8.9,8.6,13.1c1.2,1.8,2.4,3.5,3.9,5c0.9,1,2,1.9,3,2.8c4.2,4.1,7.5,8.7,11.7,12.9c5.7,5.7,11.6,11.8,14.6,19.3
		c2.1,5,4,13.8,7.2,18c2.7,3.5,9.3,4.3,10.8,8.3c0.5,1.2,0.4,2.6,0.2,3.9c-0.8,8.5-3.3,17.6,3.2,24.6c2.4,2.6,5.4,4.3,8.5,5.9
		c14.5,7.7,30.3,14.3,46.9,15.6c9.8,0.8,19.7,0.2,29.5-0.4c10.5-0.6,20.2-6.8,28-13.7c4.3-3.9,8.1-8.4,11.6-13
		c3.7-4.9,5.5-9.8,7.8-15.3c2.5-6,1.8-12.7,4.2-18.7c4.2-10.6,6.4-21.8,8.4-33c1-5.7,1.9-11.5,3-17.1c0.5-2.6,0.7-5.3,1.7-7.7
		c0.9-2.3,2.7-4.1,3.8-6.2c0.7-1.4,1.1-2.9,1.5-4.3c1.3-4.6,3.2-9.2,5.4-13.4c0.7-1.2,0.8-2.8,1.3-4.1c0.5-1.2,0.9-2.5,1.3-3.8
		c2-6.3,4-12.7,5.8-19c2,1.6,4.8,1.7,7.1,0.7c2.4-1,4.2-2.9,5.6-4.9c1.4-1.9,2.6-4.2,2.7-6.4c0.7-11.8,0.3-23.1-0.8-34.8
		c-0.2-2.1-0.6-4.2-2-5.6c-1.8-1.9-4.8-2.5-5.7-4.8c-9.8-24.9-1.4-53.6-7.2-79.7c-4.3-19.4-25.1-30.4-42-40.9
		c-16.8-10.5-35.2-18.2-53.6-25.6C301.4,47,295.1,42.5,287.4,42.1z"/>
</g>
<g id="Layer_8">
	<path class="st1" d="M238.7,65.7c16.2-1.2,32.5-1.2,48.5,2.4c25.1,5.8,48.7,20.6,69.5,40.4c11.7,11.2,22.3,22.6,32.1,35.5
		c9.4,12.4,12.4,25.3,12.7,41c0.2,6.9-3.6,37.7,7.2,34.8c4.3-1.1,7.6-7.3,10.7-10.7c7.1-7.6,9.3-15.6,17.1-22.4
		c7.4-6.5,11.8-8.9,10.6-18.2c-3.7-28.7-12-56.8-23.6-83.2c-2.2-4.8-4.3-9.7-7.3-14c-6.1-9-15.2-15-23.1-22.2
		c-8.3-7.6-19.3-22.9-29.1-28.9c-19.3-11.7-36.5-10.6-58.5-15c-24.5-4.9-50-7.1-73.7,2.7c-15.4,6.4-29.5,17.4-43.3,28.4
		c-12.4,9.8-24.9,19.8-34.5,34.1c-6.7,10.1-19.6,37.7-12.6,51.3c3.5-4,6.9-8.2,10.4-12.2c4.4-5.2,5.9-12,10.2-16.7
		c5.6-6.2,13.8-10.1,20.6-13.4C200.6,70.8,219.8,67.3,238.7,65.7z"/>
</g>
<g id="Layer_4">
	<path class="st6" d="M304.8,196.7c3.3,1.1,7.2,0.8,10.7,1c3.4,0.1,6.8,0.5,10.1,0.3c1.1-0.1,1.9-0.5,2.9-0.8c1.6-0.5,3.4-0.7,5-0.8
		c4.1-0.3,8,0.4,12,1.1c5.4,1,10.8,1.9,16.2,2.9c1.1,4.3-2.7,2.4-5.7,5.7c-3.1,3.4-8,4.1-12.6,5.2c-7.8,2.1-11.3,5.9-19.1,4
		c-7.8-2-16.5-3.9-23.7-7.2c-3.7-1.7-4.8-2.3-7.9-4.6c-1.7-1.2-3.2-1.9-4.6-3.3c-2.6-2.5-5-3-2.2-4.3c2.4-1.2,6.2-2.8,8.9-2.4
		C298.1,193.9,301.4,195.6,304.8,196.7z"/>
	<path class="st7" d="M278.7,193.4c-3.5,1.4-4.8,5.5-5.7,9.2c-1.3,5.1-2.5,10.4-2.6,15.7c-0.1,12.4,6.8,24.6,17.6,30.7
		c5.2,3.1,9.1,7.9,14.4,10.7c5,2.6,10.7,3.9,16.3,4.8c16.5,2.9,39.7,6.6,55.2-2c3.8-2.1,7-5,10.2-8c2.3-2.2,4.6-4.4,6.2-7.1
		c1.9-3.1,2.9-6.5,3.8-10c3.6-13.9,5.6-28.8,1.4-42.4c-0.8-2.7-2.1-5.5-4.6-6.5c-2.4-1-5-0.1-7.4,0.8c-6.8,2.5-13.4,4.4-19.3,8.8
		c-3.6,2.7-6.5,5.9-10.1,8.6c-8.2,6-18.7,8.1-28.8,8.3c-4.2,0.1-8.3-0.1-12.3-1.3c-3.8-1.1-7.1-3.2-10.6-5.1
		c-3.9-2.3-7.7-4.5-11.3-7.2C286.8,198,284.1,194.7,278.7,193.4z"/>
	<path class="st8" d="M229.5,224.4c-3.4,3.8-4,9.1-6.2,13.6c-4.4,9.1-14.4,13.8-23.6,17.9c-3.5,1.6-7.2,3.3-9.3,6.4
		c-3,4.5-1.8,10.7,0.9,15.3c2.7,4.6,6.6,8.4,9.7,12.9c4.4,6.5,6.7,14.1,8.9,21.7c2.8-5.2,5.5-10.6,6.2-16.5c0.5-5-0.6-10.2-1.6-15.2
		c-0.2-0.8-0.3-1.6,0-2.3c0.3-0.8,1-1.3,1.6-1.8c2.8-2.3,4.6-5.3,6.4-8.4c1.3-2.2,2.7-4.3,3.4-6.8c0.6-2,0.9-4.1,1.3-6.1
		c1.1-5.6,4-10.5,5.4-15.9c0.7-2.7,0.1-4-0.7-6.7C231.6,231.6,229,225,229.5,224.4z"/>
	<path class="st8" d="M282.6,256.3c0.1,1.3,0.1,2.5,0.5,3.7c0.6,1.8,1.9,3.2,3.2,4.5c7.2,7.6,14.9,14.7,23.2,21.2
		c0.6,0.5,1.3,1,1.5,1.8c0.1,0.5,0,1.1-0.1,1.6c-1.8,6.1-8.8,8.7-13.6,13c-0.5,0.4-1,0.9-1,1.5c-0.2,1.6,1.9,2.3,3.5,2.7
		c6.2,1.8,8.8,9.2,9.7,15.6c0.2,1.7,0.5,3.4,1.4,4.6c1,1.4,3,2.1,4.3,1.1c0.9-0.6,1.2-1.8,1.4-2.8c2.4-9.6,4.7-19.2,7.1-28.8
		c0.6-2.5,1.2-4.9,0.7-7.4c-0.6-3.6-3.3-6.3-5.8-8.8c-10.8-10.2-23.7-19.1-29.3-32.8c-0.9-2.2-3.9-9.4-6.5-5.3
		C280.7,244.5,282.4,253,282.6,256.3z"/>
	<path class="st9" d="M232,237.6c-5.2,0.7-8.7,6.1-9.2,11.4c-0.4,4.1,0.7,8.5,3.9,11c3.3,2.6,7.8,2.5,11.6,4.2
		c2.3,1.1,4.3,2.8,6.4,4.2c2.2,1.3,4.8,2.3,7.3,1.5c1.9-0.6,3.4-2.2,5-3.3c5.7-3.7,13.1-1.6,20-1.4c2,0,4.1-0.1,5.8-1
		c5.1-2.5,6.1-9.6,4.2-14.9s-5.9-9.6-8.7-14.5c-5.5-9.9-5.9-21.8-5.2-33.1c0.2-2.4,0.3-4.8-0.6-7c-0.9-2.1-2.6-3.7-4.3-5.1
		c-2.6-2.2-5.3-4.2-8.2-6c-1.6-1-3.3-2-5.1-2.3c-2.8-0.4-5.5,0.7-8.1,1.9c-5.1,2.4-10.3,5.1-13.8,9.5c-2.2,2.7-3.8,6.1-4,9.7
		c-0.2,3.5,1.4,6.1,1,9.6C229.2,220.5,229.3,229,232,237.6z"/>
	<path class="st6" d="M229.4,191.3c-0.1-0.9-0.3-1.5-0.5-1.7c-1.5-1.3-4.1,1-5.2,1.9c-0.8,0.6-1.7,1.5-2.7,1.7
		c-1.5,0.4-3.4,0.3-4.8,0.4c-4.1,0.4-8.2,0.6-12.3,0.6c-3.6,0-8.1-0.2-11.6-1.3c-3.4-1-6.6-3.6-9.2-5.8c-0.5-0.4-0.9-0.9-1.5-1.1
		c-0.6-0.2-1.3-0.1-1.9,0.1c-2.8,0.7-5.1,2.6-7.7,3.7c-2.1,0.9-6.7,0.5-7.3,3.1s4.9,2.8,6.8,3.9c7.2,4,9.7,6.7,16.5,7.9
		c4.1,0.7,7.8,3.3,11.9,3.3c5.6,0,8.9-0.1,14.5,0c4,0.1,5.1-1.2,7.9-4c2.4-2.4,7.4-2.3,7.5-5.5C229.8,197.5,229.7,193.7,229.4,191.3
		z"/>
	<path class="st7" d="M222.8,204.6c-3.4,2.1-7.5,2.6-11.5,2.9c-6.9,0.5-14,0.6-20.6-1.7c-11.7-4.1-21.2-15-33.5-14.9
		c-2.6,0-5.2,0.6-7,2.4c-1.6,1.6-2.3,4-2.7,6.1c-1.3,6.8-1.1,13.9-0.9,20.9c0.3,8.1,1.2,15.6,2.5,23.5c0.3,2.1,0.7,4.2,1.5,6.1
		c5.1,12.7,17.7,18.3,30.6,18.2c5.2-0.1,10.7-0.5,15.2-3.2c4.4-2.6,7.5-7.1,12-9.7c4.7-2.7,8.2-5.1,12.2-9.1
		c2.4-2.4,4.6-4.7,6.2-7.7c1.4-2.8,2-5.9,2.5-9c1.2-7.9,2-15.9,2.4-24c0.1-1.9,1.2-7.4-2.3-6.9C227.6,198.6,224.4,203.5,222.8,204.6
		z"/>
	<path class="st7" d="M244.5,136.6c-4.9,3.8-10,7.6-14.6,11.9c-0.4,0.4-0.9,0.9-1,1.4c-0.2,0.9,0.5,1.7,1.1,2.3
		c1.4,1.5,2.9,3.1,4.3,4.5c1.3,1.4,2.6,2.8,4.3,3.5c2.6,1,5.4,0.1,8.2-0.1c5-0.4,10.3,1.4,15.2,0.1c1.3-0.3,2.6-0.9,3.4-1.9
		c1.4-1.9,0.7-4.6-0.6-6.7c-1.3-2-3.1-3.8-3.8-6c-1.4-4.3,1.1-9.7-2-12.8C255.4,129.1,247.6,134.2,244.5,136.6z"/>
	<path class="st7" d="M269.7,336c-3-0.8-5.9-1.3-9-1.5c-5.4-0.5-12.1,0-14.7,4.7c-2.3,4.1-0.3,9.4,3.3,12.3s8.5,3.7,13,3.8
		c4.6,0.1,9.3-0.4,13.8,0.3c4.3,0.7,8.5,2.4,12.9,2.4c8.4,0,15.7-6.2,20.1-13.4c0.9-1.5,1.7-3.2,1.3-4.7c-0.8-2.7-4.3-3.3-7.1-3.2
		c-6.1,0.2-11.9,2.1-17.9,2.5C279.8,339.5,274.9,337.5,269.7,336z"/>
	<path class="st7" d="M252.4,272.1c0.2,3.4,0.5,6.7,0.7,10.1c0.1,0.7,0.1,1.5-0.3,2.1c-0.6,0.9-1.9,0.8-3,0.7
		c-2.3-0.2-4.4-0.5-6.7-0.7c0.9-2.6,3.3-4.3,4.4-6.8c0.6-1.2,0.8-2.7,1.3-3.9C249.3,272.1,251,272.1,252.4,272.1z"/>
	<path class="st10" d="M331.8,197c-1.4-6.1-5.5-12.4-7.9-18.2c-0.4-0.9-0.8-1.9-1.5-2.6c-1.4-1.6-3.7-2-5.7-2
		c-1.8,0-3.7,0.3-5.3,0.9c-1.8,0.6-3.4,1.6-4.9,2.6c-3.6,2.5-6.6,5.6-9.2,9.2c-1.4,2-2.5,5.1-4.8,6.1c3.5,0,7,2.3,10.3,3.2
		c6,1.7,12.1,2.4,18.3,2.1C321.9,198.3,332,197.9,331.8,197z"/>
	<path class="st10" d="M330.5,196.8c2.7,0.1,5.4,0.1,8-0.5s4.8-1.8,7.3-2.6c4-1.2,8.3-1.4,11.8-3.6c-0.8,0.5-7.5-2.2-8.8-2.5
		c-2-0.4-4.5-1.3-6.5-0.6c-2.1,0.8-3.4,3.6-4.9,5C335.5,194.1,333.1,195.7,330.5,196.8z"/>
	<path class="st10" d="M205.4,171.8c-1.9-0.4-3.9-0.3-5.8,0c-6.3,1-12.6,3.4-17.8,7c-1,0.7-2.1,1.5-2.2,2.7
		c-0.1,0.7,0.2,1.3,0.5,1.9c2,4.1,5.8,7,10,8.6c4.3,1.6,8.8,2.1,13.2,2.4c4.7,0.3,9.7,0.3,14.1-1.6c0.9-0.4,1.9-1,2.2-1.9
		c0.3-0.8,0-1.6-0.2-2.4c-0.8-2.5-1.5-4.9-2.3-7.3c-0.5-1.6-1-3.2-2-4.3c-1.4-1.6-2.9-1.1-4.4-1.9
		C208.7,173.9,207.6,172.3,205.4,171.8z"/>
	<path class="st11" d="M329.9,339.3c3.9-3.3,7.8-6.6,12.6-8.2c3.3-1.1,6.6-1.4,10-2.3c7.5-2.1,13.7-7.1,19.2-12.8
		c5.3-5.6,10.1-11.9,15.8-17.1c-2.9,3.4-1.8,8.7-3.8,12.7c-1.7,3.3-5,5.1-7.9,7.4c-4.9,4-8.4,9.5-12.9,14
		c-5.4,5.5-12.5,9.5-17.5,15.4c-5.1,6-8.4,14.2-15.5,17.9c-4.9,2.5-10.8,2.2-16.3,2.3c-6.9,0.1-13.9,1-20.7,2.6
		c0.9-0.2,2.4-2,3.4-2.5c0.8-0.4,1.8-0.7,2.6-1.2c2.7-1.7,4.9-4.4,7.2-6.6c5-4.6,10.1-9.3,15.1-13.7
		C324,344.4,327,341.9,329.9,339.3z"/>
	<path class="st11" d="M273.5,377.3c1.7,0,4.3,0,5.7-1c0.6-0.4,1.3-0.2,1.9-0.6c0.8-0.5,1.6-1.2,2.4-1.5c1.6-0.6,3.4-0.8,4.8-1.5
		c1.9-0.9,3.7-2.1,5.6-2.5c0.2,0.2-0.1,0.5-0.3,0.6c-4,2-7.9,3.9-12,5.5c-3.7,1.6-7.4,3.7-11.4,4c-10.1,0.9-20.2-1.2-30-3.7
		c-3.3-0.9-6.5-1.8-9.4-3.6c-1.3-0.8-4.7-5-5.1-6.9c3.1,3.3,7,5.1,11.4,6c2.5,0.5,4.9,0.7,7.3,1.3c3,0.9,5.9,1.9,8.9,2.8
		c4.7,1.5,8.9,0.9,13.6,1C269.1,377.4,271.5,377.3,273.5,377.3z"/>
</g>
<g id="Layer_6">
	<path class="st3" d="M219.1,280.2c0.6-0.5,2.1,0.3,3.8,1.2c1.8,0.9,3.8,1.3,5.7,1.6c11.1,1.9,21.9,4.5,33.3,4.2
		c4.1-0.2,49.8-1.3,49.8,0.2c0.7,3.6-1,7.1-3.2,10c-4.3,5.8-10.6,10.2-17.5,12.3c-4.4,1.3-9.1,1.7-13.6,2.1
		c-7.9,0.7-15.9,1.3-23.9,0.5s-15.9-3.2-22.2-8c-5.6-4.3-7.5-9.6-9.6-16c-0.6-1.9-1.9-3.6-2.6-5.4
		C218.7,281.2,218.8,280.5,219.1,280.2z"/>
	<path class="st12" d="M219.3,280.2c3.9,6.2,5.4,14,11.2,18.7c3.8,3.1,8.7,4.1,13.4,4.8c9.8,1.6,19.8,2.5,29.7,2.4
		c11.5,0,24.2-0.7,32.7-8.4c2.8-2.5,5.1-7.2,5.3-9.8c-13.3,2.9-31.7,3.3-47.3,3.5C248.8,291.5,231.8,289.4,219.3,280.2z"/>
	<path class="st13" d="M228.7,285.4c-0.6,2-1.1,3.4,0.6,4.6c0.6,0.5,1.3,0.7,1.8,1.3c0.2,0.3,0.3,0.7,0.5,1c0.9,1.6,3.2,1.4,4.9,1.6
		c3.3,0.4,6,2.6,9.1,3.8c2.2,0.8,4.4,1.1,6.7,1.3c3.2,0.4,6.3,0.7,9.5,1.1c1.6,0.2,3.3,0.4,4.8,0.1c1.3-0.2,2.5-0.6,3.7-0.8
		c3.7-0.7,7.5,0.3,11.1-0.9c1-0.4,2-0.9,3-1.1s2-0.2,3.1-0.2c2.2-0.1,4.4-0.6,6.4-1.5c0.9-0.4,1.8-0.9,2.7-1.1
		c1.1-0.3,2.3-0.3,3.4-0.5s2.3-0.7,3-1.6s0.7-2.3-0.3-2.9c-7.7,0.4-19,1.6-27.9,1.7c-10.3,0.1-18.2-0.1-24.2-0.6
		c-3.2-0.3-8.1-1.1-12-2C234.7,287.5,231.3,286.2,228.7,285.4z"/>
</g>
<g id="Layer_3">
	<g>
		<path d="M228.2,210.4c0,0.5-0.1,1.1-0.1,1.6H228C228,211.5,228.1,210.9,228.2,210.4z"/>
	</g>
	<path d="M298.9,190.5c1.8-2.1,3.2-4.6,5.2-6.5c4.4-4.2,11.3-4.8,17.2-3.5s11.3,4.5,16.7,7.1c5.5,2.6,11.6,4.7,17.5,4
		c1.6-0.2,3.7-1.2,3.5-2.8c-0.2-1.4-1.9-2-3.2-2.5c-4.7-1.8-8-6-12.3-8.7c-5.1-3.3-11.5-4.3-17.5-4.8c-5.4-0.6-11-1-16.2,0.4
		s-10.3,4.8-12.2,9.9c-0.6,1.6-0.8,3.4-1.5,4.8c-0.8,1.8-2.3,2.5-3.2,3.9C290.1,196.4,297.2,192.5,298.9,190.5z"/>
	<path d="M219.9,180.8c-8.7-7.5-22.8-7.5-31.5-0.1c-2,1.7-3.8,3.8-6.1,4.9c-2.4,1.2-5.5,1.4-7.3-0.5s-1.4-5.1,0.2-7.2
		c1.6-2.1,4.1-3.3,6.5-4.3c8.7-3.5,18.3-5.1,27.4-2.9c4.4,1.1,8.6,3.3,12.1,6.3c2.2,2,8,7.8,6.4,11
		C224.5,186.2,222.5,183,219.9,180.8z"/>
	<path d="M311.7,182.5c-0.4,3.4,0,7.1,0.9,9.5c0.4,1.1,1,2.1,1.8,2.9c1.5,1.5,3.7,2,5.7,2.3c3.6,0.6,8.1,1.4,11.7,0.6
		c4.3-0.9,9-3.1,10.4-7.3c1.3-3.8-0.8-8.1-3.9-10.6c-3.2-2.5-7.1-3.6-11.1-4.3c-3.9-0.8-10.5-2-13.5,1.6
		C312.6,178.3,311.9,180.2,311.7,182.5z"/>
	<path d="M205,175.4c-0.2,0.2-0.3,0.4-0.5,0.7c-1.2,1.9-1.4,4.2-1.6,6.3c-0.2,2-0.4,3.9-0.3,5.8c0,0.8,0.1,1.6,0.5,2.3
		c2.1,4.3,12.3,3.8,16.1,3.5c3-0.2,6.3-0.9,7.6-3.6c0.7-1.3,0.7-2.9,0.3-4.3c-0.8-3.2-3-5.9-5.5-7.9
		C217.8,175.3,209,170.4,205,175.4z"/>
	<g>
		<g>
			<path d="M390.1,205.8c-0.2-9.8-3.7-20-10.1-30.4c-1.8-2.8-4-6-6.9-8.5c-2.6-2.2-5.6-3.6-8.5-4.8c-1.7-0.8-3.4-1.7-5.1-2.6
				c-5.7-2.9-11.7-5.9-18.1-6.5c-4.3-0.4-8.3-0.6-12.1-0.6c-6.2,0-11.8,0.6-16.4,1.7c-1.7,0.4-3.4,0.9-4.8,1.5c-2.6,1-5,2.4-7.3,3.7
				c-8.8,5-14.8,10.6-20.2,18.6c-6,9.1-8.4,19.5-9,28.9c-2.6-2.2-5.4-4.2-8.8-5.2c-7.8-2.5-16-1.3-21.6-0.2c-3,0.6-5.7,1.2-8.1,2.7
				c-0.3,0.2-0.6,0.4-0.9,0.6c-0.3-11.5-3.5-22.7-9.2-32c-8-13-21-21-38.3-23.4c-3.8-0.5-7.4-0.8-11-0.8c-5.8,0-11.3,0.7-16.5,2.2
				c-17.2,4.7-32.2,18.1-39.2,35c-6.8,16.5-6,36.2,2,52.7c5.1,10.6,13,18.7,21.8,22.9c9.9,4.7,21.4,5,31.3,5.2
				c1.4,0,2.8,0.1,4.2,0.1c4,0,7.9-0.2,11.9-1.3c6.1-1.7,11.6-5.2,16.3-8.4c6.3-4.2,13.4-8.9,18-15.7c5-7.4,6.6-16.1,7.9-25.2
				c0.2-1.6,0.4-3.1,0.5-4.6l0,0c0.4-1.4,1.5-2.9,3.1-3.8c1.9-1.2,4.2-1.7,6.9-2.2c5.1-1,12.8-2.1,19.7,0.1c3.8,1.2,7,4,9.8,6.6
				c0,2.7,0.1,5.2,0.3,7.6c0.3,3.7,0.8,8,2.5,12c1.8,4.1,4.5,7.5,7,10.6c4.9,6.1,9.6,11.5,15.4,15.7c7.7,5.6,16.9,8.5,23.9,10.5
				c5.2,1.4,11.3,2.8,17.4,2.8c2.2,0,4.3-0.2,6.4-0.5c3-0.5,5.8-1.4,8.6-2.3c10.8-3.5,20.7-12.5,27.8-25.4
				C386.9,231.2,390.4,217.4,390.1,205.8z M228.2,210.4c0,0.5-0.1,1.1-0.1,1.6c-0.1,1.1-0.2,2.1-0.4,3.2c-1.3,8.6-2.8,16.9-7.3,23.6
				c-4.3,6.2-11,10.8-17,14.7c-4.7,3.2-9.7,6.4-15.2,7.9c-4.7,1.3-10,1.2-14.9,1.1c-9.7-0.2-20.7-0.4-29.8-4.8
				c-8.1-4-15.2-11.5-20.1-21.3c-7.6-15.4-8.3-34-1.9-49.5c6.5-15.8,20.6-28.4,36.7-32.8c7.9-2.2,16.6-2.6,25.9-1.3
				c16.4,2.4,28.1,9.5,35.6,21.6C226,184.9,229.1,197.6,228.2,210.4z M351.8,264.4c-2.7,0.8-5.3,1.7-8.1,2.2
				c-7.6,1.3-15.5-0.3-22.2-2.2c-6.8-1.8-15.5-4.5-22.7-9.9c-5.4-4-9.9-9.2-14.7-15.1c-2.3-2.9-4.9-6-6.4-9.7
				c-1.5-3.5-2-7.4-2.2-10.8c-0.8-10.9,0-26.5,8.3-39c4.9-7.5,10.7-12.7,18.9-17.4c2.2-1.3,4.4-2.6,6.7-3.5c1.4-0.5,2.9-1,4.3-1.3
				c6.9-1.7,16.4-2,27.2-1c5.7,0.5,11.4,3.4,16.7,6.1c1.7,0.9,3.6,1.8,5.2,2.6c2.7,1.3,5.4,2.6,7.7,4.3c2.6,2.1,4.5,4.9,6.1,7.5
				c6.1,9.9,9.3,19.5,9.5,28.5C386.9,228.2,372.8,257.7,351.8,264.4z"/>
		</g>
		<path class="st14" d="M324.1,160.9c-1.3,0-2.7,0.1-3.8,0.8c-1.1,0.7-1.8,2.2-1.2,3.4c0.6,1.1,2.1,1.4,3.4,1.4
			c7.4,0.3,15-1.2,22.3,0.4c9.7,2.2,17.3,9.4,24.3,16.5C363.7,165.7,339.8,160.6,324.1,160.9z"/>
		<path class="st14" d="M171.8,156c-8,1.2-16.1,2.9-22.9,7.2c-5.5,3.6-9.9,8.9-12.3,15c7.6-2.8,12.7-11,20-14.6
			c6.9-3.5,14.8-4.4,22.4-4.3c2.3,0,7.5,1.9,9.5,1.1c4.1-1.7-0.6-4-2.6-4.4C181.2,154.8,176.5,155.3,171.8,156z"/>
	</g>
</g>
<g id="Layer_9">
	<path class="st2" d="M187.9,35c-8.7,3.4-17.2,7.7-23.7,14.5S153.4,65.2,149.6,74c-13.4,30.7-24.3,64.4-19.9,97.9
		c4.3-5.2,8.5-10.4,12.8-15.6c0.2,1.9,0.5,3.7,0.7,5.5c8.6-6.5,16.7-13.8,24-21.9c1.2,6.4,3.4,12.6,6.3,18.3
		c10.2-7.8,22.7-11,34.5-15.7s23.7-12.1,28.5-24.2c2.2,7.6,4.3,15.2,6.4,22.8c9.9-9.2,18.5-20,25.3-31.8
		c6.4,15.5,12.5,31.2,18.1,47.1c3.7-3.3,7.3-6.5,11-9.9c9,7.8,18,15.6,27,23.5c5.5-8.1,10.4-16.7,14.2-25.8
		c8.3,8.3,15.7,17.5,22,27.5c3.6-4.1,7-8.2,10.6-12.3c12,14.8,20.3,32.9,23.7,52c3.1-4.4,6-8.9,9.1-13.3c-0.3,7.6,1,15.2,3.9,22.2
		c5.2-3,5.6-10.6,5.3-16.7c-0.8-15.6,2.8-31.1,2.1-46.7c-0.4-8.7-5.2-17.5-5.6-26.2c-0.3-5.7-0.6-11.6-2.3-16.9
		c-2.6-8.2-8.2-14.8-13-21.8c-7.6-11.4-13.4-24.4-23.8-33.2c-5.9-5-20.8-17.2-27.9-20.3c-22.2-9.3-30-14.8-53.4-18.1
		C271,17.8,249,20,230.5,21.5C217.1,22.5,200.2,30.2,187.9,35z"/>
</g>
</svg>
