<?xml version="1.0" encoding="utf-8"?>
<!-- Generator: Adobe Illustrator 21.1.0, SVG Export Plug-In . SVG Version: 6.00 Build 0)  -->
<svg version="1.1" id="Layer_1" xmlns="http://www.w3.org/2000/svg" xmlns:xlink="http://www.w3.org/1999/xlink" x="0px" y="0px"
	 viewBox="0 0 900 262" style="enable-background:new 0 0 900 262;" xml:space="preserve">
<style type="text/css">
	.st0{fill:#A9B8B3;stroke:#A9B8B3;stroke-linecap:round;stroke-linejoin:round;stroke-miterlimit:10;}
	.st1{fill:#C8C8C8;}
	.st2{fill:url(#SVGID_1_);}
	.st3{stroke:#000000;stroke-width:0.9707;stroke-miterlimit:10;}
	.st4{fill:#D6666F;stroke:#D6666F;stroke-width:0.9895;stroke-miterlimit:10;}
	.st5{opacity:0.5;fill:#EBEAE4;stroke:#EBEAE4;stroke-width:1.0424;stroke-miterlimit:10;enable-background:new    ;}
	.st6{fill:#CCCCCC;stroke:#404040;stroke-width:0.9895;stroke-miterlimit:10;}
	.st7{fill:#2AA8C6;stroke:#FFFFFF;stroke-width:0.9895;stroke-miterlimit:10;}
	.st8{fill:#FFFFFF;stroke:#ED2F65;stroke-width:0.9895;stroke-miterlimit:10;}
	.st9{fill:#FFFFFF;stroke:#FFFFFF;stroke-width:1.0424;stroke-miterlimit:10;}
	.st10{fill:#83D2E5;stroke:#83D2E5;stroke-width:1.0424;stroke-miterlimit:10;}
	.st11{fill:#565656;stroke:#565656;stroke-width:0.8869;stroke-miterlimit:10;}
	.st12{fill:#A9B8B3;stroke:#A9B8B3;stroke-width:0.9219;stroke-miterlimit:10;}
	.st13{fill:#E1E1E1;}
	.st14{fill:#DDE5E1;stroke:#007978;stroke-width:0.9895;stroke-miterlimit:10;}
	.st15{fill:#007978;stroke:#007978;stroke-width:0.9891;stroke-miterlimit:10;}
	.st16{fill:none;stroke:#565656;stroke-width:1.0424;stroke-linecap:round;stroke-linejoin:round;stroke-miterlimit:10;}
	.st17{fill:#235075;}
	.st18{fill:#232648;}
	.st19{fill:#7D7D7D;}
	.st20{fill:#D62E31;}
	.st21{fill:#DDB945;}
	.st22{fill:#29A958;}
	.st23{opacity:0.3;}
	.st24{fill:#FFFFFF;}
	.st25{fill:#C8C8C8;stroke:#C8C8C8;stroke-width:0.9219;stroke-miterlimit:10;}
	.st26{fill:#4D4240;stroke:#4D4240;stroke-width:1.167;stroke-linecap:round;stroke-linejoin:round;stroke-miterlimit:10;}
	.st27{fill:#D6666F;stroke:#D6666F;stroke-miterlimit:10;}
	.st28{fill:#FFDED8;stroke:#000000;stroke-width:1.3292;stroke-miterlimit:10;}
	.st29{fill:#99D3F6;stroke:#000000;stroke-width:1.3292;stroke-miterlimit:10;}
	.st30{fill:none;stroke:#000000;stroke-width:1.3292;stroke-miterlimit:10;}
	.st31{fill:#FFAC9E;stroke:#000000;stroke-width:1.3292;stroke-miterlimit:10;}
	.st32{fill:#065939;stroke:#000000;stroke-width:1.3292;stroke-linecap:round;stroke-linejoin:round;stroke-miterlimit:10;}
	.st33{fill:none;stroke:#000000;stroke-width:0.6646;stroke-linecap:round;stroke-linejoin:round;stroke-miterlimit:10;}
	.st34{stroke:#000000;stroke-width:1.3292;stroke-linecap:round;stroke-linejoin:round;stroke-miterlimit:10;}
	
		.st35{opacity:0.3;fill:#FFFFFF;stroke:#FFFFFF;stroke-width:1.3028;stroke-linecap:round;stroke-miterlimit:10;enable-background:new    ;}
	.st36{fill:#4D4240;stroke:#4D4240;stroke-width:1.3072;stroke-miterlimit:10;}
</style>
<rect x="0.3" class="st0" width="899.5" height="261.6"/>
<g>
	<path class="st1" d="M255,242.4h-74.8l3.4-10c3.8-11.1,5.9-22.7,6.3-34.4l0.2-6.5H245l0.2,7.7c0.3,10.9,2.3,21.6,5.8,31.8
		L255,242.4z"/>
	
		<linearGradient id="SVGID_1_" gradientUnits="userSpaceOnUse" x1="217.5831" y1="196.5449" x2="217.5831" y2="145.7456" gradientTransform="matrix(1 0 0 1 0 46)">
		<stop  offset="0" style="stop-color:#434041;stop-opacity:0.2"/>
		<stop  offset="1" style="stop-color:#000000"/>
	</linearGradient>
	<path class="st2" d="M255,242.5h-74.8l3.4-10c3.8-11.1,5.9-22.7,6.3-34.4l0.2-6.5H245l0.2,7.7c0.3,10.9,2.3,21.6,5.8,31.8
		L255,242.5z"/>
	<g>
		<path class="st3" d="M357.9,22.1v167.2H77.3V22.1c0-6.9,5.6-12.5,12.5-12.5h255.6C352.3,9.7,357.9,15.3,357.9,22.1z"/>
		<rect x="98.2" y="28.5" class="st4" width="238.8" height="147.1"/>
		<g>
			<path class="st5" d="M336.8,31.2v142h-6.5c-10.6,0-10.6-3.7-10.6-8.3V39.4c0-4.5,1.4-8.3,10.6-8.3L336.8,31.2L336.8,31.2z"/>
			<ellipse class="st6" cx="328.2" cy="64" rx="5.9" ry="6.4"/>
			<ellipse class="st7" cx="328.2" cy="81.9" rx="5.9" ry="6.4"/>
			<ellipse class="st8" cx="328.2" cy="100.2" rx="5.9" ry="6.4"/>
			<rect x="328.5" y="39.4" class="st9" width="5.7" height="12.4"/>
			<rect x="322.5" y="39.4" class="st10" width="6" height="12.4"/>
		</g>
		<rect x="98.1" y="28.4" class="st11" width="221" height="12.4"/>
		<rect x="98.1" y="40.5" class="st12" width="221" height="134.7"/>
		<path class="st13" d="M286.2,38.5H119.3c-0.7,0-1.3-0.6-1.3-1.3v-5.7c0-0.7,0.6-1.3,1.3-1.3h166.9c0.7,0,1.3,0.6,1.3,1.3v5.7
			C287.5,38,287,38.5,286.2,38.5z"/>
		<rect x="121.4" y="48.7" class="st14" width="178.9" height="69.1"/>
		<g>
			<g>
				<rect x="98.1" y="40.4" class="st15" width="220.8" height="87.6"/>
				<ellipse class="st15" cx="208.7" cy="127.6" rx="4.7" ry="4.7"/>
			</g>
			<polyline class="st16" points="205,127.8 208.8,130.8 212.5,127.9 			"/>
		</g>
		<g>
			<rect x="109.8" y="49.8" class="st17" width="90.1" height="116"/>
			<path class="st17" d="M199.4,50.3v115h-89.1v-115H199.4 M200.4,49.3h-91.2v117.1h91.2V49.3L200.4,49.3z"/>
		</g>
		<g>
			<polygon class="st18" points="110.8,164.6 110.8,50.9 131,50.9 131,56.2 198.5,56.2 198.5,164.6 			"/>
			<path class="st18" d="M130.4,51.4v4.3v1h1H198v107.3h-86.8V51.4H130.4 M131.5,50.3h-21.2v114.8h88.8V55.8h-67.6V50.3L131.5,50.3z
				"/>
		</g>
		<g>
			<rect x="132" y="58.8" class="st17" width="63.2" height="103.1"/>
			<g>
				<path class="st17" d="M194.7,59.4v102.1h-62.2V59.4H194.7 M195.8,58.3h-64.3v104.2h64.3V58.3L195.8,58.3z"/>
			</g>
		</g>
		<g>
			<rect x="109.6" y="46.9" class="st19" width="90.1" height="1.8"/>
			<path class="st19" d="M199.1,47.4v0.7H110v-0.7H199.1 M200.2,46.4h-91.1v2.8h91.1V46.4L200.2,46.4z"/>
		</g>
		<g>
			<circle class="st20" cx="111.9" cy="47.7" r="0.6"/>
			<path class="st20" d="M111.9,47.6C112,47.6,112,47.6,111.9,47.6C112,47.7,111.9,47.7,111.9,47.6
				C111.9,47.7,111.9,47.7,111.9,47.6L111.9,47.6 M111.9,46.6c-0.6,0-1.1,0.5-1.1,1.1s0.5,1.1,1.1,1.1c0.6,0,1.1-0.5,1.1-1.1
				S112.5,46.6,111.9,46.6L111.9,46.6z"/>
		</g>
		<g>
			<circle class="st21" cx="114.7" cy="47.7" r="0.6"/>
			<path class="st21" d="M114.7,47.6C114.8,47.6,114.8,47.6,114.7,47.6C114.8,47.7,114.7,47.7,114.7,47.6
				C114.7,47.7,114.7,47.7,114.7,47.6L114.7,47.6 M114.7,46.6c-0.6,0-1.1,0.5-1.1,1.1s0.5,1.1,1.1,1.1c0.6,0,1.1-0.5,1.1-1.1
				S115.4,46.6,114.7,46.6L114.7,46.6z"/>
		</g>
		<g>
			<circle class="st22" cx="117.7" cy="47.7" r="0.6"/>
			<path class="st22" d="M117.7,47.6L117.7,47.6C117.8,47.7,117.7,47.7,117.7,47.6C117.7,47.7,117.6,47.7,117.7,47.6
				C117.6,47.6,117.6,47.6,117.7,47.6 M117.7,46.6c-0.6,0-1.1,0.5-1.1,1.1s0.5,1.1,1.1,1.1c0.6,0,1.1-0.5,1.1-1.1
				S118.2,46.6,117.7,46.6L117.7,46.6z"/>
		</g>
		<g class="st23">
			<path class="st24" d="M77.3,21.2c-0.1-2.6,1.2-5.4,3.4-7.7c2.3-2.4,5.3-3.8,8-3.8h100.5l-112,115.2L77.3,21.2L77.3,21.2z"/>
			<path class="st24" d="M188.1,10.2L77.8,123.7V21.1c-0.1-2.4,1.2-5.2,3.3-7.4c2.2-2.3,5.1-3.6,7.7-3.6L188.1,10.2 M190.5,9.2H88.8
				c-6.2,0-12.2,6.3-12,12v105L190.5,9.2L190.5,9.2z"/>
		</g>
		<path class="st25" d="M357.9,189.4v12.6c0,6.9-5.6,12.5-12.5,12.5H89.8c-6.9,0-12.5-5.6-12.5-12.5v-12.6H357.9z"/>
	</g>
</g>
<g>
	<rect x="613.4" y="-0.4" class="st26" width="215.2" height="138.6"/>
	<rect x="632.9" y="-0.4" class="st27" width="176.3" height="119"/>
	<g>
		<path class="st28" d="M791.2,9c-0.1,2.4-0.2,4.9-0.5,7.3c-0.2,1.8-0.4,3.5-0.6,5.3c-0.3,2.5-0.8,4.9-1.3,7.4l0,0
			c-0.4,2.1-1,4.1-1.5,6.2c-0.6,2.2-1.4,4.4-2.2,6.6c-0.8,2.2-1.7,4.4-2.8,6.6c-1,2-2,4.1-3.2,6.1c-1.1,2-2.4,4-3.7,5.9
			c-1.5,2.2-3.2,4.4-5.1,6.5c-1.2,1.4-2.5,2.8-3.8,4.1c-1.8,1.8-3.6,3.4-5.4,5c-1.4,1.2-2.8,2.4-4.2,3.5c-1.7,1.4-3.5,2.7-5.3,3.9
			c-1.4,1-2.8,1.9-4.2,2.8c-1.5,0.9-3,1.8-4.5,2.7c-1.8,1-3.5,2-5.3,2.9c-2,1-4.1,2-6.2,2.9c-2.2,1-4.3,1.8-6.4,2.7
			c-1.9,0.8-3.9,1.5-5.8,2.1c-3.9,1.3-7.9,2.5-11.7,3.5c-1.9,0.5-3.8,0.9-5.6,1.3c-1.9,0.4-3.7,0.8-5.5,1.1
			c-1.9,0.4-3.8,0.7-5.6,0.9c-2,0.3-3.9,0.6-5.7,0.8c-2.1,0.2-4.1,0.5-6,0.6c-1.8,0.2-3.5,0.3-5.1,0.4c-2.2,0.1-4.2,0.2-5.9,0.2
			c-2,0-3.7,0-5.1,0c-2.6,0-4-0.1-4-0.1s-0.9-2.5-2.2-6.9c0.6,1.8,1,2.8,1,2.8s1.5,0.1,4.3,0.1c1.4,0,3,0,5,0c0.2,0,0.4,0,0.6,0
			c0.4,0,0.9,0,1.3,0c0.4,0,0.9,0,1.4-0.1c0.4,0,0.9,0,1.4-0.1c0.4,0,0.8,0,1.1-0.1c1.2-0.1,2.4-0.2,3.7-0.3c0.4,0,0.7-0.1,1.1-0.1
			c0.4,0,0.8-0.1,1.2-0.1s0.8-0.1,1.1-0.1c0.9-0.1,1.8-0.2,2.7-0.3c0.2,0,0.4,0,0.6-0.1h0.1c1-0.1,2.1-0.3,3.2-0.4
			c0.4-0.1,0.9-0.1,1.3-0.2c0.3,0,0.6-0.1,0.9-0.1c1.7-0.3,3.4-0.6,5.1-0.9c0.1,0,0.2,0,0.3-0.1c0.1,0,0.2,0,0.2,0
			c0.5-0.1,0.9-0.2,1.4-0.3c1.2-0.2,2.3-0.5,3.5-0.8c1.8-0.4,3.5-0.8,5.3-1.3c2.1-0.5,4.2-1.2,6.4-1.8c1.7-0.5,3.4-1.1,5.1-1.7
			c0.1,0,0.3-0.1,0.4-0.1c0.6-0.2,1.2-0.4,1.8-0.7c1.2-0.4,2.4-0.9,3.5-1.4h0.1c0.6-0.2,1.2-0.5,1.8-0.7s1.2-0.5,1.8-0.8
			s1.2-0.5,1.8-0.8c1.2-0.5,2.4-1.1,3.6-1.7c0.6-0.3,1.2-0.6,1.9-0.9c0.5-0.3,1-0.5,1.5-0.8c0.8-0.4,1.5-0.8,2.3-1.2
			c0.5-0.3,1.1-0.6,1.6-0.9c0.4-0.2,0.8-0.5,1.2-0.7c0.3-0.2,0.6-0.4,0.9-0.5c2.2-1.3,4.5-2.8,6.7-4.3c0.1,0,0.2-0.1,0.3-0.2
			c0.5-0.4,1.1-0.8,1.6-1.2c0.6-0.4,1.2-0.8,1.7-1.3c0.4-0.3,0.8-0.6,1.2-0.9s0.9-0.7,1.3-1s0.9-0.7,1.3-1.1
			c0.4-0.4,0.9-0.7,1.3-1.1c0.3-0.2,0.6-0.5,0.9-0.8c0.1-0.1,0.3-0.2,0.4-0.4c1.3-1.1,2.5-2.2,3.7-3.4c0.5-0.5,1-1,1.5-1.5
			c1.3-1.3,2.5-2.6,3.7-4c0.8-0.9,1.5-1.8,2.2-2.7c0.3-0.4,0.7-0.9,1-1.3c0.6-0.7,1.1-1.5,1.6-2.2c1.2-1.7,2.3-3.3,3.3-5
			s2-3.4,2.9-5.1c1-1.9,1.9-3.9,2.7-5.9c0.8-1.9,1.5-3.9,2.2-5.8c0-0.1,0.1-0.2,0.1-0.3c0.2-0.5,0.3-0.9,0.5-1.4
			c0.3-1,0.6-2,0.9-2.9c0.1-0.4,0.2-0.9,0.4-1.3l0,0l0,0c0.4-1.6,0.8-3.2,1.1-4.8c0.2-0.7,0.3-1.4,0.4-2.1c0-0.2,0.1-0.3,0.1-0.5
			s0.1-0.4,0.1-0.6c0.1-0.7,0.2-1.3,0.3-2v-0.1c0.1-0.7,0.2-1.4,0.3-2c0-0.2,0.1-0.4,0.1-0.7c0.2-1.5,0.4-3,0.5-4.5
			c0-0.1,0-0.1,0-0.2c0.1-0.8,0.1-1.7,0.2-2.5V8.9c0-0.1,0-0.2,0-0.2c0-0.7,0.1-1.4,0.1-2.1c0-0.6,0-1.2,0.1-1.7V4.8
			c0-0.3,0-0.7,0-1c0-0.9,0-1.7,0-2.6c0-0.5,0-1,0-1.5h4c0,0.5,0,1,0,1.5C791.4,3.8,791.3,6.4,791.2,9z"/>
		<path class="st29" d="M756.2-0.3h-11.5h-4.9c-0.2,0-0.2,0-0.3,0h-22h-4h-9.8h-2.6h-10h-10.3h-1.9h-2.6h-2.2h-13.5
			c-24.5,36.3-8.4,88.8-3.8,101.6v0.1c0.6,1.8,1,2.8,1,2.8s1.5,0.1,4.3,0.1c1.4,0,3,0,5,0c0.2,0,0.4,0,0.6,0c0.4,0,0.9,0,1.3,0
			c0.4,0,0.9,0,1.4-0.1c0.4,0,0.9,0,1.4-0.1c0.4,0,0.8,0,1.1-0.1c1.2-0.1,2.4-0.2,3.7-0.3c0.4,0,0.7-0.1,1.1-0.1l0,0
			c0.4,0,0.8-0.1,1.2-0.1s0.8-0.1,1.1-0.1c0.9-0.1,1.8-0.2,2.7-0.3c0.2,0,0.4,0,0.6-0.1h0.1c1-0.1,2.1-0.3,3.2-0.4
			c0.4-0.1,0.9-0.1,1.3-0.2c0.3,0,0.6-0.1,0.9-0.1c1.7-0.3,3.4-0.6,5.1-0.9l0,0c0.1,0,0.2,0,0.3,0s0.2,0,0.2-0.1
			c0.5-0.1,0.9-0.2,1.4-0.3c1.1-0.2,2.3-0.5,3.5-0.8c1.8-0.4,3.5-0.8,5.3-1.3c2.1-0.6,4.2-1.2,6.4-1.8c1.7-0.5,3.4-1.1,5.1-1.7
			c0.1,0,0.3-0.1,0.4-0.1c0.6-0.2,1.2-0.4,1.8-0.7c1.2-0.4,2.4-0.9,3.5-1.4c0,0,0,0,0.1,0c0.6-0.2,1.2-0.5,1.8-0.7s1.2-0.5,1.8-0.8
			s1.2-0.5,1.8-0.8c0.1-0.1,0.3-0.1,0.4-0.2c1-0.5,2.1-1,3.1-1.5c0.6-0.3,1.2-0.6,1.9-0.9c0.5-0.2,1-0.5,1.5-0.8l0,0
			c0.8-0.4,1.5-0.8,2.3-1.2c0.5-0.3,1.1-0.6,1.6-0.9c0.4-0.2,0.8-0.5,1.2-0.7c0.3-0.2,0.6-0.4,0.9-0.6c1.1-0.7,2.2-1.4,3.3-2.1
			c0,0,0,0,0.1,0c1.1-0.7,2.2-1.4,3.3-2.2c0.1-0.1,0.2-0.1,0.3-0.2c0.2-0.2,0.5-0.3,0.8-0.5s0.6-0.4,0.8-0.6
			c0.6-0.4,1.2-0.8,1.7-1.3c0.4-0.3,0.8-0.6,1.2-0.9s0.9-0.7,1.3-1s0.9-0.7,1.3-1.1c0.4-0.4,0.9-0.7,1.3-1.1
			c0.3-0.2,0.6-0.5,0.9-0.8c0.1-0.1,0.1-0.1,0.2-0.2c0.1-0.1,0.1-0.1,0.2-0.2c1.3-1.1,2.5-2.2,3.7-3.4c0.5-0.5,1-1,1.5-1.5
			c1.3-1.3,2.5-2.6,3.7-4c0.8-0.9,1.5-1.8,2.2-2.7c0.4-0.4,0.7-0.9,1-1.3c0.6-0.7,1.1-1.5,1.7-2.2c1.2-1.7,2.3-3.3,3.3-5
			s2-3.4,2.9-5.1c1-1.9,1.9-3.9,2.7-5.9c0.8-1.9,1.5-3.9,2.2-5.8c0-0.1,0.1-0.2,0.1-0.3c0.2-0.5,0.3-0.9,0.5-1.4
			c0.3-1,0.6-2,0.9-2.9c0.1-0.4,0.2-0.9,0.4-1.3l0,0l0,0c0.4-1.6,0.8-3.2,1.1-4.8c0.2-0.7,0.3-1.4,0.4-2.1c0-0.2,0.1-0.3,0.1-0.5
			s0.1-0.4,0.1-0.6c0.1-0.7,0.2-1.3,0.3-2V19c0.1-0.7,0.2-1.4,0.3-2c0-0.2,0.1-0.4,0.1-0.7c0.2-1.5,0.3-3.1,0.5-4.6
			c0-0.1,0-0.2,0-0.2c0.1-0.8,0.1-1.6,0.2-2.5l0,0c0-0.1,0-0.2,0-0.2c0-0.7,0.1-1.4,0.1-2.1c0-0.6,0-1.2,0.1-1.7V4.8
			c0-0.3,0-0.7,0-1c0-0.9,0-1.7,0-2.5c0-0.5,0-1,0-1.5h-11.8h-7.1h-11"/>
		<line class="st30" x1="662.1" y1="104.4" x2="662.9" y2="108.5"/>
		<line class="st30" x1="667.1" y1="104.3" x2="668" y2="108.5"/>
		<line class="st30" x1="672.9" y1="104" x2="674" y2="108.5"/>
		<line class="st30" x1="677.7" y1="103.7" x2="679.1" y2="107.8"/>
		<line class="st30" x1="683.3" y1="103" x2="685.1" y2="107.2"/>
		<line class="st30" x1="688.7" y1="102.3" x2="690.8" y2="106.4"/>
		<line class="st30" x1="693.9" y1="101.4" x2="696.3" y2="105.5"/>
		<line class="st30" x1="699.3" y1="100.2" x2="701.9" y2="104.4"/>
		<line class="st30" x1="704.6" y1="98.9" x2="707.5" y2="103"/>
		<line class="st30" x1="711" y1="97.1" x2="713.6" y2="101.4"/>
		<line class="st30" x1="716.1" y1="95.4" x2="719.2" y2="99.6"/>
		<line class="st30" x1="721.9" y1="93.2" x2="725" y2="97.5"/>
		<line class="st30" x1="727.8" y1="90.7" x2="731.4" y2="94.8"/>
		<line class="st30" x1="734.3" y1="87.5" x2="737.6" y2="91.9"/>
		<line class="st30" x1="739.4" y1="84.7" x2="742.9" y2="89"/>
		<line class="st30" x1="743.8" y1="82" x2="747.4" y2="86.3"/>
		<line class="st30" x1="751.6" y1="83.5" x2="748" y2="79.1"/>
		<line class="st30" x1="753.1" y1="75.3" x2="756.9" y2="79.6"/>
		<line class="st30" x1="756.9" y1="72.2" x2="761.1" y2="76.2"/>
		<line class="st30" x1="762.4" y1="67" x2="766.5" y2="71.1"/>
		<line class="st30" x1="766.1" y1="63" x2="770.3" y2="67"/>
		<line class="st30" x1="771" y1="56.9" x2="775.4" y2="60.5"/>
		<line class="st30" x1="774.3" y1="51.9" x2="779.1" y2="54.6"/>
		<line class="st30" x1="777.2" y1="46.7" x2="782.3" y2="48.5"/>
		<line class="st30" x1="779.9" y1="40.9" x2="785.1" y2="41.9"/>
		<line class="st30" x1="782.1" y1="35.1" x2="787.2" y2="35.3"/>
		<line class="st30" x1="783.9" y1="29.1" x2="788.8" y2="29.1"/>
		<line class="st30" x1="790.1" y1="21.6" x2="785.5" y2="21.7"/>
		<line class="st30" x1="786.3" y1="16.3" x2="790.8" y2="16.3"/>
		<line class="st30" x1="787" y1="9" x2="791.3" y2="9"/>
		<line class="st30" x1="787" y1="1.2" x2="791.3" y2="1.2"/>
		<path class="st31" d="M755.7,27.5c-3.1,4-7.3,6.3-11.9,7l0,0c-4.5,0.7-9.5-0.1-14-2.3c-1.2-0.6-2.5-1.3-3.7-2.1
			c-1-0.7-2-1.5-2.9-2.4c-1.2,2-2.7,3.8-4.5,5.5c-3.3,3.1-7.5,5.5-12.1,7l0,0c-1,0.3-2.1,0.6-3.2,0.8c-13.5,2.7-23.6-2.7-25.9-14.3
			c-1.2-5.8,0.9-12.7,5.1-18.5c0,0,0,0,0-0.1c1.7-3.1,4.6-6,8.5-8.4h48.4c0.1,0,0.1,0,0.1,0s0,0,0.2,0h4.8c1.3,1,2.4,2.1,3.4,3.3
			C756.6,9.9,761.8,19.6,755.7,27.5z"/>
		<path d="M691.5,93.2L691.5,93.2z"/>
		<path class="st32" d="M724,33.1c0,0,5.1,6.2,15.4,5.5c0,0,13,22.8-9.8,39.6c-22.8,16.9-39,18.1-57.8,9.4
			c-18.9-8.7-7.6-39.8,10.7-30.3c0,0,12.6,8.3,2.6,15.5c-1.4,1.1-8.5,2-8.5-5.1c0,0,3.6,3.7,5.9,2.1c2.3-1.7,2.9-7.8-4.1-8.1
			s-8.8,4.1-6.6,11.1c1.8,5.5,9.2,12.4,22.1,9.4c12.9-3,12.2-17.4,12.2-17.4s-0.2-9.6-0.5-12.9c-0.3-3.3-0.9-9,9.2-12.4
			C714.7,39.5,724.7,36.7,724,33.1z"/>
		<g>
			<path d="M668,32.1l-6.1-3.1v1.5l3.2,1.5l-3.8,1.6l3.8,1.7l-3.3,1.4v1.5l6.2-2.9l-3.7-1.6L668,32.1z"/>
			<path d="M668.4,25.4c0-0.3-0.1-0.5-0.2-0.7s-0.2-0.5-0.4-0.7s-0.4-0.4-0.7-0.7l-0.8,1c0.4,0.3,0.6,0.6,0.7,0.8
				c0.1,0.2,0.2,0.5,0.1,0.8c-0.1,0.4-0.2,0.7-0.6,1c-0.3,0.2-0.7,0.3-1.2,0.3l0.6-4l-0.3-0.1c-0.9-0.1-1.7,0-2.3,0.4s-1,1-1.1,1.8
				s0,1.5,0.5,2.1s1.2,0.9,2,1.1c0.9,0.1,1.7,0,2.3-0.4s1-1.1,1.1-1.9C668.4,26,668.4,25.7,668.4,25.4z M664.4,27
				c-0.2-0.1-0.3-0.2-0.4-0.2c-0.1-0.1-0.2-0.2-0.3-0.3c-0.1-0.1-0.1-0.3-0.2-0.4c0-0.2,0-0.3,0-0.5c0.1-0.7,0.5-1.1,1.2-1.2
				L664.4,27z"/>
			<path d="M660.8,17.9l-0.7,1l3,2.2l0.6-0.8L660.8,17.9z"/>
			<path d="M667.5,16.8c-1-0.4-1.4-0.9-1.2-1.5c0.1-0.2,0.2-0.4,0.5-0.6l-0.9-1c-0.3,0.3-0.6,0.6-0.7,0.9c-0.1,0.2-0.1,0.5-0.1,0.7
				s0.1,0.5,0.3,0.8l-0.5-0.2l-0.4,1.2l5.4,1.9l0.4-1.2L667.5,16.8z"/>
			<path d="M672.7,11.2c0-0.3-0.1-0.5-0.2-0.8c-0.1-0.3-0.3-0.5-0.4-0.8l-1,0.7c0.3,0.4,0.4,0.8,0.5,1c0.1,0.3,0,0.5-0.1,0.8
				c-0.2,0.4-0.5,0.6-0.8,0.8c-0.4,0.1-0.8,0.1-1.2-0.1l1.7-3.7L670.9,9c-0.8-0.4-1.6-0.5-2.3-0.3s-1.2,0.7-1.6,1.5
				c-0.4,0.8-0.4,1.5-0.1,2.2c0.3,0.7,0.8,1.2,1.7,1.6c0.8,0.4,1.6,0.5,2.3,0.2c0.7-0.2,1.2-0.7,1.6-1.5c0.1-0.3,0.2-0.5,0.3-0.8
				C672.8,11.7,672.8,11.5,672.7,11.2z M668.5,12.4c-0.1-0.1-0.2-0.2-0.3-0.4c-0.1-0.1-0.1-0.3-0.2-0.4c0-0.1,0-0.3,0-0.4
				c0-0.2,0.1-0.3,0.1-0.4c0.3-0.6,0.8-0.9,1.5-0.8L668.5,12.4z"/>
			<path d="M679.2,2l-2.9-2.3l-2.4-0.2l0.2,0.2l0.3,0.2c-0.8,0.1-1.3,0.4-1.7,0.9c-0.5,0.6-0.6,1.3-0.5,2c0.1,0.8,0.5,1.4,1.2,1.9
				s1.4,0.8,2.2,0.7c0.8-0.1,1.4-0.4,1.9-1c0.4-0.5,0.5-1.1,0.5-1.8l0.5,0.4L679.2,2z M676.7,3.6c-0.3,0.4-0.6,0.5-1.1,0.6
				c-0.5,0-0.9-0.1-1.3-0.5c-0.4-0.3-0.6-0.7-0.7-1.2c-0.1-0.4,0-0.8,0.3-1.2s0.7-0.6,1.1-0.6c0.5,0,0.9,0.1,1.3,0.4
				c0.4,0.3,0.7,0.7,0.8,1.2C677.1,2.8,677,3.2,676.7,3.6z"/>
			<path d="M680.8-0.3h-1.9l1.3,1.3l0.9-1L680.8-0.3z"/>
		</g>
		<path class="st33" d="M743.8,34.5L743.8,34.5c0.4-0.2,10.5-5.5,11.2-12.8c0.8-7.5-3.4-11-3.4-11c-4.9-5.4-10.5-9.9-11.8-11"/>
		<path class="st33" d="M750,14.2c0,0,0,2,0.7,2.8s2.3,2.4,2.2,3.3s-0.5,3.1-2.9,1.4c0,0-0.6-1.2-0.7-3.4s-1.9-7.2-2.5-7.4
			s-2.9-0.8-2.7,1.4s0.1,5.3,1.8,7.6s4,3.5,3.5,4.9s-2.5,2.3-3.5,0c-1.1-2.3-5.1-7.9-2.8-15.3c0,0,0.5-1.1-1-2.1s-3.7,6.7-3.7,6.7
			s-0.8,6.4,2.7,9.8s5,3.6,3.1,6.4s-7,1.2-10.6-3.4c0,0-1.7-1.1-2.2-0.5s-2.3-2.1,0-2.7s2.2-2.4,0.6-2.5s-2.3-0.3-3.4,1.4
			c-1.1,1.7-3.8,1.1-4.2-1s1.2-3.3,3.2-2.2c0,0,4.2,0.7,2-2.5c0,0-1.2-1.3-3.1-1.1c-1.4,0.1-4.8-0.9-6.5,4.2c0,0-2,3.2,6.9,7.7
			c0,0,6.1,3,9.4,4.1"/>
		<path class="st34" d="M743.8,6.9c-1-0.4-1.3-0.1-1.6,0.5c-0.2,0.4-0.4,1-0.8,1.6c-1,1.4-1.2,3-0.2,4.2c0.8,1-1.3,1.8-2.8,1.4
			c-0.3-0.1-0.6-0.2-0.8-0.4c-1.3-1.1-2.5,0-3.3,0.9s1.4,3.1,3.3,3.3c0.5,0.1,0.8,0.3,1.1,0.6c0.5,0.6,0.8,1.7,0.9,2.6
			c0,0.5,0,1.1-0.1,1.4c-0.3,1.3,0,3.8,0,3.8s-1.7-2.2-1.9-3.5s-0.9-2.9-3.3-4.2c-2.3-1.3-2.1-3.1-2.9-5.1c-0.8-2-1.9-1.3-3.6-0.8
			s-2.9,0.6-4.4,0s-3.4,4.6-3.4,4.6v-2.4c-1.5-0.2-2.3,3.8-2.3,3.8c-1.1-2-0.2-3.5,1.4-4.9c1.6-1.3,0.6-4,0-5.2s-3.1-1.4-4,0
			s-5.8-0.5-6.2-1.8c-0.4-1.2-2.5-0.2-2.8,0c0.3-0.3,2.3-1.8,3.5-2c1.1-0.2,3.2-3.6,3.8-5.4h26h0.2c0.5,0.6,1.6,2.2,1.5,3.5
			C741.1,4.7,745.5,7.6,743.8,6.9z"/>
		<path class="st32" d="M739.3,10l-3.3,3.2c0,0-4.2-4.2-9.2-0.9c0,0,0.8-7.1-4.1-6.2c0,0-0.6-5.3-6.5-4c0,0,0.5-0.9,1.3-2.4h22
			C739.1,7.5,739.2,9.6,739.3,10z"/>
		<path class="st32" d="M739.3,10l0.2-0.2C739.4,9.9,739.3,10.3,739.3,10z"/>
		<path class="st32" d="M756.2-0.3c-4,6.3,9,14.1,17,4.6c1.1-1.3,1.9-2.9,2.3-4.6h-7.4c-0.3,2.1-1.6,2.8-1.6,2.8
			c-6.9,4.5-8.9-0.6-9.4-2.8"/>
		<path class="st33" d="M696.6,5l-5,2.9c0,0-1.7,1.1-2.6-0.6s1.9-2.3,1.9-2.3s5.8-1.8,5-3.8s-6.5,1.6-6.5,1.6s-4.7,4-5.1,5.5
			c-0.4,1.6-0.6,3.2,2.3,3.3c2.9,0.1,9.6-1.5,11.8-3.6s3.1-2.5,3.6-3.9s1.5-3.2,2.7-2.4s1.3,3.7,0,5.1c-1.3,1.3-4.7,4.7-9.4,6.4
			s-8,2.4-12,2.1c0,0-1.5-0.7-1.7-1.3s-2.2-0.2-2.3,0.8c-0.2,1.1,0.1,2.9,1.3,3.3s1.2-1.5,1.6-1.1c0.3,0.4,1.5,0.9,1.8,1.5
			s2,2.6,3.9,1.1c0,0-0.3-2.7,1-2.1s1.1,2.6,1.9,2.1c0.8-0.5,1.4-2.5,1.6-3.2c0.2-0.7,2.4-0.9,3.5,0c1.2,0.9,2.5-0.2,3-1.5
			s1.2-2.5,3.2-1.7s3.7,0.5,4-1.3c0.3-1.7,1.5-4,3.1-1.6s-2.1,6.2-5,6s-4,1.2-3.6,2.4c0.4,1.2-0.1,3.5-2.4,2.9
			c-2.2-0.5-2.9-3.8-4.9-1.4s2.9,4.5,2.9,4.5s2.6,2.7,0.6,4.4c-2,1.6-4.9-2.7-4.9-2.7s-0.6-5-2.7-4.3c-2.1,0.7-1.3,2.9-0.7,5.2
			c0.7,2.2-2.6,0.9-2.6,0s-2.3-7-3.4-6.5c-1.1,0.5-1.2,1.8-0.1,4.1s-1.2,3.8-1.6,3c-0.3-0.8-2.4-3.2-1.8-4.1c0.6-0.8-0.3-4.3-1-4.2"
			/>
		<path class="st33" d="M678,28.4c0,0,1.9,3.4,4.8,2.4s6.6-1.2,8.1,0.4s9,3.5,11.8-0.3s1.4-7.8,1.9-9.3s0.5-4.1,3.6-4.7
			c3.1-0.5,4.1-1.9,3.9-2.6s2.2-2,2.7,0.7s-1.4,3.5-2.7,3.5c-1.2,0-4.8,0.5-4.8,3.6s2.2,5.2,0.2,8.1s-5,5.2-9.5,5.4
			s-7.9,0.7-8.7-0.5s-4.1-3.1-5.6-1.9c-1.6,1.1,3.7,4.4,5.2,4.5s8.1,1.4,13-0.7s9.2-3.4,10.1-5.6s2.3-6.7,0.8-8.4s-0.7-2.8,0.7-2.9
			s5.1,1,3.8,7.6s-10.7,12.5-10.7,12.5"/>
	</g>
	<polygon class="st35" points="756.9,-0.4 632.9,109.8 632.9,-0.4 	"/>
</g>
<rect x="38.8" y="243" class="st36" width="357.1" height="19"/>
</svg>
