<?xml version="1.0" encoding="utf-8"?>
<!-- Generator: Adobe Illustrator 21.1.0, SVG Export Plug-In . SVG Version: 6.00 Build 0)  -->
<svg version="1.1" id="Layer_1" xmlns="http://www.w3.org/2000/svg" xmlns:xlink="http://www.w3.org/1999/xlink" x="0px" y="0px"
	 viewBox="0 0 900 262" style="enable-background:new 0 0 900 262;" xml:space="preserve">
<style type="text/css">
	.st0{fill:#DDE5E1;stroke:#DDE5E1;stroke-linecap:round;stroke-linejoin:round;stroke-miterlimit:10;}
	.st1{fill:#4D4240;stroke:#4D4240;stroke-width:1.167;stroke-linecap:round;stroke-linejoin:round;stroke-miterlimit:10;}
	.st2{fill:#7B8689;stroke:#7B8689;stroke-miterlimit:10;}
	.st3{fill:#ED849A;}
	.st4{fill:#D9C3FF;}
	.st5{fill:#5D5E87;}
	.st6{fill:#030303;}
	.st7{fill:#B80014;}
	.st8{fill:#0C3E14;}
	.st9{fill:#B80114;}
	
		.st10{opacity:0.3;fill:#FFFFFF;stroke:#FFFFFF;stroke-width:1.3028;stroke-linecap:round;stroke-miterlimit:10;enable-background:new    ;}
	.st11{fill:#C8C8C8;}
	.st12{fill:url(#SVGID_1_);}
	.st13{stroke:#000000;stroke-width:0.9714;stroke-miterlimit:10;}
	.st14{fill:#D6666F;stroke:#D6666F;stroke-width:0.9902;stroke-miterlimit:10;}
	.st15{opacity:0.5;fill:#EBEAE4;stroke:#EBEAE4;stroke-width:1.0432;stroke-miterlimit:10;enable-background:new    ;}
	.st16{fill:#CCCCCC;stroke:#404040;stroke-width:0.9902;stroke-miterlimit:10;}
	.st17{fill:#2AA8C6;stroke:#FFFFFF;stroke-width:0.9902;stroke-miterlimit:10;}
	.st18{fill:#FFFFFF;stroke:#ED2F65;stroke-width:0.9902;stroke-miterlimit:10;}
	.st19{fill:#FFFFFF;stroke:#FFFFFF;stroke-width:1.0432;stroke-miterlimit:10;}
	.st20{fill:#83D2E5;stroke:#83D2E5;stroke-width:1.0432;stroke-miterlimit:10;}
	.st21{fill:#C8C8C8;stroke:#C8C8C8;stroke-width:0.9226;stroke-miterlimit:10;}
	.st22{fill:#565656;stroke:#565656;stroke-width:0.9226;stroke-miterlimit:10;}
	.st23{fill:#FF0000;stroke:#FF0000;stroke-width:0.4569;stroke-miterlimit:10;}
	.st24{fill:#FADA00;stroke:#FADA00;stroke-width:0.4569;stroke-miterlimit:10;}
	.st25{fill:#55DA00;stroke:#55DA00;stroke-width:0.4569;stroke-miterlimit:10;}
	.st26{fill:#737373;stroke:#737373;stroke-width:0.9226;stroke-miterlimit:10;}
	.st27{fill:#3C3C3C;stroke:#3C3C3C;stroke-width:0.9714;stroke-miterlimit:10;}
	.st28{fill:#282828;}
	.st29{fill:#8C8C8C;}
	.st30{fill:#3C3C3C;}
	.st31{fill:#FFFFFF;stroke:#000000;stroke-width:0.4613;stroke-miterlimit:10;}
	.st32{opacity:0.3;}
	.st33{fill:#FFFFFF;}
	.st34{fill:#4D4240;stroke:#4D4240;stroke-width:1.3072;stroke-miterlimit:10;}
</style>
<rect x="0.3" class="st0" width="899.5" height="261.6"/>
<g>
	<rect x="583.8" y="-0.7" class="st1" width="215.2" height="138.6"/>
	<rect x="603.3" y="-0.7" class="st2" width="176.3" height="119"/>
	<g>
		<path d="M651.9-1.1h-0.5h-0.3h-0.4H650h-0.5h-15.4h-1.5h-2h-0.9H626h-5h-2.7H617c-2.4,7.8-3.5,16.2-3.3,25
			c1.2,41.3,34.8,74.4,76.8,74.6c43.2,0.2,77.5-34.9,77.4-77c0-7.9-1.2-15.5-3.4-22.6H763h-14.6H747h-64.7h-3.6H671h-1.4h-0.9h-1.2
			H660h-0.8h-2.3h-0.7h-0.7h-0.3h-0.6h-0.4h-0.8H653C653-1.1,651.9-1.1,651.9-1.1z"/>
		<path class="st3" d="M631.6,8.1c0.5-3.2,1.4-6.2,2.6-9.2h15.9c-0.2,0.3-0.5,0.5-0.7,0.7c-1.2,0.8-1.4,2-1,3.2
			c0.4,1.1,0.4,2-1.1,2.2c-0.3,0-0.6,0.2-0.8,0.5c-1.4,2.3-3.5,4.1-3.9,7c-0.1,0.5-0.3,0.7-0.7,0.9c-0.3,0.1-0.6,0.2-0.8,0.3
			c-2.3,1.2-2.4,1.2-3.3-1.4c-0.3-0.8-0.6-1.6-1-2.4c-0.9-1.6-1.6-1.9-3.5-1.3C632.2,9,632.2,9,631.6,8.1z"/>
		<path class="st3" d="M668.7-1.1h-1.2H660h-0.8c-0.6,0.5-1.5,0.5-2.3,0h-0.7h-0.7h-0.3c0.1,0.5,0.5,0.9,0.8,1.4
			c0.8,1.1,0.6,1.7-0.8,2c-0.8,0.1-1.3,0.5-1.4,1.3c0,0.2-0.1,0.5-0.2,0.7c-0.1,0.1-0.1,0.2-0.3,0.2h-0.1c-0.6,0-0.8-0.6-1.1-1
			c-0.3-0.6-0.6-1.2-0.9-1.7c-0.2-0.4-0.5-0.8-1.1-0.7c-0.6,0.2-0.6,0.8-0.5,1.3c0.3,1.1,0.7,2.2,1.2,3.3c0.2,0.6,0.5,1.2,0.5,1.9
			c0,0.5,0,1.1-0.5,1.3c-0.6,0.3-1-0.2-1.5-0.6c-0.3-0.3-0.5-0.7-0.7-1s-0.4-0.9-1-0.6c-0.5,0.2-0.5,0.7-0.4,1.2
			c0.2,1.1,0.7,2,1.1,3c0.2,0.4,0.5,0.7,0.2,1.2c-0.8-0.5-1-1.3-1.5-2c-0.2-0.3-0.5-0.9-1-0.8c0,0,0,0-0.1,0h-0.1
			c-0.5,0.2-0.4,0.8-0.3,1.3c0.2,1.1,0.6,2.1,1.1,3.1c0.2,0.4,0.6,0.8,0.5,1.6c-1.1-1-1.4-2.2-2-3.2c-0.2-0.3-0.2-0.8-0.7-0.7
			c0,0,0,0-0.1,0h-0.1c-0.5,0.2-0.5,0.6-0.4,1c0.1,0.9,0.3,1.7,0.6,2.5c0.5,1.3,1,2.5,1,3.9c0,1.1-0.4,1.9-1.6,2
			c-0.5,0.1-0.9,0.3-1.2,0.7c-0.9,1.5-1.3,2.1-1.1,2.7c0,0.1,0.1,0.1,0.1,0.2c0.3,0.4,0.9,0.9,1.9,1.6c3.6,2.6,6.4,6,9.1,9.5
			c2,2.5,3.5,5.3,4.1,8.5c0.1,0.5,0.3,1.1,0.2,1.6c-0.3,2.2-2.3,3.1-4.3,2c-1.1-0.6-1.8-1.8-3.1-2.2l0,0c-0.1,0-0.2,0-0.2-0.1
			c-0.8-0.2-1.4-0.6-1.8-1.3c-3-4.7-6.6-9.1-8.3-14.6c-0.1-0.5-0.4-1-1-1c-0.5,0-0.6,0.6-0.8,1c-0.3,0.7-0.6,1.4-1.5,1.1
			s-1-1.1-0.8-1.9c0.4-1.4,0.4-2.9,1.2-4.2c0.2-0.3,0.3-0.7,0.2-1c-0.8-3.1-1.7-6.2-3.1-9c-0.5-1.1-1-2-0.7-3.3V11
			c0.1-0.4,0-0.6,0-0.9c-0.2-0.6-0.7-0.8-1.5-0.9c-0.1,0.2-0.2,0.4-0.2,0.6c-1.2,7.3-1.2,14.5,0.2,21.8c4.9,26.3,27.3,46.8,54,48.8
			c21.3,1.6,39.1-6,52.5-22.6c11.5-14.3,15.4-30.9,12-48.9c-0.7-3.6-1.7-7-2.9-10.3h-64.7h-3.6H671h-1.4h-0.9V-1.1z"/>
		<path class="st4" d="M722.9,89.9c-12.6,6-25.8,8.2-40.1,6.9c3.8-3.1,4.7-7.6,7.4-11.1c1.6-2.1,3.8-3.3,6.3-3.6
			c3-0.4,5.9-0.7,8.8-1.6c2.7-0.8,4.7,0.1,6.7,1.8c2.1,1.8,4.3,3.6,6.4,5.3C719.8,88.7,721.2,89.5,722.9,89.9z"/>
		<path class="st5" d="M734.6,63.9c-1,4-0.1,7.3,1.2,10.6c0.6,1.5,0.9,3.1,1.2,4.7c0.3,1.3,0,2.4-1.3,3.3c-2.7,1.8-5.4,3.5-8.2,5.2
			c-2.6,1.6-4.9,1.2-7.3-0.2c-2.5-1.6-4.7-3.6-6.9-5.5c-1.2-1-2.2-2-4-2.6C719.1,76.2,727.3,71.2,734.6,63.9z"/>
		<path class="st3" d="M656.5,44.5c0.3,1.3-0.2,2.6-1.2,3.2c-1.2,0.7-2.1,0.1-3-0.5c-2.4-1.7-3.9-4.2-5.6-6.5
			c-4-5.2-6.1-11.3-8.4-17.3c-0.5-1.2-0.4-2.5-0.3-3.8c0.2-3-0.5-5.7-1.8-8.4c-0.2-0.4-0.3-0.8-0.6-1.1c-0.4-0.5-0.8-0.8-1.5-0.6
			c-0.6,0.2-0.8,0.7-0.8,1.3c-0.1,0.8,0.2,1.5,0.6,2.2c1.6,2.9,2.3,6,3.4,9.1c0.4,1.1-0.1,2.3-0.2,3.5c-0.2,1.2-0.6,2.3-0.6,3.5
			c0.6-1,0.6-2.1,0.9-3.1c0.1-0.4,0.1-0.9,0.6-1h0.1c0,0,0,0,0.1,0c0.5,0,0.6,0.5,0.8,0.8c1,2.2,1.7,4.4,2.5,6.7
			c1.4,3.6,4.1,6.4,5.9,9.7c0.7,1.2,1.8,2.1,2.3,3.5c0,0.1,0.1,0.2,0.1,0.3c-1.3-0.1-2.1-0.7-2.8-1.8c-1.2-2.1-2.5-4.1-4-6.1
			c-1.8-2.5-3-5.2-4-8.1c-0.2-0.4-0.2-0.9-0.7-1.1c-0.4,0.3-0.4,0.8-0.5,1.2c-0.1,1-0.7,1.5-1.7,1.3c-1-0.1-1.5-0.9-1.4-1.8
			c0.2-1.4,0.3-3.1,1-4.2c1-1.5,0.2-2.7-0.2-3.9c-0.9-2.7-1.4-5.6-3.1-8c-0.3-0.5-0.2-1.1,0-1.6c0.3-1.1,0.1-2-1.1-2.4
			c0-0.5,0-1.1,0.3-1.6c0.5,0.7,1,0.5,1.6,0.2c1.5-0.8,2.9-0.4,3.6,1.1c0.8,1.6,1.5,3.3,2.2,4.9c1.1-0.2,1.6-1.5,2.8-1.4
			c0.1,0,0.3-0.2,0.3-0.3c-0.5-2,1.6-2.9,1.8-4.7c0-0.4,0.3-0.7,0.7-0.9c0.6-0.2,0.9-0.6,1.1-1.3c0.2-0.8,0.9-1.2,1.7-1.3
			c1,0,0.9-0.5,0.7-1.2c-0.6-1.7-0.6-3.2,1.2-4.2c0.1-0.1,0.2-0.2,0.4-0.3h1.5c-0.2,0.7-0.6,1.2-1.2,1.6c-0.7,0.4-0.8,1.1-0.6,1.9
			c0.2,1.2,0.7,2.3,1.1,3.5c0.2,0.4,0.3,0.7,0.4,1.1c0,0.4,0.1,0.9-0.3,1.1c-0.4,0.2-0.7-0.2-1-0.5c-0.1-0.2-0.2-0.3-0.3-0.5
			c-0.3-0.5-0.6-1.1-1.3-1.1c-0.8,0-0.7,0.9-1,1.4c-0.6,1-1.5,1.8-2.2,2.7c-1.2,1.5-1.1,3-0.7,4.5c0.2,0.8,0.6,1.5,0.8,2.3
			c0.1,0.5,0.3,1,0.3,1.5c0,0.8,0.1,2-1,2c-1.2,0-0.9-1.1-0.9-1.9c0-1.2-0.2-2.2-0.9-3.2c-0.3-0.4-0.6-0.7-1.1-0.6
			c-0.4,0.2-0.5,0.6-0.5,1c-0.1,1.1,0.3,2,0.8,2.9c1.3,2.3,1.3,3-0.5,5c-0.7,0.8-0.5,1.2,0.3,1.6c5.9,3,9.5,8.2,13.1,13.4
			C655.5,40.5,656,42.6,656.5,44.5z"/>
		<path class="st3" d="M652.9-1.1h0.4c0.1,0.2,0.2,0.3,0.3,0.5c0.5,0.5,0.7,1.3,1.5,1.6c0-0.7-0.5-1.2-0.8-1.7
			c-0.1-0.1-0.2-0.3-0.2-0.4h0.4h0.6h0.3c0.1,0.4,0.3,0.6,0.6,0.9c0.8,0.6,1,1.3,0.8,2.1c-0.2,0.9-1.1,0.8-1.8,0.8
			c-0.6,0-0.9,0.1-0.8,0.9c0.1,0.6-0.3,1.1-0.8,1.5c-0.1-0.2-0.2-0.4-0.3-0.6c-0.5-1-0.9-2-1.4-3c-0.2-0.4-0.4-0.7-0.4-1.1
			c0-0.5-0.1-1,0.1-1.5h0.5H652.9z"/>
		<path class="st3" d="M660-1.1c-0.3,0.4-0.8,0.7-1.4,0.7c-1,0.1-1.7-0.1-2.4-0.7H660z"/>
		<path class="st5" d="M691.9,82.4c-3.3,2.5-4.7,6-6.5,9.3c-0.5,0.8-1,1.7-1.6,2.4c-1.4,1.8-3.1,3-5.6,2.1c-1.5-0.5-3.1-0.8-4.8-1
			c-3.8-0.4-5.1-3.1-6-6.2c-0.6-2-0.3-4-0.5-6c-0.2-1.9-0.6-3.8-1.3-5.9C674.1,80.8,682.7,82.5,691.9,82.4z"/>
		<path class="st4" d="M636.4,74.2c3.7,0.2,6.7-1.2,9.7-2.2c4.1-1.5,7.9-1.7,11.7,1c1.1,0.8,2.3,1.6,3.5,2c3.2,1.1,3.9,3.6,4.4,6.5
			c0.2,1.4,0.3,2.9,0.4,4.4c0.1,2.8,0.6,5.4,2.1,7.9C656,89.9,645.6,83.5,636.4,74.2z"/>
		<path class="st5" d="M763-1.1c0.1,1.8-0.3,3.6-1.3,5.1c-1.5,2.2-2.7,4.6-4.4,6.7c-1.7,2-3.2,4.1-5,6.3c-0.4-5.4-1.3-10.6-3-15.6
			c-0.3-0.8-0.6-1.6-0.9-2.4L763-1.1L763-1.1z"/>
		<path class="st4" d="M763.5,43.2c-1.3-3.7-3.7-6-6.1-8.4c-1.6-1.6-3-3.4-4.2-5.3c-0.7-1-0.9-2.1-0.9-3.3c0-4.8,0.9-9.1,4.4-12.8
			c2.9-3,5-6.6,6.8-10.3c0.1-0.3,0.2-0.7,0.6-0.6c0.5,0.1,0.4,0.7,0.5,1c1.6,6.7,2.4,13.5,2.1,20.3
			C766.4,30.2,765.5,36.5,763.5,43.2z"/>
		<path class="st5" d="M652.9,69.7c-4.4-0.6-8,1.6-11.9,2.7c-4.1,1.2-5.7,0.8-8.4-2.5c-0.6-0.7-1.2-1.5-1.8-2.2
			c-2.3-2.8-2.3-4.1-0.5-7.6c1-2,2.2-4,3.8-5.7c1.1-1.2,1.6-2.7,2.3-4.3C640.6,57.8,646.1,64.2,652.9,69.7z"/>
		<path class="st5" d="M632.7-1.1c-0.3,0.8-0.6,1.6-0.9,2.5c-0.3-0.9-0.7-1.7-1.1-2.5H632.7z"/>
		<path class="st4" d="M738.3,80.5c-0.1-3.1-1-5.7-2-8.2c-1.2-2.9-1.2-5.8-0.3-8.8c1.7-5.5,7.1-9.3,13.2-9.4
			c3.4-0.1,6.8,0.3,10.3-0.6C754.4,64.2,747.4,73.1,738.3,80.5z"/>
		<path class="st5" d="M751.7,29.4c2.3,3.9,5.2,6.5,7.9,9.4c1.4,1.5,2.2,3.2,2.9,5.1c0.3,0.9,0.2,1.8-0.1,2.7
			c-0.4,1.1-1,2.1-1.2,3.2c-0.5,2.2-2,2.8-4,3c-1.8,0.2-3.6,0.3-5.4,0.3c-3,0-6.1-0.3-9,1C747.3,46.6,750.3,38.6,751.7,29.4z"/>
		<path class="st5" d="M631.7,39.1c-2.6-1.8-5.3-3-8.2-3.9c-2.4-0.7-4.6-1.7-6.6-3.4c-0.9-0.7-1.5-1.7-1.5-2.9
			c-0.1-1.8-0.3-3.6-0.3-5.4c0-1,0.4-1.8,1.1-2.6c1.6-1.6,3.5-2.8,5.6-3.5c2.6-0.8,5.1-1.8,7.5-3.8
			C628.4,22.5,629.2,30.8,631.7,39.1z"/>
		<path class="st4" d="M615.8,32.6c2.8,2.2,5.7,3.3,8.8,4.2c4.5,1.3,7.6,4.1,9.6,8.5c1.5,3.4,1,6-1.2,8.6c-2.3,2.8-4.3,5.7-5.2,9.7
			C621.5,54.1,617.6,43.9,615.8,32.6z"/>
		<path class="st4" d="M630.8,4.4c-0.4,1.7-0.8,3.5-0.9,5.2c-0.1,2.4-1.7,3.7-3.5,4.7c-1.4,0.8-2.8,1.4-4.3,1.9
			c-2.6,0.7-4.9,2.1-7.1,4.3c0.2-7.5,1.3-14.7,3.4-21.6h11.3C630.8,0.5,631.3,2.3,630.8,4.4z"/>
		<path class="st6" d="M652.9-1.1L652.9-1.1h1.7c0.1,0.2,0.2,0.5,0.4,0.7c0.2,0.4,0.5,0.8,0.7,1.2c0.2,0.3,0.3,0.7-0.1,1
			c-0.4,0.3-0.8,0.2-1-0.2C654,0.6,653.5-0.2,652.9-1.1z"/>
		<path class="st6" d="M657.4,45.4c0.1,1.4-0.5,2.5-1.7,3.2s-2.4,0.3-3.4-0.4c-0.9-0.6-1.7-1.4-2.6-2.1c-0.1-0.1-0.2-0.3-0.3-0.4
			c-2.4-2.9-4.3-6.3-6.5-9.4c-2.3-3.3-3-7.3-4.8-11.2c0,0,0,0,0-0.1c0,0,0,0,0,0.1c-0.4,1.6-0.8,3-1.1,4.5c-0.1,0.4-0.1,0.9-0.6,0.8
			c-0.6-0.1-0.6-0.6-0.5-1.1c0.4-1.9,1-3.7,1.1-5.7c0-0.4,0.1-0.9,0-1.3c-1.1-2.9-1.7-6.1-3.2-8.8c-0.4-0.6-0.7-1.3-0.8-2
			c0-0.2-0.1-0.5,0-0.7c0-0.1,0-0.1,0-0.2c0.1-0.8,0.4-1.3,1.2-1.5s1.5,0.1,1.8,0.8c1.2,2.4,2.6,4.8,2.5,7.5
			c-0.3,7.5,3,13.8,6.7,19.9c1.1,1.8,2.4,3.5,3.5,5.3c1.1,1.7,2.5,3.1,4,4.3c0.8,0.6,1.6,1.1,2.6,0.6c1.1-0.6,1.3-1.7,1-2.8
			c-0.6-2.2-1.2-4.4-2.5-6.3c-1.8-2.7-3.8-5.1-6-7.4c-2.1-2.2-4.2-4.3-7.1-5.5c-1-0.4-0.8-1-0.2-1.6c2-2,2.1-2.4,0.7-4.9
			c-0.6-1.1-1.1-2.2-0.9-3.5c0.1-0.6,0.3-1.1,1-1.2c0.6-0.2,1,0.2,1.4,0.7c0.9,1.3,1.3,2.7,1.1,4.3c0,0.4-0.2,1,0.5,1.1
			c0.7,0,0.7-0.5,0.7-1.1c0.1-1.4-0.5-2.6-1-3.8c-0.4-1.1-0.7-2.2-0.6-3.4c0-0.6,0.1-1.3,0.7-1.6c0.7-0.3,0.9-0.7,0.9-1.4
			c0-0.2,0.1-0.5,0.2-0.5c1.6-0.1,1.4-1.6,1.9-2.5s1.5-0.7,2.2,0.3c0.4,0.6,0.5,1.4,1.1,1.8c0.1,0,0.2,0,0.4,0.1
			c0-1.5-0.8-2.7-1.2-4c-0.8-2.5-0.8-2.5,1.1-4.2c0.2-0.2,0.2-0.5,0.3-0.8l0,0h1.2c-0.3,1,0,1.9,0.4,2.9c0.4,0.8,1.1,1.5,1.2,2.5
			c0,0.3,0,0.5-0.1,0.9c-0.8,0.2-1.1-0.3-1.4-0.9c-0.5-1-1.1-2-1.8-3c-0.4,1.6,0.5,2.9,0.9,4.4c0.2,0.8,0.8,1.5,0.6,2.3
			c-0.1,0.6-0.1,1.3-0.8,1.5c-0.6,0.2-1.1-0.1-1.5-0.4c-0.8-0.5-1-1.5-1.6-2.3c-0.7,1.2,0.1,2.2,0.4,3.2c0.2,0.6,0.6,1.2,0.9,1.8
			c0.2,0.4,0.4,0.9-0.2,1.2c-0.4,0.2-0.8-0.1-1-0.4c-0.6-0.9-1.2-1.8-1.9-3c0-0.1-0.1-0.1-0.1-0.2c0,0.1,0,0.1,0,0.2
			c-0.2,1.7,0.5,2.9,1.1,4.2c0.2,0.4,0.5,0.8,0.7,1.2s0.5,0.9,0,1.2c-0.5,0.3-0.8-0.1-1.1-0.5c-0.8-1.1-1.4-2.4-2-4V12v0.1
			c-0.4,1.3,0,2.3,0.4,3.3c0.5,1.5,1.2,3,1.1,4.7c0,1-0.6,1.8-1.5,1.8c-1.2,0-1.5,0.6-1.8,1.5c-0.2,0.6-0.6,1-1,1.6
			c0,0,0,0.1-0.1,0.1c0.1,0,0.1,0,0.2,0.1c4.3,2,7.1,5.7,10.1,9.2c2.5,2.9,4.5,6.1,5.4,9.9C657.3,44.3,657.4,44.9,657.4,45.4z"/>
		<path class="st7" d="M702.6,24.6c3.4-1.1,4-4.3,3.3-6.9c-0.6-1.9-2.6-2.7-4.8-2c-1.9,0.6-3,2.4-2.6,4.2c0.3,1.1,1,1.6,2.2,1.5
			c1.1-0.2,2.3-1.5,2.1-2.5c0-0.2-0.1-0.4-0.3-0.5s-0.5,0-0.6,0.3c-0.2,0.6-0.4,1.1-1,0.5c-0.5-0.4-0.3-1,0.1-1.5
			c0.5-0.6,1.2-0.7,2-0.5s1,0.8,1.1,1.5c0.2,1.9-1.6,3.9-3.7,4c-0.9,0-1.7,0-2.6,0.1c-3,0.3-4.6-1.5-3.8-4.4c0.5-0.7,0.3-1.5,0-2.2
			c-0.5-1.4-0.1-2.5,0.8-3.5c2.3-2.8,6.8-3.6,10.3-1.8c1.4,0.7,2.7,1.8,4.4,1.9c0.7,0,1,0.7,0.9,1.4c-0.1,1.1,0.4,1.9,1.2,2.7
			c2.2,2,2.5,4.6,2.1,7.3c-0.2,1.6-1.4,2.6-2.8,3.1c-1.6,0.7-3.3,1-5,1.1c-2.5,0.1-5.1,0.2-7.4,1.4c-1,0.5-1.9,1-2.7,2.1
			c1.6-0.3,3.1-0.3,4.4-1.1c2.9-1.7,6-1.8,9.2-0.5c0.1,0.1,0.3,0.1,0.4,0.2c1.9,1,3.9,1.3,5.6-0.2c1.7-1.5,2.3-3.6,1.7-5.8
			c-0.5-1.7-1.3-3.4-0.7-5.3c0.2-0.6-0.4-1.2-0.9-1.7c-1.6-1.7-3.2-3.2-4-5.5c-0.2-0.5-0.7-0.8-1.2-0.8c-0.7-0.1-1.3-0.3-1.9-0.3
			c-1.8-0.2-3.3-0.8-4.6-2.1c-1.2-1.2-2.4-1.2-3.7,0s-2.7,1.9-4.3,2.5c-2.7,1-3.2,2.3-2.2,5c0.3,0.8,0.9,1.5,0.5,2.5
			c-0.3,0.3-0.7,0.5-1.1,0.1c-1.6-1.4-1.9-5.8-0.5-7.6c0.5-0.7,1.1-1.1,2-1.3c1.7-0.3,3.2-1,4.5-2.4c1.6-1.7,4.4-1.6,5.9,0.1
			c1.3,1.4,2.9,1.6,4.5,1.7c2.1,0.1,3.6,0.8,4.1,3c0.3,1.3,1.5,2.1,2.4,3.1c0.8,0.9,1.6,1.8,2.5,2.6c0.5,0.5,0.4,0.9,0,1.3
			c-0.8,1-0.6,1.9-0.2,3c1.1,2.5,1.1,5-0.2,7.4c-1.5,2.9-5.5,3.9-7.7,2.6c-1.8-1-3.7-1.6-5.8-1.3c-0.7,0.1-9.7,3.2-10.1,3.6
			c-0.3,0.3-0.6,0.8-1.1,0.5c-0.6-0.3-0.4-0.9-0.3-1.4c0.7-2.6,2.4-4.3,4.7-5.4c0.2-0.1,0.4-0.2,0.6-0.4c1.5-1.1,3.2-1.3,4.9-1.3
			c1.8,0,3.6-0.2,5.4-0.6c3.8-0.9,4.8-4.4,2-7.3c-1-1-1.9-1.9-2.2-3.4c0-0.3-0.2-0.5-0.4-0.6c-2.1-0.8-3.9-2.4-6.2-2.7
			c-1.5-0.2-2.8,0.1-4.1,0.8c-1.5,0.8-1.8,1.7-1.5,3.4c0.2,1,0.1,1.9-0.3,2.8c-0.2,0.4-0.4,0.8-0.2,1.3c0.2,0.4,0.5,0.8,1.1,0.7
			c0.5-0.1,0.3-0.6,0.3-0.9c-0.1-1.5,0.1-2.9,1-4.2c1.7-2.2,4-2.2,6.3-1.7c2,0.4,3,2,3.3,3.9c0.8,4.2-2.4,8.3-6.7,8.6
			c-0.5,0-0.9,0-1.3-0.2c-0.4-0.2-0.7-0.6-0.6-1.1c0.1-0.5,0.6-0.7,1-0.5C700.9,25.2,701.8,24.9,702.6,24.6z"/>
		<path class="st6" d="M667.4-1.1h1.2c-0.3,3.2-0.8,6.1-1.4,9c-0.2,1-0.6,2-1.1,3c-0.2,0.4-0.5,0.7-1,0.4c-0.4-0.2-0.2-0.6,0-0.9
			C666.5,6.7,667.2,2.8,667.4-1.1z"/>
		<path class="st6" d="M682.3-1.1c-0.4,0.5-1,0.8-1.9,0.8c-0.4,0-0.5,0.2-0.6,0.5c-2,3.6-6,3.9-8.6,0.8c-0.5-0.6-1-1.3-1.6-2h1.4
			c0.8,1.1,1.8,2,3,2.7c1.5,0.9,2.7,0.1,3.9-0.8c0.7-0.6,0.8-1.2,0.8-1.8h3.6V-1.1z"/>
		<path class="st3" d="M702.6,24.6c-0.7,0.6-1.6,0.5-2.5,0.5c-0.4,0-1-0.2-1,0.5c0,0.6,0.5,0.7,1,0.8c3.2,0.5,7-2.6,7.2-5.8
			c0.1-1.4,0.2-2.7-0.6-4c-1.4-2.4-4-2.7-6.6-1.7c-2.3,0.9-3.4,3.5-2.7,6.1c0.1,0.2,0.3,0.4,0.1,0.8c-1,0.3-1.8-0.1-2.5-0.9
			c-0.6-0.8,0-1.4,0.4-2c0.5-0.8,0.6-1.8,0.1-2.6c-0.5-1-0.2-1.7,0.5-2.5c1.8-2.1,5.3-2.7,8.1-1.3c1.4,0.7,2.6,1.9,4.2,2
			c0.4,0,0.4,0.4,0.4,0.7c-0.1,1.2,0.7,2,1.5,2.7c0.7,0.7,1.4,1.3,1.7,2.3c1.3,3.8,0.4,5.4-3.4,6.4c-1,0.3-2.1,0.5-3.1,0.5
			c-2.4,0-4.8,0.2-7.2,1.1c0.3-0.6,0.4-1.1,0.1-1.7c-0.5-0.9,0.1-1.4,0.6-1.9c0.6-0.6,1,0,1.4,0.3C701.1,25.3,701.9,24.4,702.6,24.6
			z"/>
		<path class="st8" d="M662.7,68.5c5-0.5,8.9,2.4,13.4,2.7c6.7,0.5,13.1-0.6,18.6-4.5c2.2-1.5,4-3.5,3.9-6.5c0-0.4,0.1-0.9,0.6-0.8
			c0.5,0,0.6,0.5,0.6,0.9c0.1,1.7-0.5,3.2-1.5,4.5c-2.7,3.7-6.6,5.5-10.8,6.6c-5.1,1.4-10.3,1.8-15.4,0.3c-2.3-0.6-4.4-1.9-6.8-2
			c-1.5-0.1-2.9-0.3-4.4-0.4c-0.4,0-0.8-0.1-0.9-0.6c-0.1-0.5,0.3-0.6,0.6-0.8c3.6-2.1,6-5.1,6.9-9.2c0.5-2.4,0.4-4.9,0.8-7.4
			c0.6-3.1,1.8-5.9,4.3-8c1.4-1.2,3-1.6,4.8-1.4c0.6,0.1,1.1,0.4,1.5,1c0.2,0.2,0.2,0.5-0.1,0.7c-0.1,0.1-0.4,0.2-0.5,0.1
			c-1.2-0.9-2.5-0.8-3.7-0.2c-1.6,0.8-2.8,2.2-3.6,3.8c-1.2,2.3-1.8,4.7-1.7,7.2c0.1,5.4-2,9.7-5.9,13.3
			C663.2,67.9,663.1,68.1,662.7,68.5z"/>
		<path class="st7" d="M727.6,23.7c-0.2,4-2.4,7-5.2,9.6c-1.7,1.6-3.6,3-5.4,4.4c-1.3,1-2.1,2.3-2.5,3.9c-0.6,2.9-2.5,4.3-5.3,4.6
			c-0.6,0.1-1.1,0.2-1.6,0.3c-0.4,0.1-0.8,0.2-0.9-0.2c-0.2-0.5,0.1-0.8,0.5-0.9c0.7-0.2,1.4-0.3,2.1-0.4c2.1-0.2,3.6-1.1,4-3.3
			c0.6-3.2,3.1-5,5.4-6.9c1.8-1.4,3.7-2.8,5.1-4.7c3.8-5.1,3.6-9.1-1.1-13.4c-2.5-2.3-4.5-4.7-5.4-8c-1.1-3.6-5.6-5.5-8.9-4
			c-1.3,0.6-2.7,0.5-4,0.4c-0.6-0.1-1.1-0.2-1.6-0.3c-3.6-0.7-5.5,0.2-7.3,3.3c-0.2,0.4-0.3,1.2-1,0.8c-0.6-0.3-0.3-1,0-1.5
			c1.5-3.1,4.4-4.6,7.8-4c2.4,0.4,4.6,0.6,7-0.2c3.6-1.2,7.8,0.8,9.1,4.5c1.2,3.5,3.2,6.1,5.8,8.6C725.9,18.2,727.8,20.5,727.6,23.7
			z"/>
		<path class="st7" d="M725,40.7c-0.3-3.5,1.8-6.2,2.9-9.3c0.8-2.2,2.1-4.1,2.6-6.4c1.1-4.9-1.9-11.5-7.4-12.3
			c-0.9-0.1-1.7-0.6-2.5-1c-0.3-0.1-0.5-0.4-0.4-0.7c0.1-0.4,0.5-0.4,0.8-0.3c2.8,1.1,5.9,1.5,8,4.1c3.3,4,3.8,8.4,1.9,13.1
			c-1.1,2.8-2.4,5.6-3.7,8.3c-0.7,1.5-1.1,2.9-0.9,4.5c0.4,4.5-1.8,7.3-5.8,8.9c-2.8,1.1-5.3,2.6-7.6,4.5c-3.1,2.6-6.8,3.5-10.8,2.5
			c-2.6-0.7-5.1-1.3-7.8-1.1c-1.5,0.1-2.3-0.8-2.9-2.1c-0.2-0.4-0.3-0.8,0.2-1c0.4-0.2,0.7,0.2,0.8,0.5c0.6,1.4,1.7,1.7,3,1.6
			c2.4-0.2,4.7,0.5,7,1.1c3.8,0.9,7.1-0.1,10-2.6c2-1.7,4.2-3,6.6-4c0.4-0.2,0.8-0.3,1.1-0.4C723.5,46.9,725.6,44.6,725,40.7z"/>
		<path class="st7" d="M677.8,27.4c0.2-1.7,0.6-3.6,2.1-5.1c1.4-1.5,1.9-3.2,1.4-5.3c-0.8-3.5-0.3-4.3,3-5.8c0.9-0.4,1.6-0.9,1.7-2
			c0.2-1.6,1.5-2.2,3-1.5c1,0.4,2,1,2.9,1.6c0.3,0.2,0.6,0.4,0.5,0.9c-0.2,0.5-0.7,0.4-1,0.2c-0.8-0.4-1.5-0.8-2.2-1.3
			c-1.2-0.7-1.7-0.5-2,0.9c-0.2,0.9-0.6,1.6-1.5,2c-0.6,0.2-1.1,0.5-1.6,0.8c-1.5,0.6-2.1,1.8-1.7,3.3c0.9,3,0.2,5.4-1.9,7.7
			c-1.1,1.2-1.5,2.8-1.4,4.4c0.1,2.6,1.3,4.1,4,4.7c5,1.2,9.1,3.9,12.5,7.6c1.3,1.4,2.6,2.2,4.5,2.3c3.9,0.4,5.7,2.4,5.8,6.4
			c0,0.8,0.4,1.4,0.9,2c0.2,0.2,0.4,0.6,0.1,0.9c-0.3,0.3-0.7,0.1-0.9-0.1c-0.9-0.7-1.3-1.6-1.3-2.8c0-3.3-1.5-5-4.8-5.2
			c-2-0.2-3.7-0.8-5-2.5c-2.1-2.6-5-4.4-7.9-6.1c-1.4-0.8-3.1-1-4.6-1.5C679.3,32.8,677.8,30.8,677.8,27.4z"/>
		<path class="st7" d="M701.1,51.9c0.2,0,0.4,0,0.4,0c0.5,0.1,1.4-0.6,1.5,0.3c0.1,0.9-0.9,0.9-1.6,0.9c-1.9-0.1-3.7-0.2-5.6-0.4
			c-2.2-0.3-3.6-1.7-4.8-3.4c-0.7-1-1.3-1.9-1.9-2.9c-1.4-2.1-3.4-3.4-5.9-3.9c-3-0.5-5.9-1.5-8.6-3c-4.3-2.3-6.3-9.4-4.1-13.7
			c1.4-2.7,3.6-4.5,5.9-6.3c1-0.8,2-1.7,2.9-2.7c0.3-0.3,0.5-1,1-0.5c0.4,0.4,0.3,1-0.1,1.4c-1,0.9-1.9,1.8-2.9,2.7
			c-2.1,1.7-4.3,3.3-5.6,5.9c-1.2,2.4-1.1,4.6-0.2,7.1c1.7,4.9,5.7,6.6,10.1,7.4c4.6,0.8,7.9,3.1,10.1,7.1c1.3,2.5,3.3,3.9,6.3,3.7
			C699,51.6,700.1,52,701.1,51.9z"/>
		<path class="st8" d="M738.4,24.4c-1.6,1.4-3.7,1.5-5.3,2.6c-0.2,0.2-0.6,0.3-0.8,0c-0.3-0.3-0.1-0.7,0.1-0.9
			c0.7-0.7,1.6-0.9,2.4-1.2c1.6-0.5,3-1.2,3.9-2.7c0.2-0.3,0.4-0.5,0.7-0.4s0.6,0.3,0.5,0.7c-0.6,4.2,1.1,8.2,0.7,12.4
			c-0.4,3.9-1.6,7.4-4.3,10.3c-1.7,1.9-4,2.4-6.5,2.3c-0.5,0-1.1-0.1-1.1-0.8c0-0.5,0.4-0.5,0.8-0.5c5.4,0.7,7.7-3.5,9.1-7.4
			c1-2.6,1-5.4,0.7-8.1C739,28.6,738.7,26.6,738.4,24.4z"/>
		<path class="st8" d="M686.3,52.3c-1.2-0.2-2.1-0.4-3-0.6c-0.4-0.1-0.8-0.3-0.7-0.8c0.1-0.4,0.5-0.4,0.9-0.4s0.7,0.1,1,0.2
			c1.4,0.4,2.8,0.8,4.1-0.6c0.2-0.2,0.5-0.3,0.8-0.3c0.4-0.1,0.7-0.1,0.9,0.3c0.1,0.3-0.1,0.6-0.4,0.7c-2.4,1.1-3.4,3.3-4.6,5.4
			c-0.6,1.1-0.2,2.2,0,3.2c0.3,1.2,0.1,2.2-0.6,3.2c-0.3,0.4-0.7,0.8-1.1,0.5c-0.6-0.3-0.2-0.8,0.1-1.2c0.5-0.8,0.9-1.6,0.2-2.6
			c-1.8,3.8-5.1,5.6-8.7,7.1c-1.6,0.7-3.2,0.6-4.8,0.1c-0.4-0.1-0.8-0.3-0.7-0.8s0.6-0.4,1-0.4c4.8,0.6,9.6-2.1,12-6.5
			C683.9,56.7,684.6,54.4,686.3,52.3z"/>
		<path class="st8" d="M735.6,31.5c0.5-0.5,0.3-1.2,0.4-1.7c0.1-0.5,0.3-1,0.9-0.8c0.6,0.1,0.4,0.6,0.4,1c-0.2,1.3-0.5,2.7-0.8,4.1
			c0.4,0.3,1.2-0.4,1.3,0.4c0.1,0.7-0.6,0.8-1.1,1c-0.8,0.2-1.3,0.6-1.8,1.3c-1.3,1.9-3.4,2.9-5.3,3.9c1.1,1.8,2,2.2,4.1,1.5
			c0.4-0.1,0.9-0.4,1.2,0.2c0.2,0.6-0.3,0.8-0.7,1c-2,1-5.1-0.1-5.9-2.2c-0.4-1,0.3-1.4,0.9-1.6c0.9-0.4,1.7-1,2.6-1.5
			c2.5-1.3,3-3.5,2.5-6c-0.1-0.6-0.6-1.3,0.1-1.6C735.4,29.9,735.2,31,735.6,31.5z"/>
		<path class="st7" d="M687.1,29.6c0-3.9,1.9-6.9,4.2-9.8c0.3-0.4,0.7-0.9,1.3-0.4c0.5,0.4,0,0.8-0.3,1.1c-1.7,2.2-3.3,4.5-3.7,7.3
			c-0.3,1.7-0.2,3.4,0.7,5c0.2,0.4,0.6,0.9-0.1,1.1c-0.5,0.2-0.8-0.2-1-0.6C687.3,32.2,687.1,30.9,687.1,29.6z"/>
		<path class="st8" d="M690.4,60c0.1,1.5-0.6,2.9,0.2,4.1c0.1,0.2,0,0.5-0.2,0.6c-0.4,0.2-0.7,0-0.9-0.3c-0.6-0.8-0.6-1.7-0.4-2.6
			c0.4-1.7,0.3-3.2-1.1-4.4c-0.1-0.1-0.2-0.3-0.3-0.5c-0.2-0.7-1.1-1.7-0.1-2.1c0.9-0.4,0.9,0.9,1.2,1.5
			C689.5,57.5,691,58.4,690.4,60z"/>
		<path class="st8" d="M730.2,34.7c0-1.1,0.6-1.9,1.1-2.8c0.4-0.8,1.1-1.5,0.4-2.5c-0.2-0.2-0.1-0.5,0.1-0.7c0.3-0.2,0.6-0.2,0.8,0
			c0.8,0.5,0.8,1.2,0.6,2s-0.7,1.6-1.2,2.3c-0.4,0.7-0.7,1.3-0.6,2.1c0.1,0.5,0.3,1.1-0.4,1.2c-0.6,0-0.7-0.7-0.8-1.1
			C730.2,35.1,730.2,34.9,730.2,34.7z"/>
		<path class="st8" d="M671.2,61c0.3,0,0.8,0.1,1.1,0.4c0.9,0.8,1.9,1.6,3.2,1.4c0.3,0,0.6,0.1,0.6,0.5s-0.3,0.5-0.6,0.6
			c-1.2,0.3-2.2-0.1-3.1-0.8c-0.7-0.6-1.4-1.5-2.3-0.1c-0.2,0.3-0.5,0.3-0.8,0c-0.3-0.2-0.2-0.5-0.1-0.8
			C669.6,61.5,670.2,61.1,671.2,61z"/>
		<path class="st9" d="M709.6,38.5c-0.1,0-0.3-0.1-0.4-0.3c-0.2-0.3-0.1-0.6,0.2-0.8c1.3-0.9,2.2-2,2.8-3.4c0.2-0.5,0.7-0.6,1,0.1
			C713.6,35.1,710.9,38.6,709.6,38.5z"/>
		<path class="st8" d="M682,55.9c0.4,0,0.7,0,0.8,0.4c0.1,0.3-0.1,0.6-0.4,0.8c-0.6,0.3-1.2,0.4-1.9,0.4c-0.6,0-1.3-0.2-1.9,0.3
			c-0.3,0.3-0.7,0.5-1,0s0-0.9,0.4-1.1c0.4-0.2,1-0.3,1.4-0.4C680.3,56.1,681.2,56.3,682,55.9z"/>
		<path class="st8" d="M677.9,70.1c-0.7-0.1-0.7-0.5-0.6-1c0.3-1,0.8-1.8,1.5-2.6c0.2-0.2,0.5-0.3,0.7-0.1c0.2,0.1,0.3,0.4,0.2,0.7
			c-0.5,0.9-1,1.9-1.5,2.8C678.2,70,678,70.1,677.9,70.1z"/>
		<path class="st8" d="M699.5,87.6c-0.1,1.1-0.1,2.2-0.3,3.1c-0.3,1.5-1.4,2.3-2.8,2.2c-1.2-0.2-2-1.2-1.9-2.7
			c0.1-2.7,1.8-4.5,3.5-6.3c0.6-0.6,1,0,1.2,0.5C699.8,85.5,699.3,86.6,699.5,87.6z"/>
		<path class="st8" d="M709.6,88.9c-0.1,1.2-0.6,2-1.7,2.5c-1,0.4-1.7-0.2-2.2-0.9c-1.3-1.6-2.1-3.5-2.9-5.5
			c-0.2-0.5-0.2-1.1,0.3-1.5s0.9,0,1.2,0.2c1.7,1,3.4,2,4.6,3.6C709.3,87.8,709.6,88.3,709.6,88.9z"/>
		<path class="st8" d="M704.4,90.6c0.7,0.4,1.2,1,1.2,1.9c0,0.5-0.3,0.8-0.8,0.7c-1-0.2-1.2-1-1.3-1.8
			C703.4,90.8,703.8,90.6,704.4,90.6z"/>
		<path class="st8" d="M702.9,89.1c0,0.6-0.1,1.1-0.8,1.1c-0.8-0.1-0.9-0.8-0.9-1.4c0-0.5,0.2-0.9,0.7-0.9
			C702.7,87.8,702.8,88.5,702.9,89.1z"/>
		<path class="st8" d="M649.9,79.4c-0.9-0.1-1.8-0.5-2.2-1.6c-0.4-1.2,0.2-2.1,1.1-2.8c2.1-1.6,4.5-1.5,6.9-1.4c0.5,0,0.8,0.5,0.6,1
			c-0.1,0.4-0.3,0.8-0.6,1c-1.3,1.1-2.6,2.2-4,3.2C651.3,79.2,650.7,79.4,649.9,79.4z"/>
		<path class="st8" d="M660.6,81.8c0.1,3-1,4.4-2.9,4.3c-1.3-0.1-2-0.7-1.8-2c0.2-2.3,1.3-4.3,2.3-6.3c0.2-0.5,0.7-0.7,1.3-0.6
			c0.5,0.1,0.6,0.7,0.7,1.1C660.3,79.6,660.5,80.9,660.6,81.8z"/>
		<path class="st8" d="M655,83.3c-0.2,0.7-0.2,1.6-1.2,1.7c-0.6,0.1-0.8-0.5-0.7-0.9c0.1-0.7,0.2-1.6,1.2-1.7
			C654.8,82.3,655.1,82.7,655,83.3z"/>
		<path class="st8" d="M654.4,80.9c-0.5,0-0.8-0.2-0.8-0.7c0-0.8,0.4-1.3,1.2-1.5c0.4-0.1,0.8,0.2,0.8,0.7
			C655.6,80.2,655.1,80.7,654.4,80.9z"/>
		<path class="st8" d="M651.8,80.8c-0.2,0.8-0.8,1-1.5,1c-0.5,0-1-0.1-1-0.7c0.1-0.9,0.8-0.9,1.5-1
			C651.3,80.1,651.7,80.3,651.8,80.8z"/>
		<path class="st8" d="M760.1,30.1c-0.9-0.1-1.7-0.4-2.5-1c-1.3-0.9-2.3-2.1-3.3-3.3c-0.7-1-0.5-1.6,0.7-1.6
			c2.3,0.1,4.6,0.5,6.7,1.6c1,0.5,1.2,1.6,0.9,2.7C762.3,29.8,761.2,30,760.1,30.1z"/>
		<path class="st8" d="M756.1,21c-0.7,0-1.2-0.1-1.4-0.6c-0.3-0.5,0.1-0.9,0.4-1.2c1.4-1.5,2.6-3.1,4.5-3.9c1.2-0.6,2.3-0.3,3.1,0.7
			c0.9,1.1,0.8,2.1-0.4,2.9C760.3,20.1,758.1,20.5,756.1,21z"/>
		<path class="st8" d="M762.6,21.5c-0.5,0-1-0.2-1-0.7c0.1-0.9,0.9-1.1,1.6-1.3c0.5-0.1,1.1,0.1,1,0.8
			C764.3,21.3,763.3,21.2,762.6,21.5z"/>
		<path class="st8" d="M764.3,25c0,0.6-0.2,1-0.7,0.9c-0.8-0.1-1.4-0.6-1.6-1.4c-0.1-0.4,0.3-0.7,0.7-0.7
			C763.5,23.9,764,24.4,764.3,25z"/>
		<path class="st8" d="M759.8,23.3c-0.5,0-1.2-0.1-1.2-0.8c0-0.7,0.5-0.9,1.1-0.9s1.2,0.1,1.2,0.8C761,23.1,760.3,23.3,759.8,23.3z"
			/>
		<path class="st8" d="M738.4,65c0.3-0.7-0.5-2.1,0.6-2.4c1-0.3,1.6,0.8,2.1,1.6c0.8,1.2,1.8,2.3,2.5,3.6c0.8,1.3,0.3,2.7-0.9,3.4
			c-1,0.6-2.3,0.2-3.2-0.9C738.6,68.7,738.4,66.9,738.4,65z"/>
		<path class="st8" d="M749.2,63.6c-2.4-0.4-4.5-1.5-6.5-2.8c-0.9-0.6-0.7-1.6,0.3-1.7c2-0.3,4.1-0.7,6.1-0.1c1.4,0.4,2.2,1.6,2,3
			C751,63.1,750.5,63.7,749.2,63.6z"/>
		<path class="st8" d="M748.1,64.3c0.8,0.2,1.7,0.2,1.7,1.2c0,0.5-0.4,0.8-0.9,0.7c-0.7-0.1-1.6-0.3-1.7-1.2
			C747.1,64.5,747.6,64.3,748.1,64.3z"/>
		<path class="st8" d="M744.9,68.5c0-0.6,0.1-1.2,0.7-1.1c0.8,0.1,0.9,0.9,1,1.5c0.1,0.5-0.2,1.1-0.8,1
			C745,69.9,745,69.1,744.9,68.5z"/>
		<path class="st8" d="M700.4,92.8c0.1-0.6,0.3-1.1,1-0.9c0.8,0.3,0.7,1,0.6,1.7c-0.1,0.5-0.4,1-1,0.9
			C700.2,94.1,700.3,93.4,700.4,92.8z"/>
		<path class="st8" d="M745.8,64.7c0,0.6-0.2,1-0.7,0.9c-0.8-0.1-1.3-0.5-1.5-1.3c-0.1-0.5,0.3-0.8,0.7-0.8
			C745.2,63.6,745.5,64.2,745.8,64.7z"/>
		<path class="st8" d="M623.5,45.5c-1,0-1.8-0.7-2.1-1.9c-0.4-1.3,0.5-2.1,1.5-2.7c1.5-0.8,6.3,0,7.6,1.1c0.4,0.3,0.5,0.7,0.1,1
			c-0.2,0.2-0.4,0.4-0.7,0.6C629.4,44,624.3,45.5,623.5,45.5z"/>
		<path class="st8" d="M632.6,47.8c-0.5,1.9-0.7,4.1-2.1,5.9c-0.9,1.1-2.3,1.3-3.5,0.4c-1.2-0.9-0.9-1.9-0.3-2.9
			c1.1-1.7,2.6-3.1,4.1-4.4c0.4-0.3,0.9-0.5,1.4-0.3C632.6,46.8,632.6,47.2,632.6,47.8z"/>
		<path class="st8" d="M624.5,52c-0.5-0.1-0.9-0.4-0.7-1c0.2-0.8,0.7-1.5,1.6-1.5c0.4,0,0.8,0.4,0.6,0.8
			C625.8,51.2,625.4,51.9,624.5,52z"/>
		<path class="st8" d="M622.8,47.9c-0.7,0-1.4-0.1-1.4-0.9c0-0.5,0.4-0.8,0.9-0.7c0.6,0.1,1.6-0.1,1.6,0.9
			C624,47.8,623.4,47.9,622.8,47.9z"/>
		<path class="st8" d="M627.2,46.4c0.4,0.1,0.8,0.3,0.8,0.8c-0.1,0.9-0.8,1.1-1.5,1.2c-0.5,0-0.8-0.3-0.7-0.8
			C625.9,46.8,626.5,46.6,627.2,46.4z"/>
		<path class="st8" d="M628.2,4.2c-0.7,0.1-1.2-0.3-1.7-0.5c-1.5-0.5-3-0.9-4.3-1.7c-1.2-0.7-1.3-1.7-1-2.9c0-0.1,0-0.1,0.1-0.2h5
			c1.2,1.1,2.1,2.4,2.9,3.8C629.6,3.7,629.2,4.1,628.2,4.2z"/>
		<path class="st8" d="M626.3,7.3c0.7-0.1,1.4,0.1,1.7,0.7s-0.4,1-0.8,1.3c-1.5,1.2-2.9,2.5-4.8,3.1c-1.1,0.3-2,0.1-2.7-0.8
			c-1.1-1.3-0.9-2.6,0.7-3.3C622.2,7.6,624.3,7.5,626.3,7.3z"/>
		<path class="st8" d="M621,6.6c-0.2,0.9-1,0.9-1.6,1.1c-0.5,0.1-1.1-0.1-1.1-0.7c0-1,0.9-1,1.6-1C620.4,5.9,620.9,6,621,6.6z"/>
		<path class="st8" d="M621.2,2.8c0,0.5-0.3,0.9-0.7,0.8c-0.8-0.1-1.2-0.6-1.4-1.4c-0.1-0.5,0.1-0.8,0.6-0.8
			C620.6,1.4,620.9,2.1,621.2,2.8z"/>
		<path class="st8" d="M623.2,4.5c0.6,0,1.2,0.2,1.1,0.9c0,0.6-0.5,0.8-1.1,0.7c-0.6-0.1-1.3-0.2-1.2-1
			C622.1,4.5,622.7,4.4,623.2,4.5z"/>
		<path class="st3" d="M637,18.6c-0.8-2.3-1.6-4.6-2.8-6.7c-0.1-0.3-0.2-0.6-0.2-0.9c0-0.3,0-0.6,0.4-0.7c0.3-0.1,0.5,0.1,0.6,0.4
			C636.2,13.1,637.6,15.6,637,18.6z"/>
		<path class="st3" d="M641.3,15.4c0.8,1,1.3,1.8,0.9,3.3C641.7,17.5,640.9,16.8,641.3,15.4z"/>
		<path class="st3" d="M694.1,18.5c-0.2-1.6-1.3-2.8-1.3-4.5c0.1-1.6,0.6-2.6,2.2-3c1.9-0.5,3.6-1.3,4.9-2.8c1.1-1.2,3-1.1,4,0.1
			c1.6,1.9,3.9,2,6.1,2.3c1.2,0.1,1.9,0.6,2.2,1.7c0.4,1.8,1.9,2.8,3,4.1c0.5,0.6,1,1.2,1.5,1.7c0.4,0.4,0.5,0.8,0.2,1.3
			c-0.6,1.1-0.4,2.1,0.1,3.2c0.9,1.9,1,3.8,0.2,5.8c-1.1,2.8-3.9,4-6.6,2.7c-2.5-1.1-4.9-1.8-7.6-1.2c-0.5,0.1-1.1,0.2-1.4,0.4
			c-1.9,1.5-4.3,1.5-6.7,2.1c0.6-1.6,1.9-2.4,3.2-3.1c2.2-1.1,4.6-1.4,7.1-1.4c2.1,0,4.1-0.4,6-1.3c1.6-0.8,2.4-2,2.4-3.9
			c-0.1-2.4-0.6-4.5-2.6-6.1c-0.8-0.7-1.4-1.5-0.9-2.6c0.2-0.6,0-1.1-0.6-1c-1.5,0.3-2.6-0.6-3.8-1.3c-2.4-1.5-5-1.7-7.7-0.9
			c-1.2,0.4-2.2,1.2-3,2.2s-1.2,2.1-0.5,3.4C694.9,17.3,695,18,694.1,18.5L694.1,18.5z"/>
	</g>
	<polygon class="st10" points="727.3,-0.7 603.3,109.5 603.3,-0.7 	"/>
</g>
<g>
	<path class="st11" d="M246.1,243.5h-74.8l3.4-10c3.8-11.1,5.9-22.7,6.3-34.4l0.2-6.5h55l0.2,7.7c0.3,10.9,2.3,21.6,5.8,31.8
		L246.1,243.5z"/>
	
		<linearGradient id="SVGID_1_" gradientUnits="userSpaceOnUse" x1="208.7314" y1="18.2903" x2="208.7314" y2="69.1255" gradientTransform="matrix(1 0 0 -1 0 262)">
		<stop  offset="0" style="stop-color:#434041;stop-opacity:0.2"/>
		<stop  offset="1" style="stop-color:#000000"/>
	</linearGradient>
	<path class="st12" d="M246.1,243.7h-74.8l3.4-10c3.8-11.1,5.9-22.7,6.3-34.4l0.2-6.5h55l0.2,7.7c0.3,10.9,2.3,21.6,5.8,31.8
		L246.1,243.7z"/>
	<g>
		<path class="st13" d="M349.2,23.1v167.4H68.4V23.1c0-6.9,5.6-12.5,12.5-12.5h255.7C343.6,10.7,349.2,16.3,349.2,23.1z"/>
		<rect x="89.3" y="29.5" class="st14" width="239" height="147.2"/>
		<g>
			<path class="st15" d="M328.1,32.3v142.1h-6.5c-10.6,0-10.6-3.7-10.6-8.3V40.5c0-4.5,1.4-8.3,10.6-8.3L328.1,32.3L328.1,32.3z"/>
			<ellipse class="st16" cx="319.4" cy="65" rx="5.9" ry="6.4"/>
			<ellipse class="st17" cx="319.4" cy="83" rx="5.9" ry="6.4"/>
			<ellipse class="st18" cx="319.4" cy="101.3" rx="5.9" ry="6.4"/>
			<rect x="319.8" y="40.5" class="st19" width="5.7" height="12.5"/>
			<rect x="313.8" y="40.5" class="st20" width="6" height="12.5"/>
		</g>
		<path class="st21" d="M349.2,190.6v12.6c0,6.9-5.6,12.5-12.5,12.5H80.8c-6.9,0-12.5-5.6-12.5-12.5v-12.6H349.2z"/>
		<rect x="91.9" y="32.8" class="st22" width="215" height="140.2"/>
		<circle class="st23" cx="95.9" cy="36.6" r="1.8"/>
		<circle class="st24" cx="101.7" cy="36.6" r="1.8"/>
		<circle class="st25" cx="107.5" cy="36.6" r="1.8"/>
		<rect x="99.8" y="45.1" class="st26" width="33.9" height="4.6"/>
		<rect x="135.2" y="45.1" class="st27" width="33.9" height="4.6"/>
		<rect x="170.6" y="45.1" class="st27" width="33.9" height="4.6"/>
		<polygon class="st28" points="302.5,51.5 302.5,55.3 103,55.3 103,173.3 99.4,173.3 99.4,51.5 		"/>
		<g>
			<rect x="103" y="55.7" class="st29" width="195.5" height="113.8"/>
		</g>
		<rect x="103" y="169.5" class="st30" width="195.6" height="3.8"/>
		<rect x="298.8" y="55.4" class="st30" width="3.7" height="113.8"/>
		<rect x="109.9" y="61.2" class="st31" width="180.6" height="103"/>
		<g class="st32">
			<path class="st33" d="M68.4,22.2c-0.1-2.6,1.2-5.4,3.4-7.7c2.3-2.4,5.3-3.8,8-3.8h100.6L68.3,126L68.4,22.2L68.4,22.2z"/>
			<path class="st33" d="M179.3,11.2L68.8,124.8V22.1c-0.1-2.4,1.2-5.2,3.3-7.4c2.2-2.3,5.1-3.6,7.7-3.6L179.3,11.2 M181.7,10.2
				H79.9c-6.2,0-12.2,6.3-12,12v105.1L181.7,10.2L181.7,10.2z"/>
		</g>
	</g>
</g>
<rect x="30" y="243" class="st34" width="357.1" height="19"/>
</svg>
