<?xml version="1.0" encoding="utf-8"?>
<!-- Generator: Adobe Illustrator 21.1.0, SVG Export Plug-In . SVG Version: 6.00 Build 0)  -->
<svg version="1.1" id="Layer_1" xmlns="http://www.w3.org/2000/svg" xmlns:xlink="http://www.w3.org/1999/xlink" x="0px" y="0px"
	 viewBox="0 0 612 610.9" style="enable-background:new 0 0 612 610.9;" xml:space="preserve">
<style type="text/css">
	.st0{fill:#CC796C;}
	.st1{fill:#FCCBB0;}
</style>
<g id="brownLeg">
	<path class="st0" d="M272.1,598l-196-196c-14.7-14.7-14.7-38.7,0-53.4l213.3-212.9c14.7-14.7,33.3-9.3,48,5.4l0,0L141.1,337.3
		c-14.7,14.7-20.1,44-5.4,58.8l202.9,201.6v0.4C323.9,612.9,290.8,616.7,272.1,598z"/>
</g>
<g id="greyLeg">
	<path class="st1" d="M340.3,14.5l256.1,256.1c19.2,19.2,19.2,50.5,0,69.8L340.3,596.5c-19.2,19.2-50.5,19.2-69.8,0V596l255.6-255.6
		c19.2-19.2,19.2-50.5,0-69.8L270.5,15v-0.5C289.8-4.8,321-4.8,340.3,14.5z"/>
</g>
<g id="pinkLeg">
	<path class="st1" d="M14.4,270.6L270.5,14.5c19.2-19.2,50.5-19.2,69.8,0l256.1,256.1c19.2,19.2,19.2,50.5,0,69.8h-0.5L340.3,84.8
		c-19.2-19.2-50.5-19.2-69.8,0L15,340.4h-0.5C-4.8,321.1-4.8,289.8,14.4,270.6z"/>
</g>
<g id="brownBox">
	<path class="st0" d="M301.4,403.2L183.1,284.9c-11.9-11.9-11.9-31.5,0-43.5l105.6-105.6c11.9-11.9,31.5-11.9,43.5,0L450.4,254
		c11.9,11.9,11.9,31.5,0,43.5L344.8,403.2C332.9,415.1,313.3,415.1,301.4,403.2z"/>
</g>
<g id="name">
</g>
<g id="name_1_">
</g>
<g id="name_2_">
</g>
</svg>
