<?xml version="1.0" encoding="utf-8"?>
<!-- Generator: Adobe Illustrator 21.0.0, SVG Export Plug-In . SVG Version: 6.00 Build 0)  -->
<svg version="1.1" xmlns="http://www.w3.org/2000/svg" xmlns:xlink="http://www.w3.org/1999/xlink" x="0px" y="0px"
	 viewBox="0 0 1056 1058" style="enable-background:new 0 0 1056 1058;" xml:space="preserve">
<style type="text/css">
	.st0{fill:#4E4240;}
	.st1{fill:#D7666F;}
</style>
<g id="greyLeg">
	<path class="st0" d="M587.2,26.6l441.9,441.9c33.2,33.2,33.2,87.1,0,120.4l-441.9,441.9c-33.2,33.2-87.1,33.2-120.4,0v-0.9l441-441
		c33.2-33.2,33.2-87.1,0-120.4l-441-441v-0.9C500.1-6.7,553.9-6.7,587.2,26.6z"/>
</g>
<g id="pinkLeg">
	<path class="st1" d="M24.9,468.5L466.8,26.6c33.2-33.2,87.1-33.2,120.4,0l441.9,441.9c33.2,33.2,33.2,87.1,0,120.4h-0.9l-441-441
		c-33.2-33.2-87.1-33.2-120.4,0l-441,441h-0.9C-8.3,555.6-8.3,501.7,24.9,468.5z"/>
</g>
<g id="brownLeg">
	<path class="st0" d="M469.5,1033.4L131.3,695.2c-25.4-25.4-25.4-66.7,0-92.1l368-367.3c25.4-25.4,57.4-16.1,82.8,9.3l0,0
		L243.4,583.7c-25.4,25.4-34.7,76-9.3,101.4L584.2,1033v0.7C558.8,1059.1,501.8,1065.7,469.5,1033.4z"/>
</g>
<g id="brownBox">
	<path class="st0" d="M520,697.3l-204-204c-20.6-20.6-20.6-54.4,0-75l182.2-182.2c20.6-20.6,54.4-20.6,75,0l204,204
		c20.6,20.6,20.6,54.4,0,75L595,697.3C574.4,717.9,540.6,717.9,520,697.3z"/>
</g>
<g id="name">
</g>
</svg>
