<?xml version="1.0" encoding="utf-8"?>
<!-- Generator: Adobe Illustrator 21.1.0, SVG Export Plug-In . SVG Version: 6.00 Build 0)  -->
<svg version="1.1" id="Layer_1" xmlns="http://www.w3.org/2000/svg" xmlns:xlink="http://www.w3.org/1999/xlink" x="0px" y="0px"
	 viewBox="0 0 900 262" style="enable-background:new 0 0 900 262;" xml:space="preserve">
<style type="text/css">
	.st0{fill:#007978;stroke:#007978;stroke-linecap:round;stroke-linejoin:round;stroke-miterlimit:10;}
	.st1{fill:#C8C8C8;}
	.st2{fill:url(#SVGID_1_);}
	.st3{stroke:#000000;stroke-width:0.9714;stroke-miterlimit:10;}
	.st4{fill:#D6666F;stroke:#D6666F;stroke-width:0.9902;stroke-miterlimit:10;}
	.st5{opacity:0.5;fill:#EBEAE4;stroke:#EBEAE4;stroke-width:1.0432;stroke-miterlimit:10;enable-background:new    ;}
	.st6{fill:#CCCCCC;stroke:#404040;stroke-width:0.9902;stroke-miterlimit:10;}
	.st7{fill:#2AA8C6;stroke:#FFFFFF;stroke-width:0.9902;stroke-miterlimit:10;}
	.st8{fill:#FFFFFF;stroke:#ED2F65;stroke-width:0.9902;stroke-miterlimit:10;}
	.st9{fill:#FFFFFF;stroke:#FFFFFF;stroke-width:1.0432;stroke-miterlimit:10;}
	.st10{fill:#83D2E5;stroke:#83D2E5;stroke-width:1.0432;stroke-miterlimit:10;}
	.st11{fill:#C8C8C8;stroke:#C8C8C8;stroke-width:0.9226;stroke-miterlimit:10;}
	.st12{fill:#565656;stroke:#565656;stroke-width:0.9226;stroke-miterlimit:10;}
	.st13{fill:#FF0000;stroke:#FF0000;stroke-width:0.4569;stroke-miterlimit:10;}
	.st14{fill:#FADA00;stroke:#FADA00;stroke-width:0.4569;stroke-miterlimit:10;}
	.st15{fill:#55DA00;stroke:#55DA00;stroke-width:0.4569;stroke-miterlimit:10;}
	.st16{fill:#737373;stroke:#737373;stroke-width:0.9226;stroke-miterlimit:10;}
	.st17{fill:#3C3C3C;stroke:#3C3C3C;stroke-width:0.9714;stroke-miterlimit:10;}
	.st18{fill:#282828;}
	.st19{fill:#8C8C8C;}
	.st20{fill:#3C3C3C;}
	.st21{fill:#FFFFFF;stroke:#000000;stroke-width:0.4613;stroke-miterlimit:10;}
	.st22{opacity:0.3;}
	.st23{fill:#FFFFFF;}
	.st24{fill:#4D4240;stroke:#4D4240;stroke-width:1.167;stroke-linecap:round;stroke-linejoin:round;stroke-miterlimit:10;}
	.st25{fill:#7B8689;stroke:#7B8689;stroke-miterlimit:10;}
	.st26{fill:#ED849A;}
	.st27{fill:#D9C3FF;}
	.st28{fill:#5D5E87;}
	.st29{fill:#030303;}
	.st30{fill:#B80014;}
	.st31{fill:#0C3E14;}
	.st32{fill:#B80114;}
	
		.st33{opacity:0.3;fill:#FFFFFF;stroke:#FFFFFF;stroke-width:1.3028;stroke-linecap:round;stroke-miterlimit:10;enable-background:new    ;}
	.st34{fill:#4D4240;stroke:#4D4240;stroke-width:1.3072;stroke-miterlimit:10;}
</style>
<rect x="0.3" class="st0" width="899.5" height="261.6"/>
<g>
	<path class="st1" d="M246.2,242.5h-74.8l3.4-10c3.8-11.1,5.9-22.7,6.3-34.4l0.2-6.5h55l0.2,7.7c0.3,10.9,2.3,21.6,5.8,31.8
		L246.2,242.5z"/>
	
		<linearGradient id="SVGID_1_" gradientUnits="userSpaceOnUse" x1="208.7394" y1="19.2903" x2="208.7394" y2="70.1255" gradientTransform="matrix(1 0 0 -1 0 262)">
		<stop  offset="0" style="stop-color:#434041;stop-opacity:0.2"/>
		<stop  offset="1" style="stop-color:#000000"/>
	</linearGradient>
	<path class="st2" d="M246.2,242.7h-74.8l3.4-10c3.8-11.1,5.9-22.7,6.3-34.4l0.2-6.5h55l0.2,7.7c0.3,10.9,2.3,21.6,5.8,31.8
		L246.2,242.7z"/>
	<g>
		<path class="st3" d="M349.2,22.1v167.4H68.4V22.1c0-6.9,5.6-12.5,12.5-12.5h255.7C343.6,9.7,349.2,15.3,349.2,22.1z"/>
		<rect x="89.3" y="28.5" class="st4" width="239" height="147.2"/>
		<g>
			<path class="st5" d="M328.1,31.3v142.1h-6.5c-10.6,0-10.6-3.7-10.6-8.3V39.5c0-4.5,1.4-8.3,10.6-8.3L328.1,31.3L328.1,31.3z"/>
			<ellipse class="st6" cx="319.4" cy="64" rx="5.9" ry="6.4"/>
			<ellipse class="st7" cx="319.4" cy="82" rx="5.9" ry="6.4"/>
			<ellipse class="st8" cx="319.4" cy="100.3" rx="5.9" ry="6.4"/>
			<rect x="319.8" y="39.5" class="st9" width="5.7" height="12.5"/>
			<rect x="313.8" y="39.5" class="st10" width="6" height="12.5"/>
		</g>
		<path class="st11" d="M349.2,189.6v12.6c0,6.9-5.6,12.5-12.5,12.5H80.8c-6.9,0-12.5-5.6-12.5-12.5v-12.6H349.2z"/>
		<rect x="91.9" y="31.8" class="st12" width="215" height="140.2"/>
		<circle class="st13" cx="95.9" cy="35.6" r="1.8"/>
		<circle class="st14" cx="101.7" cy="35.6" r="1.8"/>
		<circle class="st15" cx="107.5" cy="35.6" r="1.8"/>
		<rect x="99.8" y="44.1" class="st16" width="33.9" height="4.6"/>
		<rect x="135.3" y="44.1" class="st17" width="33.9" height="4.6"/>
		<rect x="170.6" y="44.1" class="st17" width="33.9" height="4.6"/>
		<polygon class="st18" points="302.5,50.5 302.5,54.3 103,54.3 103,172.3 99.4,172.3 99.4,50.5 		"/>
		<g>
			<rect x="103.1" y="54.7" class="st19" width="195.5" height="113.8"/>
		</g>
		<rect x="103.1" y="168.5" class="st20" width="195.6" height="3.8"/>
		<rect x="298.8" y="54.4" class="st20" width="3.7" height="113.8"/>
		<rect x="109.9" y="60.2" class="st21" width="180.6" height="103"/>
		<g class="st22">
			<path class="st23" d="M68.4,21.2c-0.1-2.6,1.2-5.4,3.4-7.7c2.3-2.4,5.3-3.8,8-3.8h100.6L68.3,125L68.4,21.2L68.4,21.2z"/>
			<path class="st23" d="M179.3,10.2L68.8,123.8V21.1c-0.1-2.4,1.2-5.2,3.3-7.4c2.2-2.3,5.1-3.6,7.7-3.6L179.3,10.2 M181.7,9.2H79.9
				c-6.2,0-12.2,6.3-12,12v105.1L181.7,9.2L181.7,9.2z"/>
		</g>
	</g>
</g>
<g>
	<rect x="560.3" y="-0.4" class="st24" width="215.2" height="138.6"/>
	<rect x="579.8" y="-0.4" class="st25" width="176.3" height="119"/>
	<g>
		<path d="M628.5-0.7H628h-0.3h-0.4h-0.6h-0.5h-15.4h-1.5h-2h-0.9h-3.7h-5H595h-1.4c-2.4,7.8-3.5,16.2-3.3,25
			c1.2,41.3,34.8,74.4,76.8,74.6c43.2,0.2,77.5-34.9,77.4-77c0-7.9-1.2-15.5-3.4-22.6h-1.6h-14.6h-1.4h-64.7h-3.7h-7.6h-1.4h-0.9
			H644h-7.5h-0.8h-2.3h-0.7H632h-0.3h-0.6h-0.4h-0.8h-0.4C629.5-0.7,628.5-0.7,628.5-0.7z"/>
		<path class="st26" d="M608.2,8.5c0.5-3.2,1.4-6.2,2.6-9.2h15.9c-0.2,0.3-0.5,0.5-0.7,0.7c-1.2,0.8-1.4,2-1,3.2
			c0.4,1.1,0.4,2-1.1,2.2c-0.3,0-0.6,0.2-0.8,0.5c-1.4,2.3-3.5,4.1-3.9,7c-0.1,0.5-0.3,0.7-0.7,0.9c-0.3,0.1-0.6,0.2-0.8,0.3
			c-2.3,1.2-2.4,1.2-3.3-1.4c-0.3-0.8-0.6-1.6-1-2.4c-0.9-1.6-1.6-1.9-3.5-1.3C608.7,9.4,608.7,9.4,608.2,8.5z"/>
		<path class="st26" d="M645.2-0.7H644h-7.5h-0.8c-0.6,0.5-1.5,0.5-2.3,0h-0.7H632h-0.3c0.1,0.5,0.5,0.9,0.8,1.4
			c0.8,1.1,0.6,1.7-0.8,2c-0.8,0.1-1.3,0.5-1.4,1.3c0,0.2-0.1,0.5-0.2,0.7c-0.1,0.1-0.2,0.2-0.3,0.2h-0.1c-0.6,0-0.8-0.6-1.1-1
			c-0.3-0.6-0.6-1.2-0.9-1.7c-0.2-0.4-0.5-0.8-1.1-0.7c-0.6,0.2-0.6,0.8-0.5,1.3c0.3,1.1,0.7,2.2,1.2,3.3c0.2,0.6,0.5,1.2,0.5,1.9
			c0,0.5,0,1.1-0.5,1.3c-0.6,0.3-1-0.2-1.5-0.5c-0.3-0.3-0.5-0.7-0.7-1s-0.4-0.9-1-0.6c-0.5,0.2-0.5,0.7-0.4,1.2
			c0.2,1.1,0.7,2,1.1,3c0.2,0.4,0.5,0.7,0.2,1.2c-0.8-0.5-1-1.3-1.5-2c-0.2-0.4-0.5-0.9-1-0.8c0,0,0,0-0.1,0h-0.1
			c-0.5,0.2-0.4,0.8-0.3,1.3c0.2,1.1,0.6,2.1,1.1,3.2c0.2,0.4,0.7,0.8,0.5,1.6c-1.1-1-1.4-2.2-2-3.2c-0.1-0.3-0.2-0.8-0.7-0.7
			c0,0,0,0-0.1,0h-0.1c-0.5,0.2-0.5,0.6-0.4,1c0.1,0.9,0.3,1.7,0.6,2.5c0.5,1.3,1,2.5,1,3.9c0,1.1-0.4,1.9-1.6,2
			c-0.5,0.1-0.9,0.3-1.2,0.7c-0.9,1.5-1.3,2.1-1.1,2.7c0,0.1,0,0.1,0.1,0.2c0.3,0.4,0.9,0.9,1.9,1.6c3.6,2.6,6.4,6,9.1,9.5
			c2,2.5,3.5,5.3,4.1,8.5c0.1,0.5,0.3,1.1,0.2,1.7c-0.3,2.2-2.3,3.1-4.3,2c-1.1-0.6-1.8-1.8-3.1-2.2l0,0c-0.1,0-0.2,0-0.2,0
			c-0.8-0.2-1.4-0.6-1.8-1.3c-3-4.7-6.6-9.1-8.3-14.6c-0.1-0.5-0.4-1-1-1c-0.5,0-0.6,0.6-0.8,1c-0.3,0.7-0.5,1.4-1.5,1.1
			c-0.9-0.3-1-1.1-0.8-1.9c0.4-1.4,0.4-2.9,1.2-4.2c0.2-0.3,0.3-0.7,0.2-1c-0.9-3.1-1.7-6.2-3.1-9c-0.5-1.1-1-2-0.7-3.3v-0.1
			c0.1-0.4,0-0.6,0-0.9c-0.2-0.6-0.7-0.9-1.5-0.9c-0.1,0.2-0.2,0.4-0.2,0.6c-1.2,7.3-1.2,14.5,0.2,21.8c4.9,26.3,27.4,46.8,54,48.8
			c21.4,1.6,39.1-5.9,52.6-22.6c11.5-14.3,15.4-30.9,12-49c-0.7-3.6-1.7-7-2.9-10.3h-64.7H655h-7.6H646C646-0.7,645.2-0.7,645.2-0.7
			z"/>
		<path class="st27" d="M699.5,90.3c-12.6,6-25.8,8.2-40.1,6.9c3.8-3.1,4.7-7.6,7.4-11.1c1.6-2.1,3.8-3.3,6.3-3.6
			c3-0.4,5.9-0.7,8.8-1.6c2.7-0.8,4.7,0.1,6.7,1.8c2.1,1.8,4.3,3.6,6.4,5.3C696.3,89,697.8,89.8,699.5,90.3z"/>
		<path class="st28" d="M711.1,64.3c-1,4-0.1,7.3,1.2,10.6c0.6,1.5,0.9,3.1,1.2,4.7c0.3,1.3,0,2.4-1.3,3.3c-2.7,1.8-5.4,3.5-8.2,5.2
			c-2.6,1.6-4.9,1.2-7.3-0.2c-2.5-1.6-4.7-3.6-6.9-5.5c-1.2-1-2.2-2-4-2.6C695.6,76.6,703.8,71.6,711.1,64.3z"/>
		<path class="st26" d="M633.1,44.9c0.3,1.3-0.2,2.6-1.2,3.2c-1.2,0.7-2.1,0.1-3-0.5c-2.4-1.7-3.9-4.2-5.6-6.5
			c-4-5.2-6.1-11.3-8.4-17.3c-0.5-1.2-0.4-2.5-0.3-3.8c0.2-3-0.5-5.7-1.8-8.4c-0.2-0.4-0.3-0.8-0.6-1.1c-0.4-0.5-0.8-0.8-1.5-0.6
			c-0.6,0.2-0.8,0.7-0.8,1.3c-0.1,0.8,0.2,1.5,0.6,2.2c1.6,2.9,2.3,6,3.4,9.1c0.4,1.1-0.1,2.3-0.2,3.5c-0.2,1.2-0.6,2.3-0.6,3.5
			c0.6-1,0.6-2.1,0.9-3.1c0.1-0.4,0.1-0.9,0.6-1h0.1c0,0,0,0,0.1,0c0.5,0,0.6,0.5,0.8,0.8c1,2.2,1.7,4.4,2.5,6.7
			c1.4,3.6,4.1,6.4,5.9,9.7c0.7,1.2,1.8,2.1,2.3,3.5c0,0.1,0.1,0.2,0.1,0.3c-1.3-0.1-2.1-0.7-2.8-1.8c-1.2-2.1-2.5-4.1-4-6.1
			c-1.8-2.5-3-5.2-4-8.1c-0.2-0.4-0.2-0.9-0.7-1.1c-0.4,0.3-0.4,0.8-0.5,1.2c-0.1,1-0.7,1.5-1.7,1.3c-1-0.1-1.5-0.9-1.4-1.8
			c0.2-1.4,0.3-3.1,1-4.2c1-1.5,0.2-2.7-0.2-3.9c-0.9-2.7-1.4-5.6-3.1-8c-0.3-0.5-0.2-1.1,0-1.6c0.3-1.1,0.1-2-1.1-2.4
			c0-0.5,0-1.1,0.3-1.6c0.5,0.7,1,0.5,1.6,0.2c1.5-0.8,2.9-0.4,3.6,1.1c0.8,1.6,1.5,3.3,2.2,4.9c1.1-0.2,1.6-1.5,2.8-1.4
			c0.1,0,0.3-0.2,0.3-0.3c-0.5-2,1.6-2.9,1.8-4.7c0-0.4,0.3-0.7,0.7-0.9c0.6-0.2,0.9-0.6,1.1-1.3c0.2-0.8,0.9-1.2,1.7-1.3
			c1,0,0.9-0.5,0.7-1.2c-0.6-1.7-0.6-3.2,1.2-4.2c0.1-0.1,0.2-0.2,0.4-0.3h1.5c-0.2,0.7-0.6,1.2-1.2,1.6c-0.7,0.4-0.8,1.1-0.6,1.9
			c0.2,1.2,0.7,2.3,1.1,3.5c0.2,0.4,0.3,0.7,0.4,1.1c0,0.4,0.1,0.9-0.3,1.1c-0.4,0.2-0.7-0.2-1-0.5c-0.1-0.2-0.2-0.3-0.3-0.5
			c-0.3-0.5-0.6-1.1-1.3-1.1c-0.8,0-0.7,0.9-1,1.4c-0.6,1-1.5,1.8-2.2,2.7c-1.2,1.5-1.1,3-0.7,4.5c0.2,0.8,0.6,1.5,0.8,2.3
			c0.1,0.5,0.3,1,0.3,1.5c0,0.8,0.1,2-1,2c-1.2,0-0.9-1.1-0.9-1.9c0-1.2-0.2-2.2-0.9-3.2c-0.3-0.4-0.6-0.7-1.1-0.6
			c-0.4,0.2-0.5,0.6-0.5,1c-0.1,1.1,0.3,2,0.8,2.9c1.3,2.3,1.3,3-0.5,5c-0.7,0.8-0.5,1.2,0.3,1.6c5.9,3,9.5,8.2,13.1,13.4
			C632.1,40.9,632.6,42.9,633.1,44.9z"/>
		<path class="st26" d="M629.4-0.7h0.4c0.1,0.2,0.2,0.3,0.3,0.5c0.4,0.5,0.7,1.3,1.5,1.6c0-0.7-0.5-1.2-0.8-1.7
			c-0.1-0.1-0.1-0.3-0.2-0.4h0.4h0.6h0.3c0.1,0.4,0.3,0.6,0.6,0.9c0.8,0.6,1,1.3,0.8,2.1c-0.2,0.9-1.1,0.8-1.8,0.8
			c-0.6,0-0.9,0.1-0.8,0.9c0,0.6-0.3,1.1-0.8,1.5c-0.1-0.2-0.2-0.4-0.3-0.6c-0.5-1-0.9-2-1.4-3c-0.2-0.4-0.3-0.7-0.4-1.2
			c0-0.5-0.1-1,0.1-1.5h0.5L629.4-0.7L629.4-0.7z"/>
		<path class="st26" d="M636.5-0.7c-0.3,0.4-0.8,0.7-1.4,0.7c-1,0.1-1.7-0.1-2.4-0.7H636.5z"/>
		<path class="st28" d="M668.5,82.7c-3.3,2.5-4.7,6-6.5,9.3c-0.5,0.8-1,1.7-1.6,2.4c-1.4,1.8-3.1,3-5.6,2.1c-1.5-0.5-3.1-0.8-4.8-1
			c-3.8-0.4-5.1-3.1-6-6.2c-0.6-2-0.3-4-0.5-6c-0.2-1.9-0.6-3.8-1.3-5.9C650.7,81.1,659.3,82.8,668.5,82.7z"/>
		<path class="st27" d="M612.9,74.5c3.7,0.2,6.7-1.2,9.7-2.2c4.1-1.5,7.9-1.7,11.7,1c1.1,0.8,2.3,1.6,3.5,2c3.2,1.1,3.9,3.6,4.4,6.5
			c0.2,1.4,0.3,2.9,0.4,4.4c0.1,2.8,0.6,5.4,2.1,7.9C632.5,90.3,622.1,83.8,612.9,74.5z"/>
		<path class="st28" d="M739.5-0.7c0.1,1.8-0.3,3.6-1.3,5.1c-1.5,2.2-2.7,4.6-4.4,6.7c-1.7,2-3.2,4.1-5,6.3
			c-0.4-5.4-1.3-10.6-3-15.6c-0.3-0.8-0.6-1.6-0.9-2.4h14.6V-0.7z"/>
		<path class="st27" d="M740,43.5c-1.3-3.7-3.7-6-6.1-8.4c-1.6-1.6-3-3.4-4.2-5.3c-0.7-1-0.9-2.1-0.9-3.3c0-4.8,0.9-9.1,4.4-12.8
			c2.9-3,5-6.6,6.8-10.3c0.1-0.3,0.2-0.7,0.6-0.6c0.5,0.1,0.4,0.7,0.5,1c1.6,6.7,2.4,13.5,2.1,20.3C742.9,30.6,742,36.9,740,43.5z"
			/>
		<path class="st28" d="M629.4,70.1c-4.4-0.6-8,1.6-11.9,2.7c-4.1,1.2-5.7,0.8-8.4-2.5c-0.6-0.7-1.2-1.5-1.8-2.2
			c-2.3-2.8-2.3-4.1-0.5-7.6c1-2,2.2-4,3.8-5.7c1.1-1.2,1.6-2.7,2.3-4.3C617.2,58.1,622.6,64.6,629.4,70.1z"/>
		<path class="st28" d="M609.2-0.7c-0.3,0.8-0.6,1.6-0.9,2.5c-0.3-0.9-0.7-1.7-1.1-2.5C607.2-0.7,609.2-0.7,609.2-0.7z"/>
		<path class="st27" d="M714.8,80.9c-0.1-3.1-1-5.7-2-8.2c-1.2-2.9-1.2-5.8-0.3-8.8c1.7-5.5,7.1-9.3,13.2-9.4
			c3.4-0.1,6.8,0.3,10.3-0.6C730.9,64.6,724,73.4,714.8,80.9z"/>
		<path class="st28" d="M728.2,29.8c2.3,3.9,5.2,6.5,7.9,9.4c1.4,1.5,2.2,3.2,2.9,5.1c0.3,0.9,0.2,1.8-0.1,2.7
			c-0.4,1.1-1,2.1-1.2,3.2c-0.5,2.2-2,2.8-4,3c-1.8,0.2-3.6,0.3-5.4,0.3c-3,0-6.1-0.3-9,1C723.8,46.9,726.8,38.9,728.2,29.8z"/>
		<path class="st28" d="M608.2,39.5c-2.6-1.8-5.3-3-8.2-3.9c-2.4-0.7-4.6-1.7-6.6-3.4c-0.9-0.7-1.5-1.7-1.5-2.9
			c-0.1-1.8-0.3-3.6-0.3-5.4c0-1,0.4-1.8,1.1-2.6c1.6-1.6,3.5-2.8,5.6-3.5c2.6-0.8,5.1-1.8,7.5-3.8
			C604.9,22.9,605.7,31.2,608.2,39.5z"/>
		<path class="st27" d="M592.4,32.9c2.8,2.2,5.7,3.3,8.8,4.2c4.5,1.3,7.6,4.1,9.6,8.5c1.5,3.4,1,6-1.2,8.6c-2.3,2.8-4.3,5.7-5.2,9.7
			C598,54.5,594.1,44.3,592.4,32.9z"/>
		<path class="st27" d="M607.4,4.8c-0.4,1.7-0.8,3.5-0.9,5.2c-0.1,2.4-1.7,3.7-3.5,4.7c-1.4,0.8-2.8,1.4-4.3,1.9
			c-2.6,0.7-4.9,2.1-7.1,4.3c0.2-7.5,1.3-14.7,3.4-21.6h11.3C607.3,0.9,607.8,2.6,607.4,4.8z"/>
		<path class="st29" d="M629.4-0.7L629.4-0.7h1.7c0.1,0.2,0.2,0.5,0.4,0.7c0.2,0.4,0.5,0.8,0.7,1.2c0.2,0.3,0.3,0.7-0.1,1
			c-0.4,0.3-0.8,0.2-1-0.2C630.5,1,630,0.1,629.4-0.7z"/>
		<path class="st29" d="M634,45.8c0.1,1.4-0.5,2.5-1.7,3.2s-2.4,0.3-3.4-0.4c-0.9-0.6-1.7-1.4-2.6-2.1c-0.1-0.1-0.2-0.3-0.3-0.4
			c-2.4-2.9-4.3-6.3-6.5-9.4c-2.3-3.3-3-7.3-4.8-11.2c0,0,0,0,0-0.1c0,0,0,0,0,0.1c-0.4,1.6-0.8,3-1.1,4.5c-0.1,0.4-0.1,0.9-0.6,0.8
			c-0.6-0.1-0.6-0.6-0.5-1.1c0.4-1.9,1-3.7,1.1-5.7c0-0.4,0.1-0.9,0-1.3c-1.1-2.9-1.7-6.1-3.2-8.8c-0.4-0.6-0.7-1.3-0.8-2
			c0-0.2-0.1-0.5,0-0.7c0-0.1,0-0.1,0-0.2c0.1-0.8,0.4-1.3,1.2-1.5s1.5,0.1,1.8,0.8c1.2,2.4,2.6,4.8,2.5,7.5
			c-0.3,7.5,3,13.8,6.7,19.9c1.1,1.8,2.4,3.5,3.5,5.3c1.1,1.7,2.5,3.1,4,4.3c0.8,0.6,1.6,1.1,2.6,0.6c1.1-0.6,1.3-1.7,1-2.8
			c-0.6-2.2-1.2-4.4-2.5-6.3c-1.8-2.7-3.8-5.1-6-7.4c-2.1-2.2-4.2-4.3-7.1-5.5c-1-0.4-0.8-1-0.2-1.6c2-2,2.1-2.4,0.7-4.9
			c-0.6-1.1-1.1-2.2-0.9-3.5c0.1-0.6,0.3-1.1,1-1.2c0.6-0.2,1,0.2,1.4,0.7c0.9,1.3,1.3,2.7,1.1,4.3c0,0.4-0.2,1,0.5,1.1
			c0.7,0,0.7-0.5,0.7-1.1c0.1-1.4-0.5-2.6-1-3.8c-0.4-1.1-0.7-2.2-0.6-3.4c0-0.6,0.1-1.3,0.7-1.6c0.7-0.3,0.9-0.7,0.9-1.4
			c0-0.2,0.1-0.5,0.2-0.5c1.6-0.1,1.4-1.6,1.9-2.5s1.5-0.7,2.2,0.3c0.4,0.6,0.5,1.4,1.1,1.8c0.1,0,0.2,0,0.4,0.1
			c0-1.5-0.8-2.7-1.2-4c-0.8-2.5-0.8-2.5,1.1-4.2c0.2-0.2,0.2-0.5,0.3-0.8l0,0h1.2c-0.3,1,0,1.9,0.4,2.9c0.4,0.8,1.1,1.5,1.2,2.5
			c0,0.3,0,0.5-0.1,0.9c-0.8,0.2-1.1-0.3-1.4-0.9c-0.5-1-1.1-2-1.8-3c-0.4,1.6,0.5,2.9,0.9,4.4c0.2,0.8,0.8,1.5,0.6,2.3
			c-0.1,0.6-0.1,1.3-0.8,1.5c-0.6,0.2-1.1-0.1-1.5-0.4c-0.8-0.5-1-1.5-1.6-2.3c-0.7,1.2,0.1,2.2,0.4,3.2c0.2,0.6,0.6,1.2,0.9,1.8
			c0.2,0.4,0.4,0.9-0.2,1.2c-0.4,0.2-0.8-0.1-1-0.4c-0.6-0.9-1.2-1.8-1.9-3c0-0.1-0.1-0.1-0.1-0.2c0,0.1,0,0.1,0,0.2
			c-0.2,1.7,0.5,2.9,1.1,4.2c0.2,0.4,0.5,0.8,0.7,1.2s0.5,0.9,0,1.2c-0.5,0.3-0.8-0.1-1.1-0.5c-0.8-1.1-1.4-2.4-2-4v-0.1v0.1
			c-0.4,1.3,0,2.3,0.4,3.3c0.5,1.5,1.2,3,1.1,4.7c0,1-0.6,1.8-1.5,1.8c-1.2,0-1.5,0.6-1.8,1.5c-0.2,0.6-0.6,1-1,1.6
			c0,0,0,0.1-0.1,0.1c0.1,0,0.1,0,0.2,0.1c4.3,2,7.1,5.7,10.1,9.2c2.5,2.9,4.5,6.1,5.4,9.9C633.8,44.7,633.9,45.2,634,45.8z"/>
		<path class="st30" d="M679.2,25c3.4-1.1,4-4.3,3.3-6.9c-0.6-1.9-2.6-2.7-4.8-2c-1.9,0.6-3,2.4-2.6,4.2c0.3,1.1,1,1.6,2.2,1.5
			c1.1-0.2,2.3-1.5,2.1-2.5c0-0.2-0.1-0.4-0.3-0.5s-0.5,0-0.6,0.3c-0.2,0.6-0.4,1.1-1,0.5c-0.5-0.4-0.3-1,0.1-1.5
			c0.5-0.6,1.2-0.7,2-0.5s1,0.8,1.1,1.5c0.2,1.9-1.6,3.9-3.7,4c-0.9,0-1.7,0-2.6,0.1c-3,0.3-4.6-1.5-3.8-4.4c0.5-0.7,0.3-1.5,0-2.2
			c-0.5-1.4-0.1-2.5,0.8-3.5c2.3-2.8,6.8-3.6,10.3-1.8c1.4,0.7,2.7,1.8,4.4,1.9c0.7,0,1,0.7,0.9,1.4c-0.1,1.1,0.4,1.9,1.2,2.7
			c2.2,2,2.5,4.6,2.1,7.3c-0.2,1.6-1.4,2.6-2.8,3.1c-1.6,0.7-3.3,1-5,1.1c-2.5,0.1-5.1,0.2-7.4,1.4c-1,0.5-1.9,1-2.7,2.1
			c1.6-0.3,3.1-0.3,4.4-1.1c2.9-1.7,6-1.8,9.2-0.5c0.1,0.1,0.3,0.1,0.4,0.2c1.9,1,3.9,1.3,5.6-0.2c1.7-1.5,2.3-3.6,1.7-5.8
			c-0.5-1.7-1.3-3.4-0.7-5.3c0.2-0.6-0.4-1.2-0.9-1.7c-1.6-1.7-3.2-3.2-4-5.5c-0.2-0.5-0.7-0.8-1.2-0.8c-0.7-0.1-1.3-0.3-1.9-0.3
			c-1.8-0.2-3.3-0.8-4.6-2.1c-1.2-1.2-2.4-1.2-3.7,0s-2.7,1.9-4.3,2.5c-2.7,1-3.2,2.3-2.2,5c0.3,0.8,0.9,1.5,0.5,2.5
			c-0.3,0.3-0.7,0.5-1.1,0.1c-1.6-1.4-1.9-5.8-0.5-7.6c0.5-0.7,1.1-1.1,2-1.3c1.7-0.3,3.2-1,4.5-2.4c1.6-1.7,4.4-1.6,5.9,0.1
			c1.3,1.4,2.9,1.6,4.5,1.7c2.1,0.1,3.6,0.8,4.1,3c0.3,1.3,1.5,2.1,2.4,3.1c0.8,0.9,1.6,1.8,2.5,2.6c0.5,0.5,0.4,0.9,0,1.3
			c-0.8,1-0.6,1.9-0.2,3c1.1,2.5,1.1,5-0.2,7.4c-1.5,2.9-5.5,3.9-7.7,2.6c-1.8-1-3.7-1.6-5.8-1.3c-0.7,0.1-9.7,3.2-10.1,3.6
			c-0.3,0.3-0.6,0.8-1.1,0.5c-0.6-0.3-0.4-0.9-0.3-1.4c0.7-2.6,2.4-4.3,4.7-5.4c0.2-0.1,0.4-0.2,0.6-0.4c1.5-1.1,3.2-1.3,4.9-1.3
			c1.8,0,3.6-0.2,5.4-0.6c3.8-0.9,4.8-4.4,2-7.3c-1-1-1.9-1.9-2.2-3.4c0-0.3-0.2-0.5-0.4-0.6c-2.1-0.8-3.9-2.4-6.2-2.7
			c-1.5-0.2-2.8,0.1-4.1,0.8c-1.5,0.8-1.8,1.7-1.5,3.4c0.2,1,0.1,1.9-0.3,2.8c-0.2,0.4-0.4,0.8-0.2,1.3c0.2,0.4,0.5,0.8,1.1,0.7
			c0.5-0.1,0.3-0.6,0.3-0.9c-0.1-1.5,0.1-2.9,1-4.2c1.7-2.2,4-2.2,6.3-1.7c2,0.4,3,2,3.3,3.9c0.8,4.2-2.4,8.3-6.7,8.6
			c-0.5,0-0.9,0-1.3-0.2c-0.4-0.2-0.7-0.6-0.6-1.1c0.1-0.5,0.6-0.7,1-0.5C677.5,25.6,678.3,25.3,679.2,25z"/>
		<path class="st29" d="M644-0.7h1.2c-0.3,3.2-0.8,6.1-1.4,9c-0.2,1-0.6,2-1.1,3c-0.2,0.4-0.5,0.7-1,0.4c-0.4-0.2-0.2-0.6,0-0.9
			C643.1,7,643.7,3.2,644-0.7z"/>
		<path class="st29" d="M658.8-0.7c-0.4,0.5-1,0.8-1.9,0.8c-0.4,0-0.5,0.2-0.6,0.5c-2,3.6-6,3.9-8.6,0.8c-0.5-0.6-1-1.3-1.6-2h1.4
			c0.8,1.1,1.8,2,3,2.7c1.5,0.9,2.7,0.1,3.9-0.8c0.7-0.6,0.8-1.2,0.8-1.8h3.6V-0.7z"/>
		<path class="st26" d="M679.2,25c-0.7,0.6-1.6,0.5-2.5,0.5c-0.4,0-1-0.2-1,0.5c0,0.6,0.5,0.7,1,0.8c3.2,0.5,7-2.6,7.2-5.8
			c0.1-1.4,0.2-2.7-0.6-4c-1.4-2.4-4-2.7-6.6-1.7c-2.3,0.9-3.4,3.5-2.7,6.1c0.1,0.2,0.3,0.4,0.1,0.8c-1,0.3-1.8-0.1-2.5-0.9
			c-0.6-0.8,0-1.4,0.4-2c0.5-0.8,0.6-1.8,0.1-2.6c-0.5-1-0.2-1.7,0.5-2.5c1.8-2.1,5.3-2.7,8.1-1.3c1.4,0.7,2.6,1.9,4.2,2
			c0.4,0,0.4,0.4,0.4,0.7c-0.1,1.2,0.7,2,1.5,2.7c0.7,0.7,1.4,1.3,1.7,2.3c1.3,3.8,0.4,5.4-3.4,6.4c-1,0.3-2.1,0.5-3.1,0.5
			c-2.4,0-4.8,0.2-7.2,1.1c0.3-0.6,0.4-1.1,0.1-1.7c-0.5-0.9,0.1-1.4,0.6-1.9c0.6-0.6,1,0,1.4,0.3C677.7,25.6,678.4,24.8,679.2,25z"
			/>
		<path class="st31" d="M639.2,68.9c5-0.5,8.9,2.4,13.4,2.7c6.7,0.5,13.1-0.6,18.6-4.5c2.2-1.5,4-3.5,3.9-6.5c0-0.4,0.1-0.9,0.6-0.8
			c0.5,0,0.6,0.5,0.6,0.9c0.1,1.7-0.5,3.2-1.5,4.5c-2.7,3.7-6.6,5.5-10.8,6.6c-5.1,1.4-10.3,1.8-15.4,0.3c-2.3-0.6-4.4-1.9-6.8-2
			c-1.5-0.1-2.9-0.3-4.4-0.4c-0.4,0-0.8-0.1-0.9-0.6c-0.1-0.5,0.3-0.6,0.6-0.8c3.6-2.1,6-5.1,6.9-9.2c0.5-2.4,0.4-4.9,0.8-7.4
			c0.6-3.1,1.8-5.9,4.3-8c1.4-1.2,3-1.6,4.8-1.4c0.6,0.1,1.1,0.4,1.5,1c0.2,0.2,0.2,0.5-0.1,0.7c-0.1,0.1-0.4,0.2-0.5,0.1
			c-1.2-0.9-2.5-0.8-3.7-0.2c-1.6,0.8-2.8,2.2-3.6,3.8c-1.2,2.3-1.8,4.7-1.7,7.2c0.1,5.4-2,9.7-5.9,13.3
			C639.7,68.3,639.6,68.4,639.2,68.9z"/>
		<path class="st30" d="M704.1,24c-0.2,4-2.4,7-5.2,9.6c-1.7,1.6-3.6,3-5.4,4.4c-1.3,1-2.1,2.3-2.5,3.9c-0.6,2.9-2.5,4.3-5.3,4.6
			c-0.6,0.1-1.1,0.2-1.6,0.3c-0.4,0.1-0.8,0.2-0.9-0.2c-0.2-0.5,0.1-0.8,0.5-0.9c0.7-0.2,1.4-0.3,2.1-0.4c2.1-0.2,3.6-1.1,4-3.3
			c0.6-3.2,3.1-5,5.4-6.9c1.8-1.4,3.7-2.8,5.1-4.7c3.8-5.1,3.6-9.1-1.1-13.4c-2.5-2.3-4.5-4.7-5.4-8c-1.1-3.6-5.6-5.5-8.9-4
			c-1.3,0.6-2.7,0.5-4,0.4c-0.6-0.1-1.1-0.2-1.6-0.3c-3.6-0.7-5.5,0.2-7.3,3.3c-0.2,0.4-0.3,1.2-1,0.8c-0.6-0.3-0.3-1,0-1.5
			c1.5-3.1,4.4-4.6,7.8-4c2.4,0.4,4.6,0.6,7-0.2c3.6-1.2,7.8,0.8,9.1,4.5c1.2,3.5,3.2,6.1,5.8,8.6C702.5,18.6,704.3,20.9,704.1,24z"
			/>
		<path class="st30" d="M701.5,41c-0.3-3.5,1.8-6.2,2.9-9.3c0.8-2.2,2.1-4.1,2.6-6.4c1.1-4.9-1.9-11.5-7.4-12.3
			c-0.9-0.1-1.7-0.6-2.5-1c-0.3-0.1-0.5-0.4-0.4-0.7c0.1-0.4,0.5-0.4,0.8-0.3c2.8,1.1,5.9,1.5,8,4.1c3.3,4,3.8,8.4,1.9,13.1
			c-1.1,2.8-2.4,5.6-3.7,8.3c-0.7,1.5-1.1,2.9-0.9,4.5c0.4,4.5-1.8,7.3-5.8,8.9c-2.8,1.1-5.3,2.6-7.6,4.5c-3.1,2.6-6.8,3.5-10.8,2.5
			c-2.6-0.7-5.1-1.3-7.8-1.1c-1.5,0.1-2.3-0.8-2.9-2.1c-0.2-0.4-0.3-0.8,0.2-1c0.4-0.2,0.7,0.2,0.8,0.5c0.6,1.4,1.7,1.7,3,1.6
			c2.4-0.2,4.7,0.5,7,1.1c3.8,0.9,7.1-0.1,10-2.6c2-1.7,4.2-3,6.6-4c0.4-0.2,0.8-0.3,1.1-0.4C700.1,47.3,702.1,45,701.5,41z"/>
		<path class="st30" d="M654.3,27.7c0.2-1.7,0.6-3.6,2.1-5.1c1.4-1.5,1.9-3.2,1.4-5.3c-0.8-3.5-0.3-4.3,3-5.8c0.9-0.4,1.6-0.9,1.7-2
			c0.2-1.6,1.5-2.2,3-1.5c1,0.4,2,1,2.9,1.6c0.3,0.2,0.6,0.4,0.5,0.9c-0.2,0.5-0.7,0.4-1,0.2c-0.8-0.4-1.5-0.8-2.2-1.3
			c-1.2-0.7-1.7-0.5-2,0.9c-0.2,0.9-0.6,1.6-1.5,2c-0.6,0.2-1.1,0.5-1.6,0.8c-1.5,0.6-2.1,1.8-1.7,3.3c0.9,3,0.2,5.4-1.9,7.7
			c-1.1,1.2-1.5,2.8-1.4,4.4c0.1,2.6,1.3,4.1,4,4.7c5,1.2,9.1,3.9,12.5,7.6c1.3,1.4,2.6,2.2,4.5,2.3c3.9,0.4,5.7,2.4,5.8,6.4
			c0,0.8,0.4,1.4,0.9,2c0.2,0.2,0.4,0.6,0.1,0.9c-0.3,0.3-0.7,0.1-0.9-0.1c-0.9-0.7-1.3-1.6-1.3-2.8c0-3.3-1.5-5-4.8-5.2
			c-2-0.2-3.7-0.8-5-2.5c-2.1-2.6-5-4.4-7.9-6.1c-1.4-0.8-3.1-1-4.6-1.5C655.9,33.2,654.3,31.1,654.3,27.7z"/>
		<path class="st30" d="M677.6,52.3c0.2,0,0.4,0,0.4,0c0.5,0.1,1.4-0.6,1.5,0.3c0.1,0.9-0.9,0.9-1.6,0.9c-1.9-0.1-3.7-0.2-5.6-0.4
			c-2.2-0.3-3.6-1.7-4.8-3.4c-0.7-1-1.3-1.9-1.9-2.9c-1.4-2.1-3.4-3.4-5.9-3.9c-3-0.5-5.9-1.5-8.6-3c-4.3-2.3-6.3-9.4-4.1-13.7
			c1.4-2.7,3.6-4.5,5.9-6.3c1-0.8,2-1.7,2.9-2.7c0.3-0.3,0.5-1,1-0.5c0.4,0.4,0.3,1-0.1,1.4c-1,0.9-1.9,1.8-2.9,2.7
			c-2.1,1.7-4.3,3.3-5.6,5.9c-1.2,2.4-1.1,4.6-0.2,7.1c1.7,4.9,5.7,6.6,10.1,7.4c4.6,0.8,7.9,3.1,10.1,7.1c1.3,2.5,3.3,3.9,6.3,3.7
			C675.5,51.9,676.6,52.4,677.6,52.3z"/>
		<path class="st31" d="M714.9,24.7c-1.6,1.4-3.7,1.5-5.3,2.6c-0.2,0.2-0.6,0.3-0.8,0c-0.3-0.3-0.1-0.7,0.1-0.9
			c0.7-0.7,1.6-0.9,2.4-1.2c1.6-0.5,3-1.2,3.9-2.7c0.2-0.3,0.4-0.5,0.7-0.4s0.6,0.3,0.5,0.7c-0.6,4.2,1.1,8.2,0.7,12.4
			c-0.4,3.9-1.6,7.4-4.3,10.3c-1.7,1.9-4,2.4-6.5,2.3c-0.5,0-1.1-0.1-1.1-0.8c0-0.5,0.4-0.5,0.8-0.5c5.4,0.7,7.7-3.5,9.1-7.4
			c1-2.6,1-5.4,0.7-8.1C715.6,29,715.2,27,714.9,24.7z"/>
		<path class="st31" d="M662.8,52.6c-1.2-0.2-2.1-0.4-3-0.6c-0.4-0.1-0.8-0.3-0.7-0.8c0.1-0.4,0.5-0.4,0.9-0.4s0.7,0.1,1,0.2
			c1.4,0.4,2.8,0.8,4.1-0.6c0.2-0.2,0.5-0.3,0.8-0.3c0.4-0.1,0.7-0.1,0.9,0.3c0.1,0.3-0.1,0.6-0.4,0.7c-2.4,1.1-3.4,3.3-4.6,5.4
			c-0.6,1.1-0.2,2.2,0,3.2c0.3,1.2,0.1,2.2-0.6,3.2c-0.3,0.4-0.7,0.8-1.1,0.5c-0.6-0.3-0.2-0.8,0.1-1.2c0.5-0.8,0.9-1.6,0.2-2.6
			c-1.8,3.8-5.1,5.6-8.7,7.1c-1.6,0.7-3.2,0.6-4.8,0.1c-0.4-0.1-0.8-0.3-0.7-0.8s0.6-0.4,1-0.4c4.8,0.6,9.6-2.1,12-6.5
			C660.4,57.1,661.1,54.7,662.8,52.6z"/>
		<path class="st31" d="M712.1,31.8c0.5-0.5,0.3-1.2,0.4-1.7c0.1-0.5,0.3-1,0.9-0.8c0.6,0.1,0.4,0.6,0.4,1c-0.2,1.3-0.5,2.7-0.8,4.1
			c0.4,0.3,1.2-0.4,1.3,0.4c0.1,0.7-0.6,0.8-1.1,1c-0.8,0.2-1.3,0.6-1.8,1.3c-1.3,1.9-3.4,2.9-5.3,3.9c1.1,1.8,2,2.2,4.1,1.5
			c0.4-0.1,0.9-0.4,1.2,0.2c0.2,0.6-0.3,0.8-0.7,1c-2,1-5.1-0.1-5.9-2.2c-0.4-1,0.3-1.4,0.9-1.6c0.9-0.4,1.7-1,2.6-1.5
			c2.5-1.3,3-3.5,2.5-6c-0.1-0.6-0.6-1.3,0.1-1.6C711.9,30.2,711.7,31.4,712.1,31.8z"/>
		<path class="st30" d="M663.6,29.9c0-3.9,1.9-6.9,4.2-9.8c0.3-0.4,0.7-0.9,1.3-0.4c0.5,0.4,0,0.8-0.3,1.1c-1.7,2.2-3.3,4.5-3.7,7.3
			c-0.3,1.7-0.2,3.4,0.7,5c0.2,0.4,0.6,0.9-0.1,1.1c-0.5,0.2-0.8-0.2-1-0.6C663.9,32.5,663.6,31.3,663.6,29.9z"/>
		<path class="st31" d="M667,60.3c0.1,1.5-0.6,2.9,0.2,4.1c0.1,0.2,0,0.5-0.2,0.6c-0.4,0.2-0.7,0-0.9-0.3c-0.6-0.8-0.6-1.7-0.4-2.6
			c0.4-1.7,0.3-3.2-1.1-4.4c-0.1-0.1-0.2-0.3-0.3-0.5c-0.2-0.7-1.1-1.7-0.1-2.1c0.9-0.4,0.9,0.9,1.2,1.5
			C666,57.8,667.6,58.8,667,60.3z"/>
		<path class="st31" d="M706.7,35c0-1.1,0.6-1.9,1.1-2.8c0.4-0.8,1.1-1.5,0.4-2.5c-0.2-0.2-0.1-0.5,0.1-0.7c0.3-0.2,0.6-0.2,0.8,0
			c0.8,0.5,0.8,1.2,0.6,2s-0.7,1.6-1.2,2.3c-0.4,0.7-0.7,1.3-0.6,2.1c0.1,0.5,0.3,1.1-0.4,1.2c-0.6,0-0.7-0.7-0.8-1.1
			C706.7,35.4,706.7,35.2,706.7,35z"/>
		<path class="st31" d="M647.7,61.4c0.3,0,0.8,0.1,1.1,0.4c0.9,0.8,1.9,1.6,3.2,1.4c0.3,0,0.6,0.1,0.6,0.5s-0.3,0.5-0.6,0.6
			c-1.2,0.3-2.2-0.1-3.1-0.8c-0.7-0.6-1.4-1.5-2.3-0.1c-0.2,0.3-0.5,0.3-0.8,0c-0.3-0.2-0.2-0.5-0.1-0.8
			C646.2,61.9,646.7,61.4,647.7,61.4z"/>
		<path class="st32" d="M686.1,38.9c-0.1,0-0.3-0.1-0.4-0.3c-0.2-0.3-0.1-0.6,0.2-0.8c1.3-0.9,2.2-2,2.8-3.4c0.2-0.5,0.7-0.6,1,0.1
			C690.2,35.5,687.4,39,686.1,38.9z"/>
		<path class="st31" d="M658.5,56.3c0.4,0,0.7,0,0.8,0.4c0.1,0.3-0.1,0.6-0.4,0.8c-0.6,0.3-1.2,0.4-1.9,0.4c-0.6,0-1.3-0.2-1.9,0.3
			c-0.3,0.3-0.7,0.5-1,0s0-0.9,0.4-1.1c0.4-0.2,1-0.3,1.4-0.4C656.9,56.5,657.7,56.7,658.5,56.3z"/>
		<path class="st31" d="M654.4,70.5c-0.7-0.1-0.7-0.5-0.6-1c0.3-1,0.8-1.8,1.5-2.6c0.2-0.2,0.5-0.3,0.7-0.1c0.2,0.1,0.3,0.4,0.2,0.7
			c-0.5,0.9-1,1.9-1.5,2.8C654.7,70.4,654.6,70.4,654.4,70.5z"/>
		<path class="st31" d="M676.1,88c-0.1,1.1-0.1,2.2-0.3,3.1c-0.3,1.5-1.4,2.3-2.8,2.2c-1.2-0.2-2-1.2-1.9-2.7
			c0.1-2.7,1.8-4.5,3.6-6.3c0.6-0.6,1,0,1.2,0.5C676.4,85.9,675.8,87,676.1,88z"/>
		<path class="st31" d="M686.2,89.3c-0.1,1.2-0.6,2-1.7,2.5c-1,0.4-1.7-0.2-2.2-0.9c-1.3-1.6-2.1-3.5-2.9-5.5
			c-0.2-0.5-0.2-1.1,0.3-1.5s0.9,0,1.2,0.2c1.7,1,3.4,2,4.6,3.6C685.9,88.2,686.1,88.7,686.2,89.3z"/>
		<path class="st31" d="M680.9,90.9c0.7,0.4,1.2,1,1.2,1.9c0,0.5-0.3,0.8-0.8,0.7c-1-0.2-1.2-1-1.3-1.8
			C680,91.2,680.4,90.9,680.9,90.9z"/>
		<path class="st31" d="M679.4,89.4c0,0.6-0.1,1.1-0.8,1.1c-0.8-0.1-0.9-0.8-0.9-1.4c0-0.5,0.2-0.9,0.7-0.9
			C679.2,88.2,679.3,88.8,679.4,89.4z"/>
		<path class="st31" d="M626.4,79.8c-0.9-0.1-1.8-0.5-2.2-1.6c-0.4-1.2,0.2-2.1,1.1-2.8c2.1-1.6,4.5-1.5,6.9-1.4
			c0.5,0,0.8,0.5,0.6,1c-0.1,0.4-0.3,0.8-0.6,1c-1.3,1.1-2.6,2.2-4,3.2C627.8,79.5,627.2,79.8,626.4,79.8z"/>
		<path class="st31" d="M637.1,82.2c0.1,3-1,4.4-2.9,4.3c-1.3-0.1-2-0.7-1.8-2c0.2-2.3,1.3-4.3,2.3-6.3c0.2-0.5,0.7-0.7,1.3-0.6
			c0.5,0.1,0.6,0.7,0.7,1.1C636.8,79.9,637,81.3,637.1,82.2z"/>
		<path class="st31" d="M631.6,83.6c-0.2,0.7-0.2,1.6-1.2,1.7c-0.6,0.1-0.8-0.5-0.7-0.9c0.1-0.7,0.2-1.6,1.2-1.7
			C631.4,82.6,631.6,83.1,631.6,83.6z"/>
		<path class="st31" d="M630.9,81.3c-0.5,0-0.8-0.2-0.8-0.7c0-0.8,0.4-1.3,1.2-1.5c0.4-0.1,0.8,0.2,0.8,0.7
			C632.1,80.6,631.6,81,630.9,81.3z"/>
		<path class="st31" d="M628.4,81.2c-0.2,0.8-0.8,1-1.5,1c-0.5,0-1-0.1-1-0.7c0.1-0.9,0.8-0.9,1.5-1
			C627.9,80.5,628.2,80.6,628.4,81.2z"/>
		<path class="st31" d="M736.6,30.5c-0.9-0.1-1.7-0.4-2.5-1c-1.3-0.9-2.3-2.1-3.3-3.3c-0.7-1-0.5-1.6,0.7-1.6
			c2.3,0.1,4.6,0.5,6.7,1.6c1,0.5,1.2,1.6,0.9,2.7C738.8,30.1,737.8,30.4,736.6,30.5z"/>
		<path class="st31" d="M732.6,21.3c-0.7,0-1.2-0.1-1.4-0.6c-0.3-0.5,0.1-0.9,0.4-1.2c1.4-1.5,2.6-3.1,4.5-3.9
			c1.2-0.6,2.3-0.3,3.1,0.7c0.9,1.1,0.8,2.1-0.4,2.9C736.9,20.5,734.6,20.8,732.6,21.3z"/>
		<path class="st31" d="M739.2,21.8c-0.5,0-1-0.2-1-0.7c0.1-0.9,0.9-1.1,1.6-1.3c0.5-0.1,1.1,0.1,1,0.8
			C740.8,21.6,739.9,21.6,739.2,21.8z"/>
		<path class="st31" d="M740.8,25.4c0,0.6-0.2,1-0.7,0.9c-0.8-0.1-1.4-0.6-1.6-1.4c-0.1-0.4,0.3-0.7,0.7-0.7
			C740,24.2,740.5,24.7,740.8,25.4z"/>
		<path class="st31" d="M736.3,23.7c-0.5,0-1.2-0.1-1.2-0.8c0-0.7,0.5-0.9,1.1-0.9s1.2,0.1,1.2,0.8
			C737.5,23.5,736.9,23.6,736.3,23.7z"/>
		<path class="st31" d="M715,65.3c0.3-0.7-0.5-2.1,0.6-2.4c1-0.3,1.6,0.8,2.1,1.6c0.8,1.2,1.8,2.3,2.5,3.6c0.8,1.3,0.3,2.7-0.9,3.4
			c-1,0.6-2.3,0.2-3.2-0.9C715.1,69,714.9,67.3,715,65.3z"/>
		<path class="st31" d="M725.8,64c-2.4-0.4-4.5-1.5-6.5-2.8c-0.9-0.6-0.7-1.6,0.3-1.7c2-0.3,4.1-0.7,6.1-0.1c1.4,0.4,2.2,1.6,2,3
			C727.6,63.5,727,64.1,725.8,64z"/>
		<path class="st31" d="M724.6,64.7c0.8,0.2,1.7,0.2,1.7,1.2c0,0.5-0.4,0.8-0.9,0.7c-0.7-0.1-1.6-0.3-1.7-1.2
			C723.7,64.8,724.2,64.7,724.6,64.7z"/>
		<path class="st31" d="M721.4,68.9c0-0.6,0.1-1.2,0.7-1.1c0.8,0.1,0.9,0.9,1,1.5c0.1,0.5-0.2,1.1-0.8,1
			C721.5,70.2,721.5,69.4,721.4,68.9z"/>
		<path class="st31" d="M676.9,93.1c0.1-0.6,0.3-1.1,1-0.9c0.8,0.3,0.7,1,0.6,1.7c-0.1,0.5-0.4,1-1,0.9
			C676.7,94.5,676.9,93.7,676.9,93.1z"/>
		<path class="st31" d="M722.3,65.1c0,0.6-0.2,1-0.7,0.9c-0.8-0.1-1.3-0.5-1.5-1.3c-0.1-0.5,0.3-0.8,0.7-0.8
			C721.7,63.9,722.1,64.5,722.3,65.1z"/>
		<path class="st31" d="M600,45.9c-1,0-1.8-0.7-2.1-1.9c-0.4-1.3,0.5-2.1,1.5-2.7c1.5-0.8,6.3,0,7.6,1.1c0.4,0.3,0.5,0.7,0.1,1
			c-0.2,0.2-0.4,0.4-0.7,0.6C605.9,44.4,600.8,45.9,600,45.9z"/>
		<path class="st31" d="M609.1,48.2c-0.5,1.9-0.7,4.1-2.1,5.9c-0.9,1.1-2.3,1.3-3.5,0.4c-1.2-0.9-0.9-1.9-0.3-2.9
			c1.1-1.7,2.6-3.1,4.1-4.4c0.4-0.3,0.9-0.5,1.4-0.3C609.1,47.2,609.2,47.5,609.1,48.2z"/>
		<path class="st31" d="M601,52.4c-0.5-0.1-0.9-0.4-0.7-1c0.2-0.8,0.7-1.5,1.6-1.5c0.4,0,0.8,0.4,0.6,0.8
			C602.4,51.5,602,52.2,601,52.4z"/>
		<path class="st31" d="M599.4,48.2c-0.7,0-1.4-0.1-1.4-0.9c0-0.5,0.4-0.8,0.9-0.7c0.6,0.1,1.6-0.1,1.6,0.9
			C600.5,48.1,599.9,48.3,599.4,48.2z"/>
		<path class="st31" d="M603.7,46.8c0.4,0.1,0.8,0.3,0.8,0.8c-0.1,0.9-0.8,1.1-1.5,1.2c-0.5,0-0.8-0.3-0.7-0.8
			C602.4,47.2,603,46.9,603.7,46.8z"/>
		<path class="st31" d="M604.7,4.6c-0.7,0.1-1.2-0.3-1.7-0.5c-1.5-0.5-3-0.9-4.3-1.7c-1.2-0.7-1.3-1.7-1-2.9c0-0.1,0-0.1,0.1-0.2h5
			c1.2,1.1,2.1,2.4,2.9,3.8C606.1,4.1,605.7,4.5,604.7,4.6z"/>
		<path class="st31" d="M602.8,7.7c0.7-0.1,1.4,0.1,1.7,0.7s-0.4,1-0.8,1.3c-1.5,1.2-2.9,2.5-4.8,3.1c-1.1,0.3-2,0.1-2.7-0.8
			c-1.1-1.3-0.9-2.6,0.7-3.3C598.7,7.9,600.8,7.9,602.8,7.7z"/>
		<path class="st31" d="M597.5,7c-0.2,0.9-1,0.9-1.6,1.1c-0.5,0.1-1.1-0.1-1.1-0.7c0-1,0.9-1,1.6-1C596.9,6.2,597.4,6.3,597.5,7z"/>
		<path class="st31" d="M597.8,3.1c0,0.5-0.3,0.9-0.7,0.8c-0.8-0.1-1.2-0.6-1.4-1.4c-0.1-0.5,0.1-0.8,0.6-0.8
			C597.1,1.8,597.4,2.5,597.8,3.1z"/>
		<path class="st31" d="M599.7,4.8c0.6,0,1.2,0.2,1.1,0.9c0,0.6-0.5,0.8-1.1,0.7c-0.6-0.1-1.3-0.2-1.2-1
			C598.6,4.8,599.2,4.8,599.7,4.8z"/>
		<path class="st26" d="M613.5,18.9c-0.8-2.3-1.6-4.6-2.8-6.7c-0.1-0.3-0.2-0.6-0.2-0.9c0-0.3,0-0.6,0.4-0.7
			c0.3-0.1,0.5,0.1,0.6,0.4C612.7,13.5,614.1,15.9,613.5,18.9z"/>
		<path class="st26" d="M617.9,15.7c0.8,1,1.3,1.8,0.9,3.3C618.2,17.9,617.4,17.1,617.9,15.7z"/>
		<path class="st26" d="M670.6,18.9c-0.2-1.6-1.3-2.8-1.3-4.5c0.1-1.6,0.6-2.6,2.2-3c1.9-0.5,3.6-1.3,4.9-2.8c1.1-1.2,3-1.1,4,0.1
			c1.6,1.9,3.9,2,6.1,2.3c1.2,0.1,1.9,0.6,2.2,1.7c0.4,1.8,1.9,2.8,3,4.1c0.5,0.6,1,1.2,1.5,1.7c0.4,0.4,0.5,0.8,0.2,1.3
			c-0.6,1.1-0.4,2.1,0.1,3.2c0.9,1.9,1,3.8,0.2,5.8c-1.1,2.8-3.9,4-6.6,2.7c-2.5-1.1-4.9-1.8-7.6-1.2c-0.5,0.1-1.1,0.2-1.4,0.4
			c-1.9,1.5-4.3,1.5-6.7,2.1c0.6-1.6,1.9-2.4,3.2-3.1c2.2-1.1,4.6-1.4,7.1-1.4c2.1,0,4.1-0.4,6-1.3c1.6-0.8,2.4-2,2.4-3.9
			c-0.1-2.4-0.6-4.5-2.6-6.1c-0.8-0.7-1.4-1.5-0.9-2.6c0.2-0.6,0-1.1-0.6-1c-1.5,0.3-2.6-0.6-3.8-1.3c-2.4-1.5-5-1.7-7.7-0.9
			c-1.2,0.4-2.2,1.2-3,2.2s-1.2,2.1-0.5,3.4C671.4,17.6,671.5,18.4,670.6,18.9L670.6,18.9z"/>
	</g>
	<polygon class="st33" points="703.8,-0.4 579.8,109.8 579.8,-0.4 	"/>
</g>
<rect x="30" y="242" class="st34" width="357.1" height="19"/>
</svg>
