<?xml version="1.0" encoding="utf-8"?>
<!-- Generator: Adobe Illustrator 21.0.0, SVG Export Plug-In . SVG Version: 6.00 Build 0)  -->
<svg version="1.1" id="Layer_1" xmlns="http://www.w3.org/2000/svg" xmlns:xlink="http://www.w3.org/1999/xlink" x="0px" y="0px"
	 viewBox="0 0 150 150" style="enable-background:new 0 0 150 150;" xml:space="preserve">
<style type="text/css">
	.st0{fill:#4D4240;}
	.st1{fill:#D6666F;}
	.st2{fill:#DDE5E1;}
	.st3{font-family:'ClementePDal-SemiBoldItalic';}
	.st4{font-size:25.1096px;}
</style>
<g id="Layer_2">
	<path class="st0" d="M64.6,17h57.6c4.1,0,7.4,3.3,7.4,7.4v118.1c0,4.1-3.3,7.4-7.4,7.4H64.6c-4.1,0-7.4-3.3-7.4-7.4V24.4
		C57.2,20.4,60.5,17,64.6,17z"/>
</g>
<g id="Layer_3">
	<path class="st1" d="M150,7.4v135.2c0,4.1-3.3,7.4-7.4,7.4h-39V92.5h19.5l3-21.2l0.3-2h-22.8V54.5c0-0.4-0.1-0.8-0.1-1.2
		c0-0.4,0-0.8,0.1-1.2c0.5-3.8,3.2-6.9,6.7-7.9c0.9-0.2,1.7-0.4,2.7-0.4s1.7,0.3,2.6,0.2h11.1l0.1-20.8h-21.9
		c-0.4,0-0.9,0.1-1.3,0.2c-11.4,1.5-20.5,10-23.2,20.9c-0.1,0.5-0.2,1-0.3,1.5v23.6H60.3v23.2h19.8V150H7.4c-4.1,0-7.4-3.3-7.4-7.4
		V7.4C0,3.3,3.3,0,7.4,0h135.2C146.6,0,150,3.3,150,7.4z"/>
	<text transform="matrix(1 0 0 1 16.145 68.8618)" class="st2 st3 st4">Facebook</text>
	<text transform="matrix(1 0 0 1 43.98 98.999)" class="st2 st3 st4">Page</text>
</g>
</svg>
