<?xml version="1.0" encoding="utf-8"?>
<!-- Generator: Adobe Illustrator 21.0.0, SVG Export Plug-In . SVG Version: 6.00 Build 0)  -->
<svg version="1.1" id="Layer_1" xmlns="http://www.w3.org/2000/svg" xmlns:xlink="http://www.w3.org/1999/xlink" x="0px" y="0px"
	 viewBox="0 0 150 150" style="enable-background:new 0 0 150 150;" xml:space="preserve">
<style type="text/css">
	.st0{fill:#4D4240;}
	.st1{fill:#DDE3E1;}
	.st2{fill:#DDE5E1;}
</style>
<g>
	<path class="st0" d="M150.1,56.4v78.7c0,8.2-6.7,14.9-14.9,14.9H14.9C6.7,150,0,143.3,0,135.1V56.4h43.4C40.7,62,39.1,68.3,39.1,75
		c0,21.3,16,36,37.4,36s36.4-15.9,36.4-37.2c0-6.3-1.3-12.2-3.8-17.4H150.1L150.1,56.4z"/>
	<path class="st1" d="M135.2,0H14.9C6.8,0,0.1,6.7,0.1,14.9v41.5h43.4C49.6,44.3,61.7,36,76.3,36c15,0,27,8.2,32.8,20.5h41V14.9
		C150.1,6.7,143.4,0,135.2,0z M134.9,32.5c-1.5,2.1-4.4,3.5-10.3,3.5c-11.8,0-11.8-5.3-11.8-11.8c0-3.2,0-6.2,1.5-8.3
		s4.4-3.5,10.3-3.5c5.9,0,8.8,1.3,10.3,3.5c1.5,2.1,1.5,5.1,1.5,8.3S136.4,30.4,134.9,32.5z"/>
	<path class="st2" d="M108.1,73.8c0,17.5-14.2,31.8-31.8,31.8c-17.5,0-31.8-14.2-31.8-31.8c0-6.4,1.9-12.4,5.1-17.4
		C55.3,47.7,65.1,42,76.3,42s20.9,5.7,26.6,14.4C106.2,61.4,108.1,67.4,108.1,73.8z"/>
</g>
</svg>
