<?xml version="1.0" encoding="utf-8"?>
<!-- Generator: Adobe Illustrator 21.0.0, SVG Export Plug-In . SVG Version: 6.00 Build 0)  -->
<svg version="1.1" id="Layer_1" xmlns="http://www.w3.org/2000/svg" xmlns:xlink="http://www.w3.org/1999/xlink" x="0px" y="0px"
	 viewBox="0 0 150 150" style="enable-background:new 0 0 150 150;" xml:space="preserve">
<style type="text/css">
	.st0{fill:#4D4240;}
	.st1{fill:#D6666F;}
	.st2{fill:#DDE5E1;}
	.st3{font-family:'ClementePDal-SemiBoldItalic';}
	.st4{font-size:25.5992px;}
</style>
<g id="Layer_4">
	<ellipse class="st0" cx="76.2" cy="74.2" rx="41.7" ry="42.1"/>
	<path class="st0" d="M133.9,39h-18.5c-4.1,0-7.4-3.3-7.4-7.4V17.3c0-4.1,3.3-7.4,7.4-7.4h18.5c4.1,0,7.4,3.3,7.4,7.4v14.2
		C141.3,35.6,138,39,133.9,39z"/>
</g>
<g id="Layer_2">
	<g>
		<path class="st1" d="M150,56.4v78.7c0,8.2-6.7,14.9-14.9,14.9H14.9C6.7,150,0,143.3,0,135.1V56.4h43.4C40.6,62,39,68.3,39,75
			c0,21.3,16,36,37.4,36s36.4-15.9,36.4-37.2c0-6.3-1.3-12.2-3.8-17.4L150,56.4L150,56.4z"/>
		<path class="st1" d="M135.1,0H14.9C6.7,0,0,6.7,0,14.9v41.5h43.4C49.6,44.3,61.6,36,76.3,36c15,0,27,8.2,32.8,20.5h41V14.9
			C150,6.7,143.3,0,135.1,0z M134.9,32.5c-1.5,2.1-4.4,3.5-10.3,3.5c-11.8,0-11.8-5.3-11.8-11.8c0-3.2,0-6.2,1.5-8.3
			s4.4-3.5,10.3-3.5c5.9,0,8.8,1.3,10.3,3.5c1.5,2.1,1.5,5.1,1.5,8.3S136.4,30.4,134.9,32.5z"/>
		<path class="st1" d="M108,73.8c0,17.5-14.2,31.8-31.8,31.8c-17.5,0-31.8-14.2-31.8-31.8c0-6.4,1.9-12.4,5.1-17.4
			C55.3,47.7,65.1,42,76.2,42s20.9,5.7,26.6,14.4C106.1,61.4,108,67.4,108,73.8z"/>
	</g>
</g>
<g id="Layer_3">
	<text transform="matrix(1 0 0 1 12.4945 69.7476)" class="st2 st3 st4">Instagram</text>
	<text transform="matrix(1 0 0 1 44.2572 100.4746)" class="st2 st3 st4">Feed</text>
</g>
</svg>
