<?xml version="1.0" encoding="utf-8"?>
<!-- Generator: Adobe Illustrator 21.0.0, SVG Export Plug-In . SVG Version: 6.00 Build 0)  -->
<svg version="1.1" id="Layer_1" xmlns="http://www.w3.org/2000/svg" xmlns:xlink="http://www.w3.org/1999/xlink" x="0px" y="0px"
	 viewBox="0 0 150 150" style="enable-background:new 0 0 150 150;" xml:space="preserve">
<style type="text/css">
	.st0{fill:#4D4240;}
	.st1{fill:#DDE5E1;}
	.st2{font-family:'ClementePDal-SemiBoldItalic';}
	.st3{font-size:82.8107px;}
</style>
<g id="Layer_4">
	<path class="st0" d="M142.6,150H7.4c-4.1,0-7.4-3.3-7.4-7.4V7.4C0,3.3,3.3,0,7.4,0h135.2c4.1,0,7.4,3.3,7.4,7.4v135.2
		C150,146.7,146.7,150,142.6,150z"/>
</g>
<g id="Layer_2">
	<path class="st1" d="M117.5,122.9H33.9c-4.1,0-7.4-3.3-7.4-7.4V31.9c0-4.1,3.3-7.4,7.4-7.4h83.6c4.1,0,7.4,3.3,7.4,7.4v83.6
		C124.9,119.5,121.5,122.9,117.5,122.9z"/>
	<text transform="matrix(1 0 0 1 52.084 99.623)" class="st0 st2 st3">R</text>
</g>
</svg>
