<?xml version="1.0" encoding="utf-8"?>
<!-- Generator: Adobe Illustrator 21.0.0, SVG Export Plug-In . SVG Version: 6.00 Build 0)  -->
<svg version="1.1" id="Layer_1" xmlns="http://www.w3.org/2000/svg" xmlns:xlink="http://www.w3.org/1999/xlink" x="0px" y="0px"
	 viewBox="0 0 144 144" style="enable-background:new 0 0 144 144;" xml:space="preserve">
<style type="text/css">
	.st0{fill:#F5F4ED;}
	.st1{fill:#E3E0C9;stroke:#3A363D;stroke-width:0.75;stroke-miterlimit:10;}
	.st2{fill:#D43E27;stroke:#3A363D;stroke-linecap:round;stroke-linejoin:round;stroke-miterlimit:10;}
	.st3{fill:#058586;stroke:#3A363D;stroke-linecap:round;stroke-linejoin:round;stroke-miterlimit:10;}
	.st4{fill:#3A363D;stroke:#3A363D;stroke-linecap:round;stroke-linejoin:round;stroke-miterlimit:10;}
	.st5{fill:#00AFB2;stroke:#3A363D;stroke-linecap:round;stroke-linejoin:round;stroke-miterlimit:10;}
	.st6{fill:#F26322;stroke:#3A363D;stroke-linecap:round;stroke-linejoin:round;stroke-miterlimit:10;}
	.st7{fill:#00AFB1;stroke:#3A363D;stroke-width:0.5;stroke-linecap:round;stroke-linejoin:round;stroke-miterlimit:10;}
	.st8{fill:#F26423;stroke:#3A363D;stroke-width:0.5;stroke-linecap:round;stroke-linejoin:round;stroke-miterlimit:10;}
	.st9{fill:none;stroke:#3A363D;stroke-width:3;stroke-miterlimit:10;}
</style>
<g>
	<polygon class="st0" points="116.2,84.3 71.3,132.3 26.2,84.3 53.2,62.6 37.5,45.7 71.3,11.8 105.2,45.7 89.4,62.6 	"/>
	<circle class="st1" cx="71.3" cy="32.3" r="1.3"/>
	<circle class="st1" cx="71.3" cy="95.6" r="2"/>
	<circle class="st1" cx="71.3" cy="103.2" r="2"/>
	<circle class="st1" cx="71.3" cy="110.9" r="2"/>
	<circle class="st1" cx="71.3" cy="118.6" r="2"/>
	<g>
		<path class="st2" d="M65,44.7c-2.3-1.1-4.3-1-6.6,0.4c-1.3,5.1,4.1,11.1,10.5,18.1C76.1,71.3,82.1,78,88,74.9
			c0.8-3.6-1.4-7.5-5.2-12.2"/>
		<path class="st3" d="M78.1,44.5c2.3-1.1,4.3-1.1,6.6,0.4C86,49.9,80.6,55.9,74.3,63c-7.2,8.1-13.2,14.8-19.1,11.6
			c-1-4.3,2.7-9.3,7.6-15.2"/>
		<path class="st4" d="M80,63.3c-0.4,11.9-0.8,21.6-9.4,21.3c-8.7-0.3-8.3-10-7.9-21.9c0-1.1,0.1-2.1,0.1-3.2
			c0.4-10.4,1.5-18.4,9.3-18.1C80.8,41.7,80.4,51.4,80,63.3z"/>
		<path class="st5" d="M78.4,67.8c-7.8,9.1-14,16.5-20.6,10.8c-1.5-1.2-2.3-2.6-2.6-4c5.9,3.1,11.9-3.6,19.1-11.6
			c6.3-7.1,11.7-13.1,10.4-18.2c0.4,0.2,0.8,0.5,1.2,0.9C92.5,51.3,86.2,58.7,78.4,67.8z"/>
		<path class="st6" d="M64.7,68.1c7.8,9.1,14.1,16.4,20.7,10.8c1.5-1.3,2.3-2.6,2.6-4c-5.9,3.2-11.9-3.5-19.1-11.6
			c-6.4-7.1-11.8-13.1-10.5-18.1c-0.4,0.2-0.8,0.5-1.2,0.9C50.7,51.6,57,59,64.7,68.1z"/>
	</g>
	<g>
		<path class="st7" d="M77.3,104c-0.3,0-0.5-0.1-0.6-0.4c-0.2-0.4-0.1-0.8,0.2-1l27.9-17.3l-27.2,11c-0.4,0.2-0.8,0-1-0.4
			c-0.2-0.4,0-0.8,0.4-1l35.3-14.3l0.7,1.3l-35.3,21.9C77.6,104,77.4,104,77.3,104z"/>
	</g>
	<g>
		<path class="st8" d="M77.3,119.4c-0.2,0-0.4-0.1-0.5-0.2c-0.3-0.3-0.3-0.8,0-1.1l26.3-27.9l-25.3,21.2c-0.3,0.3-0.8,0.2-1.1-0.1
			c-0.3-0.3-0.2-0.8,0.1-1.1l35.3-29.6l1,1.1l-35.3,37.3C77.7,119.3,77.5,119.4,77.3,119.4z"/>
	</g>
	<g>
		<path class="st8" d="M65.6,104c-0.1,0-0.3,0-0.4-0.1L29.6,81.9l0.7-1.3l35.6,14.3c0.4,0.2,0.6,0.6,0.4,1c-0.2,0.4-0.6,0.6-1,0.4
			l-27.5-11L66,102.6c0.4,0.2,0.5,0.7,0.2,1C66.1,103.9,65.8,104,65.6,104z"/>
	</g>
	<g>
		<path class="st7" d="M65.6,119.4c-0.2,0-0.4-0.1-0.5-0.2L29.4,81.8l1-1.1l35.6,29.6c0.3,0.3,0.4,0.7,0.1,1.1
			c-0.3,0.3-0.7,0.4-1.1,0.1L39.5,90.2l26.6,27.9c0.3,0.3,0.3,0.8,0,1.1C66,119.3,65.8,119.4,65.6,119.4z"/>
	</g>
	<polygon class="st9" points="116.2,84.3 71.3,132.3 26.2,84.3 53.2,62.6 37.5,45.7 71.3,11.8 105.2,45.7 89.5,62.6 	"/>
</g>
<path class="st3" d="M128.9,7c2.3-1.1,4.3-1.1,6.6,0.4c1.3,5.1-4.1,11.1-10.4,18.2c-7.2,8.1-13.2,14.8-19.1,11.6
	c-1-4.3,2.7-9.3,7.6-15.2"/>
<path class="st4" d="M130.7,25.8c-0.4,11.9-0.8,21.6-9.4,21.3c-8.7-0.3-8.3-10-7.9-21.9c0-1.1,0.1-2.1,0.1-3.2
	c0.4-10.4,1.5-18.4,9.3-18.1C131.5,4.2,131.2,13.9,130.7,25.8z"/>
<path class="st5" d="M129.2,30.3c-7.8,9.1-14,16.5-20.6,10.8c-1.5-1.2-2.3-2.6-2.6-4c5.9,3.1,11.9-3.6,19.1-11.6
	c6.3-7.1,11.7-13.1,10.4-18.2c0.4,0.2,0.8,0.5,1.2,0.9C143.2,13.9,137,21.2,129.2,30.3z"/>
<path class="st2" d="M18.9,98.3c-2.3-1.1-4.3-1-6.6,0.4c-1.3,5.1,4.1,11.1,10.5,18.1c7.3,8.1,13.3,14.7,19.1,11.6
	c0.8-3.6-1.4-7.5-5.2-12.2l-5.2-6"/>
<path class="st4" d="M33.9,116.9c-0.4,11.9-0.8,21.6-9.4,21.3s-8.3-10-7.9-21.9c0-1.1,0.1-2.1,0.1-3.2c0.4-10.4,1.5-18.4,9.3-18.1
	C34.7,95.3,34.3,105,33.9,116.9z"/>
<path class="st4" d="M-150,56.3c-0.4,11.9-0.8,21.6-9.4,21.3c-8.7-0.3-8.3-10-7.9-21.9c0-1.1,0.1-2.1,0.1-3.2
	c0.4-10.4,1.5-18.4,9.3-18.1C-149.2,34.7-149.6,44.4-150,56.3z"/>
<path class="st6" d="M18.7,121.7c7.8,9.1,14.1,16.4,20.7,10.8c1.5-1.3,2.3-2.6,2.6-4c-5.9,3.2-11.9-3.5-19.1-11.6
	c-6.4-7.1-11.8-13.1-10.5-18.1c-0.4,0.2-0.8,0.5-1.2,0.9C4.6,105.3,10.9,112.6,18.7,121.7z"/>
</svg>
