<?xml version="1.0" encoding="utf-8"?>
<!-- Generator: Adobe Illustrator 21.0.0, SVG Export Plug-In . SVG Version: 6.00 Build 0)  -->
<svg version="1.1" xmlns="http://www.w3.org/2000/svg" xmlns:xlink="http://www.w3.org/1999/xlink" x="0px" y="0px"
	 viewBox="0 0 200 200" style="enable-background:new 0 0 200 200;" xml:space="preserve">
<style type="text/css">
	.st0{fill:#A5B3B8;}
	.st1{fill:#007879;}
	.st2{fill:#DDE3E1;}
	.st3{font-family:'ClementePDal-SemiBoldItalic';}
	.st4{font-size:151.9095px;}
</style>
<g id="hover">
	<path class="st0" d="M175.8,200H24.2C10.9,200,0,189.1,0,175.8V24.2C0,10.9,10.9,0,24.2,0h151.6C189.1,0,200,10.9,200,24.2v151.6
		C200,189.1,189.1,200,175.8,200z"/>
</g>
<g id="background">
	<g>
		<path class="st1" d="M175.8,200H24.2C10.9,200,0,189.1,0,175.8V24.2C0,10.9,10.9,0,24.2,0h151.6C189.1,0,200,10.9,200,24.2v151.6
			C200,189.1,189.1,200,175.8,200z"/>
	</g>
</g>
<g id="at">
	<text transform="matrix(1 0 0 1 39.7168 147.6226)" class="st2 st3 st4">@</text>
</g>
</svg>
