<?xml version="1.0" encoding="utf-8"?>
<!-- Generator: Adobe Illustrator 21.0.0, SVG Export Plug-In . SVG Version: 6.00 Build 0)  -->
<svg version="1.1" xmlns="http://www.w3.org/2000/svg" xmlns:xlink="http://www.w3.org/1999/xlink" x="0px" y="0px"
	 viewBox="0 0 200 200" style="enable-background:new 0 0 200 200;" xml:space="preserve">
<style type="text/css">
	.st0{fill:#A5B3B8;}
	.st1{fill:#007879;}
	.st2{fill:#DDE3E1;}
</style>
<g id="hover">
	<path class="st0" d="M175.8,200H24.2C10.9,200,0,189.1,0,175.8V24.2C0,10.9,10.9,0,24.2,0h151.6C189.1,0,200,10.9,200,24.2v151.6
		C200,189.1,189.1,200,175.8,200z"/>
</g>
<g id="background">
	<g>
		<path class="st1" d="M175.8,200H24.2C10.9,200,0,189.1,0,175.8V24.2C0,10.9,10.9,0,24.2,0h151.6C189.1,0,200,10.9,200,24.2v151.6
			C200,189.1,189.1,200,175.8,200z"/>
	</g>
</g>
<g id="f">
	<g>
		<path class="st2" d="M78.1,200.5l-0.5-1.7c4.1,0,7.4-0.9,9.9-2.8c2.5-1.9,4.4-5.6,5.7-11.2l20.4-88.1h-10.4l3.6-15.9h10.4
			l4.2-18.1c1.3-5.5,3.1-10,5.5-13.3c2.4-3.4,5.1-6,8.1-7.8c3-1.8,6.2-3,9.6-3.6c3.4-0.6,6.8-0.9,10.1-0.9c3.7,0,7,0.1,9.9,0.4
			c2.9,0.3,5.7,0.5,8.5,0.6l-4.4,19.4c-2.2-0.4-5-0.6-8.4-0.6c-4.1,0-7.4,0.9-9.8,2.6c-2.4,1.7-4.3,5.3-5.6,10.8l-1.9,8.6h10.4
			l-4.2,17.7h-10.4L116.4,193c-0.6,2.8-1.4,5.3-2.3,7.6L78.1,200.5z"/>
	</g>
</g>
</svg>
