<?xml version="1.0" encoding="utf-8"?>
<!-- Generator: Adobe Illustrator 21.0.0, SVG Export Plug-In . SVG Version: 6.00 Build 0)  -->
<svg version="1.1" id="Layer_1" xmlns="http://www.w3.org/2000/svg" xmlns:xlink="http://www.w3.org/1999/xlink" x="0px" y="0px"
	 viewBox="0 0 723.5 746.8" style="enable-background:new 0 0 723.5 746.8;" xml:space="preserve">
<style type="text/css">
	.st0{fill:#007A78;}
	.st1{font-family:'Baskerville-BoldItalic';}
	.st2{font-size:110px;}
	.st3{fill:#4E4240;}
	.st4{font-family:'Baskerville-SemiBold';}
	.st5{font-size:80px;}
	.st6{font-size:85.3174px;}
	.st7{fill:#D7666F;}
	.st8{enable-background:new    ;}
	.st9{fill:#4D4240;}
</style>
<text transform="matrix(1 0 0 1 10.3322 90.8246)" class="st0 st1 st2">Daphne Kraft</text>
<text transform="matrix(1 0 0 1 10.3322 295.6246)" class="st3 st4 st5">Photography</text>
<text transform="matrix(1 0 0 1 487.1322 295.6246)" class="st3 st4 st6"> </text>
<text transform="matrix(1 0 0 1 508.4322 295.6246)" class="st7 st4 st6">&amp;</text>
<text transform="matrix(1 0 0 1 10.3322 397.9246)" class="st3 st4 st5">Graphic Design</text>
<text transform="matrix(1 0 0 1 586.3322 397.9246)" class="st3 st4 st6"> </text>
<text transform="matrix(1 0 0 1 607.6322 397.9246)" class="st7 st4 st6">&amp;</text>
<text transform="matrix(1 0 0 1 10.3322 500.3246)" class="st3 st4 st5">Web Design</text>
<text transform="matrix(1 0 0 1 453.7322 500.3246)" class="st3 st4 st6"> </text>
<text transform="matrix(1 0 0 1 475.0322 500.3246)" class="st7 st4 st6">&amp;</text>
<text transform="matrix(1 0 0 1 10.3322 602.7246)" class="st3 st4 st5">Product Design</text>
<text transform="matrix(1 0 0 1 583.1322 602.7246)" class="st3 st4 st6"> </text>
<text transform="matrix(1 0 0 1 604.4322 602.7246)" class="st7 st4 st6">&amp;</text>
<text transform="matrix(1 0 0 1 10.3322 705.1246)" class="st3 st4 st5">Disney</text>
<text transform="matrix(1 0 0 1 266.1322 705.1246)" class="st3 st4 st6"> </text>
<text transform="matrix(1 0 0 1 287.4322 705.1246)" class="st8"><tspan x="0" y="0" class="st9 st4 st6">Lover</tspan><tspan x="229.3" y="0" class="st7 st4 st6">.</tspan></text>
</svg>
