<?xml version="1.0" encoding="utf-8"?>
<!-- Generator: Adobe Illustrator 21.0.0, SVG Export Plug-In . SVG Version: 6.00 Build 0)  -->
<svg version="1.1" xmlns="http://www.w3.org/2000/svg" xmlns:xlink="http://www.w3.org/1999/xlink" x="0px" y="0px"
	 viewBox="0 0 200 200" style="enable-background:new 0 0 200 200;" xml:space="preserve">
<style type="text/css">
	.st0{fill:#A5B3B8;}
	.st1{fill:#007879;}
	.st2{fill:#DDE3E1;}
</style>
<g id="hover">
	<path class="st0" d="M175.8,200H24.2C10.9,200,0,189.1,0,175.8V24.2C0,10.9,10.9,0,24.2,0h151.6C189.1,0,200,10.9,200,24.2v151.6
		C200,189.1,189.1,200,175.8,200z"/>
</g>
<g id="background">
	<g>
		<path class="st1" d="M175.8,200H24.2C10.9,200,0,189.1,0,175.8V24.2C0,10.9,10.9,0,24.2,0h151.6C189.1,0,200,10.9,200,24.2v151.6
			C200,189.1,189.1,200,175.8,200z"/>
	</g>
</g>
<g id="lens">
	<path class="st2" d="M110.3,143H95.7C78.2,143,64,128.8,64,111.3V96.7C64,79.2,78.2,65,95.7,65h14.7c17.4,0,31.7,14.2,31.7,31.7
		v14.7C142,128.8,127.8,143,110.3,143z"/>
	<path class="st0" d="M110,141H96c-16.5,0-30-13.5-30-30V97c0-16.5,13.5-30,30-30H110c16.5,0,30,13.5,30,30V111
		C140,127.5,126.5,141,110,141z"/>
</g>
<g id="flash">
	<path class="st2" d="M165.8,51h-5.6c-6.7,0-12.2-5.5-12.2-12.2v-5.6c0-6.7,5.5-12.2,12.2-12.2h5.6c6.7,0,12.2,5.5,12.2,12.2v5.6
		C178,45.5,172.5,51,165.8,51z"/>
	<path class="st0" d="M165.7,50.2h-5.4c-6.4,0-11.6-5.2-11.6-11.6v-5.4c0-6.4,5.2-11.6,11.6-11.6h5.4c6.4,0,11.6,5.2,11.6,11.6v5.4
		C177.2,45,172,50.2,165.7,50.2z"/>
</g>
</svg>
