<?xml version="1.0" encoding="utf-8"?>
<!-- Generator: Adobe Illustrator 21.0.0, SVG Export Plug-In . SVG Version: 6.00 Build 0)  -->
<svg version="1.1" id="Layer_1" xmlns="http://www.w3.org/2000/svg" xmlns:xlink="http://www.w3.org/1999/xlink" x="0px" y="0px"
	 viewBox="0 0 640.6 641.1" style="enable-background:new 0 0 640.6 641.1;" xml:space="preserve">
<style type="text/css">
	.st0{fill:#A9B8B3;}
	.st1{fill:#D7666F;}
	.st2{fill:#4E4240;}
	.st3{font-family:'ClementePDal-SemiBoldItalic';}
	.st4{font-size:30.491px;}
</style>
<g id="greyLeg">
	<path class="st0" d="M354.8,21.6l262.4,262.4c19.7,19.7,19.7,51.7,0,71.5L354.8,618c-19.7,19.7-51.7,19.7-71.5,0v-0.5l261.9-261.9
		c19.7-19.7,19.7-51.7,0-71.5L283.4,22.2v-0.5C303.1,1.9,335.1,1.9,354.8,21.6z"/>
</g>
<g id="pinkLeg">
	<path class="st1" d="M20.9,284.1L283.4,21.6c19.7-19.7,51.7-19.7,71.5,0l262.4,262.4c19.7,19.7,19.7,51.7,0,71.5h-0.5L354.8,93.6
		c-19.7-19.7-51.7-19.7-71.5,0L21.5,355.5h-0.5C1.2,335.8,1.2,303.8,20.9,284.1z"/>
</g>
<g id="brownLeg">
	<path class="st2" d="M285,619.5L84.1,418.7C69,403.6,69,379.1,84.1,364l218.5-218.1c15.1-15.1,34.1-9.6,49.2,5.5l0,0L150.7,352.5
		c-15.1,15.1-20.6,45.1-5.5,60.2l207.9,206.6v0.4C338,634.8,304.2,638.7,285,619.5z"/>
</g>
<g id="brownBox">
	<path class="st2" d="M315,419.9L193.8,298.8c-12.3-12.3-12.3-32.3,0-44.6L302,146.1c12.3-12.3,32.3-12.3,44.6,0l121.1,121.1
		c12.3,12.3,12.3,32.3,0,44.6L359.5,419.9C347.3,432.2,327.2,432.2,315,419.9z"/>
</g>
<g id="name">
	<text transform="matrix(0.7071 -0.7071 0.7071 0.7071 45.5869 380.1695)" class="st0 st3 st4">Daphne Elizabeth Studio</text>
</g>
</svg>
